<?xml version="1.0" encoding="iso-8859-1"?>
<!-- Generator: Adobe Illustrator 16.0.0, SVG Export Plug-In . SVG Version: 6.00 Build 0)  -->
<!DOCTYPE svg PUBLIC "-//W3C//DTD SVG 1.1//EN" "http://www.w3.org/Graphics/SVG/1.1/DTD/svg11.dtd">
<svg version="1.1" id="Capa_1" xmlns="http://www.w3.org/2000/svg" xmlns:xlink="http://www.w3.org/1999/xlink" x="0px" y="0px"
	 width="32px" height="32px" viewBox="0 0 32 32" style="enable-background:new 0 0 32 32;" xml:space="preserve">
<g>
	<g>
		<path d="M1.631,13.91c1.703,0,2.789-1.314,3.662-2.376c0.873-1.057,1.455-1.698,2.181-1.698c0.382,0,0.688,0.412,1.356,1.574
			c0.775,1.35,1.944,3.386,4.486,3.386c2.623,0,3.706-2.061,4.42-3.422c0.312-0.596,0.703-1.336,0.947-1.336
			c0.422,0,1.055,1.006,1.516,1.737c0.867,1.373,1.943,3.086,3.988,3.086c1.994,0,3.479-1.663,4.797-3.132
			c0.473-0.528,1.177-1.312,1.514-1.493C31.339,10.172,32,9.468,32,8.611c0-0.899-0.729-1.632-1.63-1.632
			c-1.511,0-2.63,1.25-3.813,2.574c-0.641,0.716-1.832,2.045-2.373,2.045c-0.283-0.067-0.918-1.078-1.225-1.562
			c-0.866-1.376-2.053-3.262-4.275-3.262c-2.215,0-3.188,1.854-3.833,3.079c-0.725,1.38-0.996,1.678-1.533,1.678
			c-0.561,0-0.905-0.438-1.658-1.747c-0.781-1.355-1.849-3.213-4.186-3.213c-2.316,0-3.693,1.669-4.697,2.889
			c-0.342,0.412-0.91,1.104-1.163,1.188C0.722,10.658,0,11.385,0,12.279C0,13.18,0.73,13.91,1.631,13.91z"/>
		<path d="M30.37,17.55c-1.511,0-2.63,1.25-3.813,2.572c-0.641,0.717-1.832,2.046-2.373,2.046c-0.283-0.067-0.918-1.077-1.225-1.562
			c-0.866-1.377-2.053-3.262-4.275-3.262c-2.215,0-3.188,1.854-3.833,3.08c-0.725,1.379-0.996,1.676-1.533,1.676
			c-0.561,0-0.905-0.438-1.658-1.746c-0.779-1.355-1.848-3.215-4.185-3.215c-2.315,0-3.692,1.67-4.696,2.89
			c-0.342,0.414-0.91,1.104-1.163,1.188C0.722,21.228,0,21.953,0,22.847c0,0.899,0.73,1.631,1.631,1.631
			c1.703,0,2.789-1.314,3.662-2.375c0.873-1.058,1.455-1.699,2.181-1.699c0.382,0,0.688,0.413,1.356,1.574
			c0.775,1.351,1.944,3.386,4.486,3.386c2.623,0,3.706-2.06,4.42-3.42c0.312-0.597,0.703-1.337,0.947-1.337
			c0.422,0,1.055,1.006,1.516,1.736c0.867,1.375,1.943,3.086,3.988,3.086c1.994,0,3.479-1.662,4.797-3.131
			c0.473-0.527,1.177-1.312,1.514-1.494C31.339,20.74,32,20.036,32,19.179C32,18.278,31.271,17.55,30.37,17.55z"/>
	</g>
</g>
<g>
</g>
<g>
</g>
<g>
</g>
<g>
</g>
<g>
</g>
<g>
</g>
<g>
</g>
<g>
</g>
<g>
</g>
<g>
</g>
<g>
</g>
<g>
</g>
<g>
</g>
<g>
</g>
<g>
</g>
</svg>
