<?xml version="1.0" encoding="iso-8859-1"?>
<!-- Generator: Adobe Illustrator 16.0.0, SVG Export Plug-In . SVG Version: 6.00 Build 0)  -->
<!DOCTYPE svg PUBLIC "-//W3C//DTD SVG 1.1//EN" "http://www.w3.org/Graphics/SVG/1.1/DTD/svg11.dtd">
<svg version="1.1" id="Capa_1" xmlns="http://www.w3.org/2000/svg" xmlns:xlink="http://www.w3.org/1999/xlink" x="0px" y="0px"
	 width="32px" height="32px" viewBox="0 0 32 32" style="enable-background:new 0 0 32 32;" xml:space="preserve">
<g>
	<path d="M30.162,6.688c-2.404-3.18-6.688-4.528-10.425-3.279C18.14,3.944,16.854,4.92,15.91,6.2
		c-0.925-1.166-2.147-2.06-3.649-2.563C8.526,2.386,4.242,3.733,1.838,6.914c-2.332,3.089-2.022,6.004-1.354,7.906
		c0.736,2.089,2.399,4.116,3.634,4.426c0.979,0.24,1.979-0.348,2.227-1.332c0.215-0.854-0.208-1.723-0.97-2.095
		c-0.311-0.27-1.404-1.46-1.651-3.104c-0.187-1.241,0.156-2.413,1.044-3.588c1.444-1.909,4.104-2.752,6.326-2.011
		c1.98,0.665,3.07,2.453,3.07,5.033V26.99v0.229c0,1.016,0.821,1.835,1.836,1.835c1.016,0,1.836-0.819,1.836-1.835V26.99V12.15
		v-0.226c0-2.582,1.09-4.369,3.069-5.034c2.226-0.742,4.883,0.101,6.326,2.01c0.889,1.176,1.229,2.35,1.043,3.587
		c-0.248,1.646-1.34,2.836-1.649,3.104c-0.763,0.373-1.187,1.24-0.972,2.096c0.248,0.985,1.244,1.581,2.229,1.332
		c1.235-0.311,2.896-2.338,3.634-4.426C32.184,12.689,32.494,9.773,30.162,6.688z"/>
</g>
<g>
</g>
<g>
</g>
<g>
</g>
<g>
</g>
<g>
</g>
<g>
</g>
<g>
</g>
<g>
</g>
<g>
</g>
<g>
</g>
<g>
</g>
<g>
</g>
<g>
</g>
<g>
</g>
<g>
</g>
</svg>
