<?xml version="1.0" encoding="iso-8859-1"?>
<!-- Generator: Adobe Illustrator 16.0.0, SVG Export Plug-In . SVG Version: 6.00 Build 0)  -->
<!DOCTYPE svg PUBLIC "-//W3C//DTD SVG 1.1//EN" "http://www.w3.org/Graphics/SVG/1.1/DTD/svg11.dtd">
<svg version="1.1" id="Capa_1" xmlns="http://www.w3.org/2000/svg" xmlns:xlink="http://www.w3.org/1999/xlink" x="0px" y="0px"
	 width="31.742px" height="31.742px" viewBox="0 0 31.742 31.742" style="enable-background:new 0 0 31.742 31.742;"
	 xml:space="preserve">
<g>
	<path d="M30.096,24.16c-0.237-1.158-1.373-1.91-2.526-1.671c-1.16,0.236-1.906,1.368-1.668,2.527
		c0.053,0.271-2.261,3.369-3.908,2.63s-1.771-3.751-0.705-5.126c2.334-3.002,7.604-10.612,6.123-16.393
		c-0.586-2.287-2.148-4.036-4.563-5.082c-3.657-1.482-6.749-1.389-9.193,0.283c-3.428,2.344-4.309,7.04-4.53,9.608
		c-0.014,0-0.025-0.005-0.039-0.005c-4.153,0-7.532,3.379-7.532,7.532c0,4.152,3.379,7.531,7.532,7.531
		c4.152,0,7.53-3.379,7.53-7.531c0-2.571-1.298-4.842-3.271-6.203c0.037-1.81,0.56-5.921,2.731-7.401
		c1.188-0.802,2.917-0.754,5.113,0.138c1.521,0.657,1.91,1.567,2.07,2.194c0.682,2.655-1.421,7.641-5.354,12.701
		c-2.955,3.801-2.44,7.938,1.371,11.065c2.258,1.416,5.691,0.635,7.03-0.174C28.42,29.513,30.679,27.013,30.096,24.16z
		 M9.086,21.709c-1.791,0-3.247-1.457-3.247-3.246c0-1.791,1.456-3.249,3.247-3.249s3.247,1.458,3.247,3.249
		C12.332,20.252,10.875,21.709,9.086,21.709z"/>
</g>
<g>
</g>
<g>
</g>
<g>
</g>
<g>
</g>
<g>
</g>
<g>
</g>
<g>
</g>
<g>
</g>
<g>
</g>
<g>
</g>
<g>
</g>
<g>
</g>
<g>
</g>
<g>
</g>
<g>
</g>
</svg>
