<?xml version="1.0" encoding="iso-8859-1"?>
<!-- Generator: Adobe Illustrator 16.0.0, SVG Export Plug-In . SVG Version: 6.00 Build 0)  -->
<!DOCTYPE svg PUBLIC "-//W3C//DTD SVG 1.1//EN" "http://www.w3.org/Graphics/SVG/1.1/DTD/svg11.dtd">
<svg version="1.1" id="Capa_1" xmlns="http://www.w3.org/2000/svg" xmlns:xlink="http://www.w3.org/1999/xlink" x="0px" y="0px"
	 width="31.997px" height="31.997px" viewBox="0 0 31.997 31.997" style="enable-background:new 0 0 31.997 31.997;"
	 xml:space="preserve">
<g>
	<path d="M31.455,21.75l-4.507-3.229c-0.399-0.286-0.921-0.326-1.354-0.104c-0.435,0.223-0.707,0.67-0.707,1.159v1.984
		c-0.863-0.207-2.01-0.649-2.01-1.333V8.198c0-2.904-3.006-4.252-4.902-4.252c-1.271,0-2.454,0.479-3.333,1.351
		c-0.001,0.001-0.003,0.003-0.005,0.004c-0.931-0.889-2.167-1.355-3.367-1.355c-1.269,0-2.452,0.479-3.33,1.351
		C7.933,5.302,7.927,5.312,7.92,5.318C7.022,4.568,5.9,4.162,4.8,4.162c-1.27,0-2.453,0.479-3.331,1.351
		C0.799,6.177,0,7.383,0,9.343c0,0.895,0.724,1.617,1.618,1.617s1.617-0.724,1.617-1.617c0-1.806,1.198-1.945,1.565-1.945
		c0.77,0,1.669,0.509,1.669,1.945v13.685c0,0.895,0.723,1.617,1.617,1.617s1.617-0.725,1.617-1.617v-13.9
		c0-1.806,1.199-1.946,1.566-1.946c2.192,0,1.903,2.105,1.903,2.734c0,0.629,0,13.112,0,13.112c0,0.895,0.724,1.617,1.617,1.617
		c0.895,0,1.618-0.725,1.618-1.617v-13.9c0-1.806,1.196-1.946,1.565-1.946c0.77,0,1.668,0.51,1.668,1.946v11.104
		c0,3.082,3.139,4.321,5.242,4.622v1.893c0,0.512,0.301,0.975,0.766,1.188c0.174,0.078,0.354,0.117,0.537,0.117
		c0.311,0,0.615-0.11,0.857-0.321l4.507-3.937c0.302-0.262,0.466-0.646,0.445-1.045C31.979,22.346,31.779,21.981,31.455,21.75z"/>
</g>
<g>
</g>
<g>
</g>
<g>
</g>
<g>
</g>
<g>
</g>
<g>
</g>
<g>
</g>
<g>
</g>
<g>
</g>
<g>
</g>
<g>
</g>
<g>
</g>
<g>
</g>
<g>
</g>
<g>
</g>
</svg>
