<?xml version="1.0" encoding="iso-8859-1"?>
<!-- Generator: Adobe Illustrator 16.0.0, SVG Export Plug-In . SVG Version: 6.00 Build 0)  -->
<!DOCTYPE svg PUBLIC "-//W3C//DTD SVG 1.1//EN" "http://www.w3.org/Graphics/SVG/1.1/DTD/svg11.dtd">
<svg version="1.1" id="Capa_1" xmlns="http://www.w3.org/2000/svg" xmlns:xlink="http://www.w3.org/1999/xlink" x="0px" y="0px"
	 width="32px" height="32px" viewBox="0 0 32 32" style="enable-background:new 0 0 32 32;" xml:space="preserve">
<g>
	<path d="M29.988,0.479h-0.005c-0.276,0-6.46,0.118-10.985,7.858c-0.91-0.225-1.854-0.359-2.833-0.359
		c-1.086,0-2.135,0.16-3.134,0.437C8.498,0.601,2.278,0.479,2.001,0.479c-0.002,0-0.004,0-0.006,0C0.897,0.479,0.021,1.358,0,2.454
		C-0.018,3.552,0.862,4.463,1.962,4.5c0.181,0.006,4.14,0.216,7.417,5.645c-3.011,2.135-4.986,5.641-4.986,9.605
		c0,6.489,5.28,11.771,11.771,11.771c6.492,0,11.774-5.28,11.774-11.771c0-4.069-2.077-7.663-5.225-9.777
		c3.231-5.218,7.068-5.463,7.307-5.473C31.121,4.484,32.003,3.587,32,2.483C31.998,1.376,31.099,0.479,29.988,0.479z M16.164,27.499
		c-4.272,0-7.749-3.476-7.749-7.748S11.892,12,16.164,12c4.275,0,7.751,3.478,7.751,7.75C23.916,24.023,20.438,27.499,16.164,27.499
		z"/>
</g>
<g>
</g>
<g>
</g>
<g>
</g>
<g>
</g>
<g>
</g>
<g>
</g>
<g>
</g>
<g>
</g>
<g>
</g>
<g>
</g>
<g>
</g>
<g>
</g>
<g>
</g>
<g>
</g>
<g>
</g>
</svg>
