<?xml version="1.0" encoding="iso-8859-1"?>
<!-- Generator: Adobe Illustrator 16.0.0, SVG Export Plug-In . SVG Version: 6.00 Build 0)  -->
<!DOCTYPE svg PUBLIC "-//W3C//DTD SVG 1.1//EN" "http://www.w3.org/Graphics/SVG/1.1/DTD/svg11.dtd">
<svg version="1.1" id="Capa_1" xmlns="http://www.w3.org/2000/svg" xmlns:xlink="http://www.w3.org/1999/xlink" x="0px" y="0px"
	 width="32px" height="32px" viewBox="0 0 32 32" style="enable-background:new 0 0 32 32;" xml:space="preserve">
<g>
	<path d="M31.882,17.006c0.498-2.979-0.598-5.78-2.931-7.495c-1.225-0.9-2.631-1.364-3.889-1.354V6.654
		c0-3.987-3.293-4.659-5.371-4.659c-1.394,0-2.688,0.524-3.65,1.479c-0.002,0.002-0.003,0.004-0.005,0.006
		c-1.021-0.974-2.374-1.485-3.689-1.485c-1.39,0-2.686,0.524-3.648,1.479C8.691,3.48,8.685,3.492,8.678,3.499
		C7.693,2.677,6.464,2.231,5.26,2.231c-1.392,0-2.688,0.524-3.65,1.479C0.876,4.439,0,5.761,0,7.909C0,8.888,0.792,9.68,1.772,9.68
		c0.979,0,1.772-0.792,1.772-1.771c0-1.979,1.312-2.133,1.715-2.133c0.843,0,1.827,0.558,1.827,2.133v14.99
		c0,0.979,0.793,1.771,1.772,1.771s1.772-0.793,1.772-1.771V7.671c0-1.979,1.544-2.129,1.968-2.129c0.424,0,1.877,0.113,1.877,2.41
		c0,2.871-0.045,14.946-0.045,14.946c0,0.979,0.792,1.771,1.772,1.771c0.979,0,1.772-0.793,1.772-1.771V7.671
		c0-1.979,1.312-2.132,1.715-2.132c0.843,0,1.828,0.557,1.828,2.132c0,0,0.051,16.173,0.049,17.226
		c-1.44,0.844-2.838,1.396-3.893,1.596c-0.962,0.182-1.595,1.107-1.414,2.07c0.161,0.85,0.904,1.442,1.74,1.442
		c0.107,0,0.221-0.012,0.33-0.03c1.422-0.271,3.402-1.045,5.418-2.277c1.896,0.971,4.486,1.439,5.799,1.627
		c0.956,0.129,1.867-0.537,2.004-1.504c0.139-0.971-0.533-1.867-1.504-2.006c-1.008-0.146-2.057-0.375-2.951-0.627
		C29.413,23.065,31.33,20.307,31.882,17.006z M25.12,22.188c0.002-0.781,0.005-1.646,0.009-2.549c0.01-2.867,0.021-6.07,0.021-7.956
		c0.397,0.02,1.146,0.219,1.877,0.819c0.662,0.543,1.718,1.775,1.359,3.918C28.02,18.623,26.734,20.587,25.12,22.188z"/>
</g>
<g>
</g>
<g>
</g>
<g>
</g>
<g>
</g>
<g>
</g>
<g>
</g>
<g>
</g>
<g>
</g>
<g>
</g>
<g>
</g>
<g>
</g>
<g>
</g>
<g>
</g>
<g>
</g>
<g>
</g>
</svg>
