<?xml version="1.0" encoding="UTF-8"?>
<svg width="16px" height="16px" viewBox="0 0 16 16" version="1.1" xmlns="http://www.w3.org/2000/svg" xmlns:xlink="http://www.w3.org/1999/xlink">
    <!-- Generator: Sketch 42 (36781) - http://www.bohemiancoding.com/sketch -->
    <title>Thumb</title>
    <desc>Created with Sketch.</desc>
    <defs></defs>
    <g id="Page-1" stroke="none" stroke-width="1" fill="none" fill-rule="evenodd">
        <g id="Elements" transform="translate(-521.000000, -63.000000)" fill="#AAAAAA">
            <g id="Sub-menu-unactive" transform="translate(491.000000, 46.000000)">
                <g id="Sub-menu" transform="translate(30.000000, 15.000000)">
                    <g id="Thumb" transform="translate(0.000000, 2.000000)">
                        <polygon id="Fill-1" points="0 2.5 2.5 2.5 2.5 0.0005 0 0.0005"></polygon>
                        <polygon id="Fill-2" points="6.5 2.5 9 2.5 9 0.0005 6.5 0.0005"></polygon>
                        <polygon id="Fill-3" points="13 2.5 15.4995 2.5 15.4995 0.0005 13 0.0005"></polygon>
                        <polygon id="Fill-4" points="0 9 2.5 9 2.5 6.5 0 6.5"></polygon>
                        <polygon id="Fill-5" points="6.5 9 9 9 9 6.5 6.5 6.5"></polygon>
                        <polygon id="Fill-6" points="13 9 15.4995 9 15.4995 6.5 13 6.5"></polygon>
                        <polygon id="Fill-7" points="0 15.5 2.5 15.5 2.5 13 0 13"></polygon>
                        <polygon id="Fill-8" points="6.5 15.5 9 15.5 9 13 6.5 13"></polygon>
                        <polygon id="Fill-9" points="13 15.5 15.4995 15.5 15.4995 13 13 13"></polygon>
                    </g>
                </g>
            </g>
        </g>
    </g>
</svg>