<?xml version="1.0" encoding="utf-8"?>
<!-- Generator: Adobe Illustrator 16.0.0, SVG Export Plug-In . SVG Version: 6.00 Build 0)  -->
<!DOCTYPE svg PUBLIC "-//W3C//DTD SVG 1.1//EN" "http://www.w3.org/Graphics/SVG/1.1/DTD/svg11.dtd">
<svg version="1.1" id="Layer_1" xmlns="http://www.w3.org/2000/svg" xmlns:xlink="http://www.w3.org/1999/xlink" x="0px" y="0px"
	 width="960px" height="560px" viewBox="0 0 960 560" enable-background="new 0 0 960 560" xml:space="preserve">
<path style="fill:#fff;" d="M480,46.292c-97.986,0-177.708,79.722-177.708,177.708S382.014,401.708,480,401.708S657.708,321.986,657.708,224
	S577.986,46.292,480,46.292z M606.04,310.478c-1.563-4.677-6.872-8.468-11.8-8.427l-47.313,0.395l-32.252-39.778
	c0.247-0.475,0.471-0.963,0.637-1.465l14.573-44.84l49.419-17.535c0.273,0.255,0.533,0.52,0.833,0.739l38.161,27.996
	c3.974,2.917,10.496,2.948,14.497,0.072l2.469-1.774c-0.386,32.498-10.797,62.612-28.287,87.414L606.04,310.478z M605.288,132.362
	l-2.962-0.014c-4.928-0.027-10.223,3.786-11.769,8.467l-14.838,44.943c-0.009,0.027-0.009,0.054-0.018,0.081l-49.218,17.463
	c-0.331-0.313-0.658-0.636-1.025-0.9l-39.371-27.816c-0.165-0.121-1.607-0.206-1.607-0.318v-52.859c0-0.108,1.442-0.193,1.604-0.31
	l38.828-27.816c3.982-2.894,6.271-9.104,4.753-13.79l-0.788-2.827C559.727,86.952,586.427,106.651,605.288,132.362z M430.796,75.73
	l-0.896,3.261c-1.523,4.686,0.488,11.142,4.479,14.036l37.211,27.946c0.161,0.121-0.551,0.327-0.551,0.439v52.859
	c0,0.107,0.717,0.197,0.551,0.313l-37.744,27.816c-0.156,0.112-0.018,0.269-0.179,0.395l-49.656-17.669l-14.516-45.7
	c-1.527-4.687-6.742-9.507-11.67-9.507h-2.792C373.833,107.52,400.207,85.976,430.796,75.73z M413.024,302.306
	c-0.099-0.004-0.202-0.031-0.3-0.031l-47.327-0.502c-4.928-0.054-10.246,3.724-11.818,8.396l-0.883,2.63
	c-17.364-24.823-27.668-54.916-27.964-87.373l2.298,1.667c3.992,2.894,10.515,2.885,14.498-0.018l38.254-27.866
	c0.395-0.287,0.749-0.631,1.102-0.977l48.89,17.347c0.05,0.202,0.072,0.417,0.135,0.614l14.623,45.011
	c0.161,0.501,0.39,0.99,0.636,1.469L413.024,302.306z M431.504,371.513l2.37-1.685c4.019-2.854,6.102-9.036,4.628-13.735
	l-14.144-45.177c-0.09-0.282-0.233-1.012-0.345-1.29l32.73-40.826h46.359l32.619,40.696c-0.166,0.358-0.35,0.954-0.467,1.335
	l-14.25,45.248c-1.483,4.7,0.582,10.945,4.592,13.808l2.424,1.761c-15.134,4.933-31.267,7.643-48.021,7.643
	C463.065,379.29,446.771,376.549,431.504,371.513z"/>
</svg>
