<svg xmlns="http://www.w3.org/2000/svg" xmlns:xlink="http://www.w3.org/1999/xlink" version="1.0" id="Ebene_1" x="0px" y="0px" width="235.603px" height="240.361px" viewBox="0 0 235.603 240.361" enable-background="new 0 0 235.603 240.361" xml:space="preserve">
<path fill-rule="evenodd" clip-rule="evenodd" d="M117.801,0c64.872,0,117.802,52.929,117.802,117.801  c0,64.871-52.93,117.757-117.802,117.757C52.93,235.558,0,182.672,0,117.801C0,52.929,52.93,0,117.801,0L117.801,0z"/>
<path fill-rule="evenodd" clip-rule="evenodd" fill="#FFFFFF" d="M117.801,1.719c63.902,0,116.038,52.18,116.038,116.082  S181.703,233.84,117.801,233.84c-63.901,0-116.038-52.137-116.038-116.039S53.899,1.719,117.801,1.719L117.801,1.719z"/>
<path fill-rule="evenodd" clip-rule="evenodd" d="M117.801,5.2c62.007,0,112.6,50.593,112.6,112.601  c0,62.008-50.593,112.557-112.6,112.557C55.793,230.357,5.2,179.809,5.2,117.801C5.2,55.793,55.793,5.2,117.801,5.2L117.801,5.2z"/>
<path fill-rule="evenodd" clip-rule="evenodd" fill="#FFFFFF" d="M117.801,30.365c48.124,0,87.437,39.267,87.437,87.436  c0,48.124-39.313,87.436-87.437,87.436c-48.125,0-87.437-39.312-87.437-87.436C30.364,69.632,69.676,30.365,117.801,30.365  L117.801,30.365z"/>
<path fill-rule="evenodd" clip-rule="evenodd" d="M117.801,240.361c-16.13,0-31.598-3.174-45.701-8.902  c-14.719-5.906-27.985-14.633-39.179-25.43c-0.661-0.66-1.454-1.189-2.248-1.543c-0.749-0.352-1.542-0.527-2.335-0.484  c-1.41,0-2.909,0.618-4.54,1.939c-1.542,1.279-3.173,3.219-4.892,5.994l-0.661,1.058l-0.75-0.97  c-3.525-4.45-3.701-8.241-2.643-11.238c0.836-2.469,2.467-4.318,3.657-5.598c-5.157-3.26-8.946-7.05-11.59-10.707  c-3.614-5.068-5.112-10.049-5.068-13.486c0-4.319,2.423-9.961,5.685-12.824c-1.146,4.715,1.014,10.092,4.275,13.264  c2.776,2.646,6.522,4.32,10.533,4.364c3.569,0.044,7.14-0.485,10.708-1.058c3.526-0.529,7.052-1.102,10.577-1.102  c2.864,0,5.729,0.354,8.726,1.102c1.543,0.441,3.129,0.926,4.804,1.586c-14.72-15.16-23.755-35.83-23.755-58.525  c0-46.495,37.901-84.396,84.396-84.396c46.45,0,84.396,37.901,84.396,84.396c0,22.695-9.079,43.365-23.756,58.525  c1.633-0.66,3.263-1.145,4.805-1.586c2.998-0.748,5.863-1.102,8.727-1.102c3.525,0,7.052,0.572,10.532,1.102  c3.614,0.572,7.184,1.102,10.753,1.058c4.012-0.044,7.757-1.718,10.534-4.364c3.261-3.172,5.376-8.549,4.23-13.264  c3.305,2.863,5.685,8.505,5.729,12.824c0.043,3.438-1.455,8.418-5.068,13.486c-2.645,3.657-6.434,7.447-11.635,10.707  c1.234,1.279,2.82,3.129,3.702,5.598c1.014,2.997,0.88,6.788-2.644,11.238l-0.795,0.97l-0.616-1.058  c-1.72-2.775-3.351-4.715-4.893-5.994c-1.63-1.321-3.129-1.939-4.54-1.939c-0.792-0.043-1.586,0.133-2.334,0.484  c-0.795,0.354-1.587,0.883-2.291,1.543c-11.15,10.797-24.416,19.523-39.135,25.43C149.399,237.188,133.931,240.361,117.801,240.361  L117.801,240.361z"/>
<path fill-rule="evenodd" clip-rule="evenodd" fill="#FFFFFF" d="M57.292,178.266c-1.896-0.793-3.659-1.366-5.377-1.852  c-2.82-0.704-5.553-1.014-8.285-1.014c-3.394,0-6.831,0.529-10.313,1.059c-3.614,0.572-7.271,1.102-10.973,1.102  c-4.496-0.088-8.638-1.938-11.723-4.892c-2.512-2.425-4.274-5.597-4.892-9.079c-0.265,0.354-0.484,0.794-0.75,1.279  c-0.749,1.586-1.41,3.613-1.41,6.125c-0.045,3.129,1.366,7.713,4.759,12.473c2.689,3.745,6.611,7.536,12.032,10.797l0.925,0.572  l-0.75,0.749c-1.145,1.189-3.129,3.175-4.054,5.729c-0.794,2.336-0.705,5.199,1.631,8.638c1.585-2.379,3.084-4.143,4.583-5.332  c1.938-1.63,3.833-2.337,5.597-2.38c1.058,0,2.07,0.219,3.041,0.66c1.014,0.441,1.982,1.102,2.819,1.896  c11.018,10.62,24.063,19.214,38.563,25.077c13.926,5.641,29.174,8.725,45.084,8.725c15.909,0,31.159-3.084,45.083-8.725  c14.457-5.863,27.545-14.457,38.563-25.077c0.838-0.794,1.764-1.454,2.775-1.896c0.972-0.441,2.027-0.66,3.086-0.66  c1.764,0.043,3.658,0.75,5.598,2.38c1.453,1.189,2.996,2.953,4.582,5.332c2.337-3.438,2.425-6.302,1.588-8.638  c-0.881-2.555-2.865-4.54-4.01-5.729l-0.75-0.749l0.926-0.572c5.421-3.261,9.342-7.052,12.03-10.797  c3.394-4.76,4.761-9.344,4.761-12.473c-0.045-2.512-0.706-4.539-1.455-6.125c-0.221-0.485-0.484-0.926-0.705-1.279  c-0.617,3.482-2.424,6.654-4.892,9.079c-3.085,2.953-7.228,4.804-11.724,4.892c-3.701,0-7.359-0.529-11.017-1.102  c-3.438-0.529-6.876-1.059-10.269-1.059c-2.733,0-5.465,0.31-8.285,1.014c-1.764,0.485-3.57,1.102-5.422,1.896  c-2.953,1.232-4.318,2.467-6.742,4.449c-14.631,12.121-33.361,19.436-53.722,19.436c-20.449,0-39.223-7.359-53.898-19.566  C61.523,180.645,60.201,179.5,57.292,178.266L57.292,178.266z"/>
<path fill-rule="evenodd" clip-rule="evenodd" fill="#E2001A" d="M117.801,35.125c45.524,0,82.632,37.151,82.632,82.676  c0,45.523-37.107,82.633-82.632,82.633c-45.525,0-82.677-37.109-82.677-82.633C35.124,72.276,72.275,35.125,117.801,35.125  L117.801,35.125z"/>
<path fill-rule="evenodd" clip-rule="evenodd" d="M117.801,198.361c-1.851-2.424-4.451-4.848-8.285-6.479  c-2.424-1.014-5.597-1.982-8.858-3.041c-11.37-3.569-23.534-9.518-32.127-18.422c-7.051-7.271-11.68-16.437-11.768-27.807  c0-2.689,0.309-5.465,0.838-8.021c0.616-2.997,1.498-5.862,2.468-8.329c0.661-1.763,1.146-3.306,1.455-4.759  c0.309-1.367,0.441-2.689,0.441-4.055c0-6.523-5.994-13.575-10.753-19.171c-0.794-0.925-1.542-1.807-1.983-2.335l-2.203-2.688  l22.255-21.859l2.644,2.248c1.63,1.41,3.393,2.336,5.2,2.952c2.116,0.75,4.363,1.058,6.479,1.058c2.292,0,4.539-0.308,6.831-0.66  c2.777-0.397,5.597-0.794,8.726-0.75c3.262,0.088,6.655,0.617,10.225,2.027c2.732,1.058,5.553,2.645,8.417,4.892  c2.909-2.247,5.685-3.833,8.417-4.892c3.57-1.41,6.964-1.939,10.225-2.027c3.129-0.044,5.95,0.353,8.727,0.75  c2.246,0.352,4.494,0.66,6.83,0.66c2.117,0,4.32-0.308,6.479-1.058c1.807-0.616,3.57-1.542,5.201-2.952l2.644-2.248l22.255,21.859  l-2.203,2.688c-0.44,0.529-1.189,1.411-1.982,2.335c-4.76,5.597-10.754,12.648-10.754,19.215c0,1.322,0.132,2.644,0.396,4.011  c0.354,1.453,0.838,3.039,1.499,4.759c0.97,2.467,1.851,5.332,2.425,8.329c0.528,2.557,0.88,5.332,0.836,8.021  c-0.044,11.37-4.715,20.535-11.722,27.807c-8.595,8.904-20.759,14.853-32.128,18.422c-3.262,1.059-6.434,2.027-8.902,3.041  C122.253,193.514,119.652,195.938,117.801,198.361L117.801,198.361z"/>
<path fill-rule="evenodd" clip-rule="evenodd" fill="#FFFFFF" d="M117.801,195.85c-1.586-1.982-4.274-4.143-7.581-5.553  c-2.599-1.058-5.773-2.027-9.035-3.085c-11.193-3.526-23.048-9.343-31.421-17.981c-6.744-6.962-11.194-15.732-11.282-26.617  c0-2.602,0.308-5.246,0.793-7.713c0.617-2.865,1.454-5.641,2.38-8.021c0.705-1.806,1.233-3.481,1.543-5.023  c0.352-1.498,0.484-2.953,0.484-4.407c0-7.14-6.214-14.455-11.15-20.273c-0.749-0.882-1.454-1.719-1.983-2.335l-1.189-1.455  l1.366-1.322l17.275-17.011l1.321-1.366l1.455,1.233c1.807,1.542,3.79,2.6,5.772,3.306c2.337,0.837,4.76,1.146,7.053,1.146  c2.424,0,4.715-0.353,7.051-0.661c2.732-0.397,5.465-0.794,8.462-0.75c3.085,0.088,6.258,0.573,9.651,1.896  c2.908,1.146,5.905,2.908,9.034,5.509c3.173-2.601,6.126-4.363,9.035-5.509c3.349-1.322,6.565-1.808,9.65-1.896  c2.997-0.044,5.729,0.353,8.462,0.75c2.336,0.308,4.628,0.661,7.051,0.661c2.248,0,4.672-0.309,7.052-1.146  c1.983-0.706,3.921-1.763,5.729-3.306l1.454-1.233l1.366,1.366l17.275,17.011l1.367,1.322l-1.189,1.455  c-0.531,0.617-1.235,1.454-1.984,2.335c-4.936,5.818-11.15,13.133-11.15,20.273c0,1.454,0.133,2.909,0.441,4.407  c0.352,1.542,0.882,3.218,1.586,5.023c0.926,2.381,1.763,5.156,2.336,8.021c0.528,2.467,0.838,5.111,0.793,7.713  c-0.043,10.885-4.495,19.655-11.238,26.617c-8.373,8.639-20.271,14.455-31.422,17.981c-3.261,1.058-6.434,2.027-9.033,3.085  C122.119,191.707,119.299,193.955,117.801,195.85L117.801,195.85z"/>
<path fill-rule="evenodd" clip-rule="evenodd" d="M117.801,189.943c1.72-1.365,3.745-2.467,5.994-3.436  c2.907-1.235,6.082-2.203,9.341-3.263c10.666-3.349,21.904-8.813,29.705-16.878c6.037-6.26,10.049-14.104,10.092-23.754  c0-2.336-0.265-4.673-0.705-6.92c-0.529-2.645-1.322-5.156-2.16-7.315c-0.792-2.027-1.365-3.878-1.762-5.685  c-0.396-1.809-0.572-3.526-0.572-5.245c0.043-8.682,6.786-16.615,12.162-22.961c0.266-0.265,0.484-0.529,0.706-0.837l-14.587-14.367  c-1.808,1.277-3.703,2.203-5.598,2.864c-2.865,0.97-5.773,1.367-8.418,1.367s-5.156-0.353-7.667-0.706  c-2.514-0.352-5.068-0.749-7.802-0.661c-2.645,0.045-5.332,0.441-8.195,1.587c-2.865,1.102-5.863,2.997-9.124,5.95l-1.411,1.278  l-1.366-1.278c-3.305-2.953-6.302-4.848-9.211-5.95c-2.82-1.146-5.553-1.542-8.196-1.587c-2.688-0.088-5.245,0.309-7.801,0.661  c-2.469,0.353-4.98,0.706-7.624,0.706c-2.688,0-5.553-0.397-8.418-1.367c-1.896-0.661-3.79-1.586-5.597-2.864L55,93.65  c0.221,0.308,0.441,0.572,0.705,0.837c5.377,6.347,12.12,14.279,12.12,22.961c0.044,1.718-0.176,3.436-0.529,5.245  c-0.397,1.807-0.97,3.657-1.763,5.685c-0.837,2.159-1.631,4.671-2.159,7.315c-0.441,2.247-0.706,4.584-0.706,6.92  c0.044,9.65,4.054,17.494,10.093,23.754c7.8,8.064,19.038,13.529,29.66,16.878c3.305,1.06,6.434,2.027,9.387,3.263  C114.099,187.477,116.126,188.578,117.801,189.943L117.801,189.943z"/>
<path fill-rule="evenodd" clip-rule="evenodd" d="M117.801,233.84c30.894,0,59.099-12.209,79.944-32.039  c0.704-0.707,1.719-1.545,2.556-1.985c1.806-1.013,3.79-1.542,5.597-1.587c2.072-0.088,4.23,0.441,6.479,1.543  c-0.881-2.203-2.643-4.45-4.936-5.861l5.598-3.35c5.199-3.127,8.638-5.686,11.414-11.105c-3.702,2.027-6.258,1.984-10.886,2.072  c-7.359,0.043-14.411-2.513-21.595-2.513c-4.496-0.044-10.004,1.587-14.191,3.657c-3.305,1.587-5.42,3.351-8.153,5.422  c-14.499,10.754-32.479,17.1-51.826,17.1c-19.391,0.043-37.328-6.346-51.871-17.1c-2.688-2.071-4.804-3.835-8.109-5.422  c-4.231-2.07-9.695-3.701-14.19-3.657c-7.228,0-14.234,2.556-21.639,2.513c-4.583-0.088-7.139-0.045-10.885-2.072  c2.821,5.42,6.258,7.979,11.458,11.105l5.597,3.35c-2.292,1.411-4.054,3.658-4.936,5.861c2.248-1.102,4.407-1.631,6.478-1.543  c1.807,0.045,3.791,0.574,5.597,1.587c0.793,0.44,1.851,1.278,2.556,1.985C58.702,221.631,86.863,233.84,117.801,233.84  L117.801,233.84z"/>
<path fill-rule="evenodd" clip-rule="evenodd" fill="#FFFFFF" d="M46.186,189.68c1.631,0,2.953,1.323,2.953,2.953  c0,1.631-1.321,2.952-2.953,2.952c-1.63,0-2.953-1.321-2.953-2.952C43.233,191.003,44.556,189.68,46.186,189.68L46.186,189.68z"/>
<path fill-rule="evenodd" clip-rule="evenodd" fill="#FFFFFF" d="M189.415,189.68c-1.63,0-2.953,1.323-2.953,2.953  c0,1.631,1.323,2.952,2.953,2.952c1.587,0,2.91-1.321,2.91-2.952C192.325,191.003,191.002,189.68,189.415,189.68L189.415,189.68z"/>
<path fill-rule="evenodd" clip-rule="evenodd" fill="#FFFFFF" d="M221.235,152.529c-0.31,0.969-0.662,1.762-1.104,2.422  c-0.483,0.707-1.014,1.235-1.629,1.587c-0.618,0.397-1.279,0.618-1.984,0.662s-1.498-0.044-2.291-0.31  c-0.397-0.131-0.749-0.307-1.059-0.484c-0.309-0.22-0.616-0.441-0.838-0.705c-0.264-0.264-0.484-0.572-0.616-0.926  c-0.088-0.131-0.132-0.265-0.22-0.396c-0.178,0.178-0.354,0.354-0.572,0.529c-0.354,0.265-0.795,0.484-1.279,0.617  s-0.97,0.176-1.497,0.176c-0.486,0-1.015-0.131-1.544-0.309c-0.441-0.132-0.836-0.308-1.189-0.484  c-0.396-0.221-0.748-0.485-1.058-0.749c-0.353-0.31-0.616-0.616-0.882-0.926c-0.22-0.31-0.441-0.661-0.572-1.058  c-0.176-0.354-0.264-0.705-0.354-1.102c-0.044-0.354-0.088-0.75-0.088-1.146c0.044-0.353,0.088-0.794,0.22-1.323  c0.089-0.484,0.222-1.057,0.44-1.674l1.323-4.011l0.088-0.308l0.353,0.086l17.365,5.688l0.307,0.088l-0.088,0.307L221.235,152.529  L221.235,152.529z"/>
<path fill-rule="evenodd" clip-rule="evenodd" d="M206.515,146.711l-0.529,1.676c-0.176,0.528-0.265,1.014-0.309,1.454  c-0.044,0.439,0,0.792,0.133,1.102c0.088,0.264,0.264,0.528,0.529,0.704c0.264,0.222,0.572,0.397,1.014,0.529  c0.441,0.178,0.836,0.22,1.233,0.22c0.353-0.042,0.704-0.132,0.97-0.308c0.309-0.178,0.572-0.441,0.838-0.794  c0.22-0.352,0.441-0.792,0.617-1.277l0.528-1.675L206.515,146.711L206.515,146.711z"/>
<path fill-rule="evenodd" clip-rule="evenodd" d="M214.271,149.267l-0.176,0.44c-0.176,0.661-0.309,1.191-0.353,1.675  c-0.044,0.44-0.044,0.794,0.044,1.103c0.088,0.264,0.266,0.529,0.484,0.705c0.266,0.22,0.573,0.396,1.014,0.529  c0.354,0.131,0.661,0.177,0.971,0.131c0.264,0,0.528-0.088,0.748-0.264c0.221-0.131,0.441-0.396,0.618-0.705  c0.22-0.309,0.397-0.749,0.573-1.234l0.309-1.014L214.271,149.267L214.271,149.267z"/>
<path fill-rule="evenodd" clip-rule="evenodd" fill="#FFFFFF" d="M226.522,128.818l-0.088,0.354l-0.396,2.645l-0.044,0.307  l-0.353-0.043l-11.502-1.809c-0.795-0.131-1.455-0.176-2.027-0.131c-0.529,0-0.971,0.089-1.277,0.265  c-0.266,0.177-0.531,0.44-0.707,0.749c-0.219,0.353-0.353,0.793-0.44,1.366c-0.088,0.485-0.088,0.926,0,1.323  c0.088,0.352,0.265,0.66,0.485,0.88c0.264,0.265,0.616,0.485,1.145,0.661c0.529,0.133,1.147,0.309,1.939,0.44l11.502,1.808  l0.354,0.044l-0.088,0.353l-0.396,2.645l-0.045,0.308l-0.352-0.042l-11.459-1.809c-0.617-0.088-1.189-0.221-1.631-0.309  c-0.484-0.132-0.881-0.22-1.232-0.354c-0.31-0.131-0.619-0.307-0.926-0.439c-0.266-0.177-0.529-0.353-0.749-0.572  c-0.397-0.354-0.75-0.75-1.015-1.146c-0.264-0.396-0.484-0.838-0.617-1.234c-0.176-0.484-0.264-0.969-0.264-1.454  c-0.044-0.485,0-1.014,0.088-1.587c0.088-0.572,0.22-1.145,0.396-1.63c0.176-0.485,0.439-0.97,0.705-1.323  c0.266-0.396,0.618-0.748,0.97-1.057c0.397-0.309,0.838-0.617,1.323-0.837c0.264-0.134,0.572-0.265,0.88-0.31  c0.31-0.089,0.616-0.131,0.97-0.176c0.309,0,0.75,0,1.234,0.045c0.484,0.042,1.102,0.088,1.807,0.219l11.458,1.809L226.522,128.818  L226.522,128.818z"/>
<polygon fill-rule="evenodd" clip-rule="evenodd" fill="#FFFFFF" points="208.058,122.605 208.058,122.252 207.749,113.614   207.749,113.262 208.101,113.262 226.346,112.601 226.698,112.601 226.698,112.953 226.832,115.597 226.832,115.95 226.479,115.95   211.099,116.479 211.274,122.12 211.274,122.473 210.923,122.516 208.41,122.605 208.058,122.605 "/>
<path fill-rule="evenodd" clip-rule="evenodd" fill="#FFFFFF" d="M212.816,108.062l-0.528-0.176  c-0.883-0.265-1.675-0.618-2.424-1.059c-0.705-0.441-1.366-1.014-1.895-1.63c-0.573-0.661-1.059-1.366-1.411-2.159  c-0.352-0.794-0.616-1.675-0.792-2.6c-0.134-0.706-0.178-1.367-0.134-2.027c0-0.705,0.088-1.366,0.265-1.983  c0.176-0.661,0.397-1.278,0.705-1.851c0.309-0.618,0.66-1.19,1.146-1.763c0.352-0.485,0.749-0.926,1.234-1.322  c0.44-0.353,0.926-0.706,1.453-1.014c0.529-0.31,1.059-0.573,1.631-0.793c0.573-0.176,1.189-0.353,1.852-0.441  c0.617-0.133,1.277-0.177,1.938-0.177c0.618,0.044,1.235,0.088,1.896,0.265c0.617,0.133,1.233,0.353,1.807,0.617  c0.616,0.265,1.19,0.573,1.764,0.969c0.528,0.397,0.969,0.794,1.41,1.234c0.439,0.441,0.793,0.926,1.146,1.454  c0.308,0.485,0.573,1.059,0.792,1.631c0.222,0.574,0.397,1.19,0.485,1.808c0.177,0.969,0.222,1.895,0.177,2.732  c-0.088,0.881-0.309,1.763-0.617,2.555c-0.352,0.794-0.793,1.542-1.322,2.205c-0.528,0.661-1.19,1.233-1.982,1.762l-0.441,0.309  l-0.088-0.529l-0.529-3.084l-0.043-0.176l0.131-0.133c0.31-0.309,0.617-0.661,0.838-1.058s0.397-0.793,0.527-1.233  c0.09-0.397,0.178-0.838,0.178-1.323c0.044-0.485,0-0.97-0.088-1.454c-0.09-0.441-0.178-0.794-0.354-1.19  c-0.131-0.353-0.307-0.705-0.528-1.014c-0.22-0.353-0.44-0.661-0.704-0.926c-0.31-0.309-0.617-0.573-0.926-0.793  c-0.397-0.221-0.749-0.44-1.146-0.617c-0.396-0.176-0.793-0.309-1.234-0.396c-0.439-0.088-0.836-0.132-1.277-0.132  c-0.396,0-0.838,0-1.234,0.088c-0.439,0.088-0.881,0.176-1.322,0.353c-0.396,0.132-0.793,0.309-1.145,0.528  c-0.354,0.221-0.707,0.485-1.014,0.75c-0.31,0.265-0.574,0.573-0.838,0.881c-0.221,0.353-0.439,0.75-0.617,1.102  c-0.176,0.397-0.309,0.794-0.441,1.19c-0.088,0.396-0.131,0.837-0.176,1.233c0,0.397,0.045,0.794,0.088,1.19  c0.088,0.485,0.221,0.97,0.397,1.366c0.176,0.441,0.397,0.837,0.616,1.189c0.264,0.354,0.573,0.662,0.883,0.926  c0.307,0.265,0.66,0.528,1.057,0.705l0.176,0.088v0.176l0.573,3.217L212.816,108.062L212.816,108.062z"/>
<polygon fill-rule="evenodd" clip-rule="evenodd" fill="#FFFFFF" points="199.419,79.592 199.287,79.284 195.232,71.659   195.057,71.351 195.364,71.218 211.495,62.625 211.803,62.448 211.979,62.757 213.214,65.092 213.39,65.401 213.081,65.577   199.464,72.806 202.106,77.784 202.284,78.093 201.976,78.27 199.728,79.459 199.419,79.592 "/>
<polygon fill-rule="evenodd" clip-rule="evenodd" fill="#FFFFFF" points="193.293,68.001 193.073,67.736 187.651,61.038   187.433,60.773 187.697,60.554 201.888,49.051 202.152,48.83 202.372,49.095 204.046,51.122 204.268,51.431 204.003,51.651   192.016,61.347 195.585,65.71 195.806,65.974 195.542,66.194 193.558,67.781 193.293,68.001 "/>
<polygon fill-rule="evenodd" clip-rule="evenodd" fill="#FFFFFF" points="180.602,46.01 175.709,48.39 175.489,48.478   175.312,48.346 173.242,46.407 172.89,46.099 173.33,45.877 191.046,37.372 191.222,37.24 191.399,37.416 193.293,39.179   193.47,39.355 193.382,39.575 186.155,57.777 185.934,58.262 185.581,57.909 183.466,55.926 183.29,55.793 183.378,55.573   185.448,50.505 180.602,46.01 "/>
<polygon fill-rule="evenodd" clip-rule="evenodd" points="186.771,47.288 189.108,41.779 183.73,44.423 186.771,47.288 "/>
<path fill-rule="evenodd" clip-rule="evenodd" fill="#FFFFFF" d="M175.489,25.341c0.838,0.573,1.543,1.102,2.071,1.718  c0.528,0.618,0.926,1.234,1.146,1.939c0.221,0.661,0.266,1.367,0.132,2.071c-0.088,0.706-0.397,1.455-0.837,2.16  c-0.221,0.353-0.484,0.661-0.75,0.925c-0.264,0.264-0.572,0.485-0.88,0.662c-0.31,0.132-0.662,0.264-1.015,0.352  c-0.133,0.044-0.309,0.088-0.439,0.088c0.131,0.22,0.264,0.44,0.352,0.705c0.177,0.44,0.265,0.882,0.265,1.41  c0.044,0.486-0.044,0.97-0.177,1.455s-0.352,0.97-0.661,1.455c-0.22,0.396-0.483,0.705-0.792,1.058  c-0.266,0.308-0.617,0.573-0.971,0.838c-0.353,0.22-0.705,0.44-1.102,0.573c-0.353,0.176-0.75,0.309-1.145,0.352  c-0.397,0.045-0.75,0.089-1.147,0.045c-0.352,0-0.749-0.088-1.102-0.177c-0.397-0.132-0.792-0.309-1.277-0.528  c-0.44-0.221-0.97-0.485-1.499-0.838l-3.569-2.248l-0.31-0.176l0.178-0.308l9.694-15.469l0.177-0.31l0.309,0.177L175.489,25.341  L175.489,25.341z"/>
<path fill-rule="evenodd" clip-rule="evenodd" d="M166.278,38.253l1.455,0.926c0.484,0.308,0.969,0.529,1.366,0.661  c0.396,0.132,0.749,0.177,1.058,0.132c0.308-0.044,0.617-0.132,0.836-0.353c0.31-0.176,0.529-0.484,0.795-0.837  c0.219-0.397,0.396-0.793,0.482-1.146c0.046-0.352,0.046-0.704-0.043-1.057c-0.133-0.309-0.309-0.661-0.573-0.971  c-0.264-0.308-0.661-0.616-1.146-0.925l-1.455-0.925L166.278,38.253L166.278,38.253z"/>
<path fill-rule="evenodd" clip-rule="evenodd" d="M170.599,31.334l0.439,0.265c0.528,0.353,1.057,0.617,1.498,0.794  c0.396,0.132,0.794,0.22,1.102,0.175c0.266,0,0.529-0.087,0.794-0.263c0.264-0.221,0.528-0.485,0.749-0.838  c0.176-0.309,0.309-0.617,0.353-0.925c0.044-0.265,0.044-0.53-0.088-0.794c-0.089-0.265-0.265-0.529-0.528-0.793  c-0.266-0.265-0.617-0.573-1.059-0.838l-0.881-0.573L170.599,31.334L170.599,31.334z"/>
<polygon fill-rule="evenodd" clip-rule="evenodd" fill="#FFFFFF" points="155.745,36.094 155.437,35.962 153.013,34.86   152.704,34.729 152.837,34.419 159.139,20.272 156.319,19.039 156.01,18.906 156.144,18.598 157.155,16.351 157.288,15.998   157.597,16.175 166.234,20.009 166.586,20.141 166.41,20.449 165.44,22.696 165.309,23.049 164.956,22.873 162.18,21.639   155.878,35.785 155.745,36.094 "/>
<path fill-rule="evenodd" clip-rule="evenodd" fill="#FFFFFF" d="M129.965,18.466c0.132-0.661,0.308-1.278,0.573-1.851  c0.264-0.573,0.572-1.146,0.926-1.674c0.395-0.529,0.792-1.014,1.277-1.455c0.484-0.485,0.969-0.881,1.542-1.234  s1.102-0.617,1.675-0.882c0.572-0.22,1.189-0.396,1.764-0.484c0.616-0.133,1.232-0.177,1.85-0.133c0.572,0,1.234,0.044,1.852,0.221  c0.66,0.132,1.277,0.309,1.85,0.529c0.573,0.264,1.104,0.573,1.631,0.881c0.484,0.353,0.97,0.749,1.41,1.19  c0.397,0.441,0.795,0.97,1.191,1.499c0.352,0.573,0.66,1.146,0.924,1.719c0.222,0.618,0.397,1.233,0.531,1.851  c0.131,0.618,0.176,1.278,0.131,1.895c0,0.661-0.089,1.278-0.221,1.938c-0.132,0.662-0.308,1.279-0.529,1.852  c-0.219,0.617-0.528,1.146-0.836,1.675c-0.309,0.485-0.706,0.969-1.104,1.41c-0.395,0.441-0.88,0.837-1.365,1.189  c-0.572,0.397-1.19,0.75-1.807,1.014c-0.617,0.265-1.277,0.485-1.895,0.617c-0.662,0.133-1.322,0.221-1.983,0.221  s-1.366-0.088-2.071-0.221c-0.662-0.176-1.322-0.352-1.939-0.661c-0.617-0.264-1.189-0.573-1.719-0.97  c-0.529-0.396-1.014-0.836-1.454-1.366c-0.44-0.484-0.838-1.058-1.19-1.719v0.045c-0.309-0.529-0.573-1.103-0.749-1.631  c-0.22-0.573-0.352-1.146-0.44-1.762c-0.088-0.617-0.088-1.19-0.088-1.807C129.743,19.744,129.831,19.127,129.965,18.466  L129.965,18.466z"/>
<path fill-rule="evenodd" clip-rule="evenodd" d="M133.313,19.215c-0.088,0.441-0.132,0.881-0.178,1.322  c0,0.44,0.046,0.882,0.09,1.278c0.088,0.441,0.176,0.837,0.309,1.234c0.133,0.397,0.309,0.75,0.529,1.102  c0.22,0.353,0.483,0.706,0.748,1.014c0.309,0.309,0.617,0.574,0.971,0.838c0.352,0.221,0.704,0.44,1.057,0.617  c0.397,0.132,0.749,0.264,1.146,0.352c0.881,0.176,1.719,0.22,2.512,0.044c0.794-0.132,1.543-0.484,2.291-0.969  c0.706-0.484,1.322-1.102,1.764-1.808c0.484-0.704,0.794-1.542,1.014-2.467c0.044-0.396,0.088-0.793,0.132-1.189  c0-0.397-0.044-0.75-0.088-1.146c-0.088-0.396-0.176-0.75-0.31-1.146c-0.131-0.353-0.307-0.749-0.528-1.102  c-0.264-0.396-0.528-0.792-0.792-1.102c-0.31-0.353-0.619-0.617-0.971-0.838c-0.309-0.264-0.66-0.484-1.057-0.616  c-0.397-0.176-0.795-0.309-1.235-0.396c-0.397-0.088-0.792-0.133-1.189-0.133c-0.397-0.044-0.792,0-1.189,0.088  c-0.397,0.089-0.794,0.177-1.146,0.309c-0.354,0.176-0.706,0.352-1.059,0.573c-0.352,0.265-0.661,0.529-0.969,0.837  c-0.309,0.31-0.574,0.618-0.838,0.97c-0.264,0.354-0.441,0.75-0.617,1.146C133.534,18.422,133.401,18.818,133.313,19.215  L133.313,19.215z"/>
<path fill-rule="evenodd" clip-rule="evenodd" fill="#FFFFFF" d="M105.196,18.156c-0.044-0.66,0.045-1.277,0.133-1.938  c0.132-0.618,0.309-1.234,0.528-1.852c0.264-0.573,0.573-1.146,0.926-1.675c0.352-0.572,0.749-1.058,1.233-1.542  c0.44-0.485,0.926-0.881,1.455-1.234c0.485-0.353,1.013-0.661,1.586-0.882c0.573-0.265,1.146-0.441,1.718-0.572  c0.617-0.132,1.235-0.176,1.896-0.176c0.661-0.044,1.278,0,1.895,0.132c0.618,0.088,1.234,0.264,1.808,0.486  c0.573,0.22,1.102,0.484,1.63,0.836c0.528,0.354,1.014,0.75,1.499,1.19c0.484,0.44,0.926,0.97,1.278,1.454  c0.352,0.529,0.661,1.102,0.925,1.675c0.221,0.573,0.441,1.189,0.574,1.807c0.131,0.662,0.176,1.322,0.219,1.983  c0,0.661-0.043,1.278-0.131,1.895c-0.088,0.618-0.221,1.234-0.441,1.807c-0.178,0.572-0.441,1.102-0.75,1.631  c-0.264,0.529-0.617,1.014-1.014,1.454c-0.483,0.528-1.012,1.014-1.543,1.41c-0.527,0.396-1.1,0.75-1.718,1.057  c-0.573,0.265-1.233,0.486-1.895,0.618c-0.661,0.176-1.323,0.221-2.027,0.264c-0.706,0-1.366-0.043-2.027-0.176  c-0.661-0.132-1.322-0.353-1.939-0.618c-0.573-0.22-1.146-0.572-1.718-0.969c-0.529-0.397-1.059-0.838-1.543-1.367  c-0.396-0.441-0.793-0.926-1.102-1.454c-0.309-0.486-0.573-1.015-0.794-1.587c-0.22-0.573-0.396-1.146-0.484-1.763  C105.241,19.436,105.196,18.818,105.196,18.156L105.196,18.156z"/>
<path fill-rule="evenodd" clip-rule="evenodd" d="M108.634,18.156c0,0.442,0.045,0.883,0.133,1.323s0.22,0.837,0.352,1.234  c0.177,0.396,0.353,0.793,0.574,1.101c0.22,0.353,0.484,0.661,0.792,0.97c0.266,0.308,0.618,0.573,0.97,0.794  c0.354,0.22,0.706,0.44,1.103,0.617c0.396,0.132,0.793,0.264,1.19,0.353c0.396,0.088,0.792,0.132,1.189,0.088  c0.881,0,1.718-0.177,2.467-0.485c0.706-0.352,1.367-0.836,1.983-1.498c0.573-0.617,1.014-1.366,1.323-2.159  c0.264-0.793,0.441-1.675,0.396-2.601c0-0.44-0.043-0.837-0.133-1.19c-0.088-0.396-0.176-0.749-0.354-1.102  c-0.131-0.353-0.307-0.705-0.527-1.058c-0.221-0.308-0.484-0.662-0.75-0.926c-0.353-0.352-0.706-0.662-1.058-0.925  c-0.352-0.264-0.706-0.44-1.102-0.617c-0.352-0.176-0.75-0.264-1.19-0.353c-0.396-0.088-0.837-0.132-1.278-0.132  c-0.441,0.044-0.837,0.088-1.189,0.176c-0.397,0.045-0.794,0.177-1.146,0.354c-0.352,0.132-0.705,0.352-1.014,0.572  c-0.352,0.221-0.616,0.485-0.925,0.793c-0.265,0.308-0.529,0.662-0.749,1.014c-0.265,0.352-0.441,0.749-0.618,1.146  c-0.132,0.397-0.264,0.838-0.353,1.234C108.679,17.275,108.634,17.716,108.634,18.156L108.634,18.156z"/>
<polygon fill-rule="evenodd" clip-rule="evenodd" fill="#FFFFFF" points="91.667,31.334 91.579,31.026 87.48,13.222 87.392,12.869   87.745,12.781 96.515,10.753 96.823,10.709 96.911,11.018 97.44,13.398 97.528,13.75 97.22,13.794 91.314,15.16 92.373,19.832   98.277,18.466 98.63,18.378 98.674,18.73 99.203,21.065 99.291,21.375 98.982,21.463 93.077,22.829 94.796,30.277 94.884,30.629   94.532,30.674 91.976,31.29 91.667,31.334 "/>
<polygon fill-rule="evenodd" clip-rule="evenodd" fill="#FFFFFF" points="68.53,42.22 68.222,42.396 65.93,43.674 65.621,43.851   65.445,43.542 56.586,27.544 56.411,27.235 56.719,27.059 59.099,25.738 59.275,25.649 59.451,25.738 72.937,32.965 66.723,21.947   66.547,21.639 66.855,21.463 69.147,20.185 69.411,20.052 69.588,20.316 78.445,36.314 78.622,36.622 78.313,36.799 76.11,38.034   75.934,38.122 75.758,38.034 61.919,30.585 68.354,41.911 68.53,42.22 "/>
<polygon fill-rule="evenodd" clip-rule="evenodd" fill="#FFFFFF" points="51.034,49.888 53.062,55 53.15,55.221 52.974,55.354   50.901,57.292 50.549,57.601 50.373,57.159 43.101,38.914 43.013,38.694 43.189,38.518 45.084,36.756 45.26,36.622 45.481,36.711   63.153,45.217 63.638,45.437 63.242,45.789 61.126,47.772 60.95,47.904 60.729,47.816 55.838,45.393 51.034,49.888 "/>
<polygon fill-rule="evenodd" clip-rule="evenodd" points="52.753,43.851 47.376,41.162 49.668,46.716 52.753,43.851 "/>
<polygon fill-rule="evenodd" clip-rule="evenodd" fill="#FFFFFF" points="49.183,59.54 48.963,59.849 47.288,61.875 47.068,62.14   46.803,61.919 32.568,50.417 32.304,50.196 32.524,49.932 34.199,47.904 34.419,47.64 34.684,47.861 48.875,59.363 49.183,59.54 "/>
<polygon fill-rule="evenodd" clip-rule="evenodd" fill="#FFFFFF" points="35.08,80.958 33.45,83.778 17.805,73.774 17.496,73.598   17.673,73.29 19.655,69.896 19.744,69.676 20.008,69.72 33.979,72.056 24.988,61.126 24.812,60.906 24.944,60.729 26.884,57.336   27.06,57.071 27.368,57.248 43.939,65.798 42.352,68.529 29.616,62.051 39.312,73.774 38.121,75.802 23.138,73.29 35.08,80.958 "/>
<polygon fill-rule="evenodd" clip-rule="evenodd" fill="#FFFFFF" points="32.745,88.141 32.657,88.45 29.88,97.528 29.792,97.881   29.439,97.749 11.987,92.417 11.635,92.328 11.723,91.975 14.499,82.897 14.632,82.588 14.94,82.676 17.276,83.382 17.628,83.47   17.496,83.822 15.601,90.036 20.185,91.447 22.08,85.232 22.168,84.88 22.476,84.968 24.768,85.673 25.121,85.805 24.988,86.114   23.094,92.328 27.676,93.738 29.572,87.524 29.704,87.172 30.013,87.305 32.437,88.009 32.745,88.141 "/>
<polygon fill-rule="evenodd" clip-rule="evenodd" fill="#FFFFFF" points="27.809,112.468 27.764,112.82 27.588,115.421   27.544,115.773 27.191,115.773 8.991,114.364 8.638,114.319 8.638,113.967 8.859,111.367 8.859,111.014 9.211,111.014   16.615,111.587 17.144,104.845 9.74,104.271 9.387,104.271 9.432,103.919 9.607,101.274 9.652,100.922 10.004,100.966   28.205,102.332 28.558,102.376 28.558,102.729 28.338,105.373 28.338,105.725 27.984,105.682 20.405,105.108 19.92,111.852   27.456,112.424 27.809,112.468 "/>
<path fill-rule="evenodd" clip-rule="evenodd" fill="#FFFFFF" d="M19.965,139.924c-0.662,0.088-1.323,0.088-1.939,0.044  c-0.618-0.044-1.278-0.132-1.895-0.352c-0.617-0.177-1.234-0.397-1.808-0.706c-0.572-0.308-1.102-0.66-1.63-1.058  c-0.528-0.396-0.97-0.837-1.367-1.321c-0.396-0.484-0.749-0.97-1.057-1.455c-0.309-0.528-0.528-1.102-0.749-1.674  c-0.177-0.572-0.309-1.191-0.397-1.852c-0.088-0.66-0.088-1.279-0.044-1.896s0.132-1.233,0.308-1.851  c0.133-0.572,0.354-1.146,0.662-1.719c0.264-0.529,0.617-1.057,1.014-1.586s0.837-1.014,1.322-1.454  c0.485-0.44,1.014-0.794,1.543-1.103c0.572-0.309,1.146-0.572,1.762-0.75c0.618-0.22,1.279-0.352,1.939-0.44  c0.662-0.088,1.278-0.088,1.896-0.088c0.661,0.044,1.234,0.132,1.851,0.264c0.573,0.132,1.146,0.309,1.674,0.574  c0.573,0.264,1.103,0.572,1.586,0.924c0.574,0.396,1.102,0.882,1.543,1.367c0.484,0.484,0.881,1.014,1.233,1.586  c0.352,0.572,0.617,1.191,0.838,1.808c0.22,0.661,0.352,1.321,0.44,2.027c0.088,0.704,0.088,1.366,0.044,2.026  c-0.044,0.662-0.176,1.322-0.396,1.939c-0.177,0.662-0.44,1.278-0.793,1.852c-0.353,0.528-0.75,1.102-1.234,1.63  c-0.353,0.44-0.793,0.882-1.278,1.233c-0.485,0.354-0.97,0.706-1.499,0.97c-0.529,0.265-1.102,0.485-1.718,0.661  C21.243,139.704,20.625,139.836,19.965,139.924L19.965,139.924z"/>
<path fill-rule="evenodd" clip-rule="evenodd" fill="#FFFFFF" d="M15.161,154.645c-0.308-0.971-0.485-1.852-0.529-2.645  c0-0.838,0.088-1.586,0.353-2.248c0.308-0.661,0.704-1.234,1.278-1.675c0.53-0.485,1.19-0.838,2.027-1.102  c0.396-0.132,0.75-0.22,1.146-0.22c0.353-0.045,0.706,0,1.102,0.088c0.353,0.044,0.706,0.176,1.014,0.352  c0.132,0.044,0.265,0.133,0.397,0.221c0.044-0.265,0.088-0.484,0.177-0.75c0.132-0.439,0.352-0.88,0.66-1.277  c0.31-0.396,0.706-0.75,1.102-1.014c0.441-0.265,0.882-0.528,1.412-0.704c0.439-0.132,0.881-0.222,1.321-0.265  c0.397-0.045,0.837-0.045,1.279-0.045v0.045c0.44,0,0.836,0.088,1.233,0.221c0.353,0.132,0.749,0.264,1.102,0.483  c0.309,0.222,0.617,0.44,0.882,0.706c0.309,0.264,0.529,0.572,0.749,0.881c0.221,0.309,0.44,0.705,0.617,1.19  c0.22,0.44,0.44,0.968,0.616,1.587l1.322,4.01l0.089,0.352l-0.309,0.088l-17.407,5.686l-0.31,0.09l-0.132-0.354L15.161,154.645  L15.161,154.645z"/>
<path fill-rule="evenodd" clip-rule="evenodd" d="M30.498,150.678l-0.53-1.631c-0.22-0.572-0.396-1.014-0.616-1.41  c-0.221-0.354-0.485-0.617-0.75-0.793c-0.264-0.178-0.529-0.266-0.881-0.266c-0.309-0.043-0.705,0-1.102,0.133  c-0.44,0.177-0.837,0.353-1.102,0.572c-0.308,0.266-0.529,0.53-0.662,0.838c-0.132,0.309-0.176,0.705-0.176,1.102  c0,0.441,0.088,0.926,0.265,1.455l0.529,1.63L30.498,150.678L30.498,150.678z"/>
<path fill-rule="evenodd" clip-rule="evenodd" d="M22.74,153.189l-0.176-0.484c-0.176-0.617-0.396-1.146-0.661-1.543  c-0.221-0.396-0.441-0.705-0.705-0.882c-0.22-0.176-0.484-0.264-0.793-0.264c-0.353-0.044-0.706,0-1.102,0.132  c-0.353,0.132-0.662,0.266-0.882,0.484c-0.22,0.176-0.352,0.397-0.44,0.617c-0.089,0.309-0.133,0.618-0.089,0.97  c0,0.397,0.089,0.838,0.265,1.323l0.308,1.014L22.74,153.189L22.74,153.189z"/>
<polygon fill-rule="evenodd" clip-rule="evenodd" fill="#FFFFFF" points="165.177,218.943 164.868,219.119 162.665,220.309   162.355,220.441 162.18,220.133 154.026,204.752 153.851,204.486 154.159,204.311 156.45,203.078 156.626,202.99 156.759,203.078   169.451,210.129 163.767,199.596 163.591,199.287 163.897,199.111 166.103,197.965 166.366,197.789 166.542,198.098   174.739,213.479 174.872,213.787 174.563,213.963 172.448,215.064 172.271,215.152 172.095,215.064 159.095,207.793   164.999,218.635 165.177,218.943 "/>
<polygon fill-rule="evenodd" clip-rule="evenodd" fill="#FFFFFF" points="151.163,224.231 150.81,224.319 148.386,225.025   148.034,225.113 147.946,224.76 143.142,208.057 143.054,207.705 143.406,207.617 145.829,206.911 146.138,206.823 146.271,207.176   151.029,223.879 151.163,224.231 "/>
<polygon fill-rule="evenodd" clip-rule="evenodd" fill="#FFFFFF" points="137.853,227.448 137.5,227.536 129.347,228.684   129.038,228.727 128.995,228.374 126.571,211.142 126.483,210.79 126.836,210.746 129.347,210.393 129.7,210.35 129.743,210.702   131.771,225.201 137.06,224.451 137.412,224.407 137.456,224.76 137.81,227.141 137.853,227.448 "/>
<path fill-rule="evenodd" clip-rule="evenodd" fill="#FFFFFF" d="M111.896,210.966c0.969,0.044,1.806,0.176,2.511,0.397  c0.75,0.265,1.41,0.616,1.895,1.057c0.53,0.485,0.882,1.014,1.146,1.675c0.221,0.662,0.309,1.366,0.309,2.203  c-0.044,0.397-0.088,0.75-0.177,1.103c-0.088,0.309-0.264,0.661-0.44,0.925c-0.176,0.31-0.396,0.573-0.661,0.838  c-0.088,0.088-0.22,0.176-0.308,0.265c0.22,0.088,0.396,0.221,0.573,0.396c0.396,0.265,0.705,0.617,0.926,1.014  c0.265,0.396,0.44,0.838,0.573,1.322c0.132,0.441,0.176,0.97,0.132,1.498c0,0.396-0.044,0.837-0.132,1.234  c-0.088,0.396-0.264,0.793-0.397,1.145c-0.221,0.397-0.396,0.75-0.617,1.059c-0.264,0.309-0.528,0.572-0.793,0.793h-0.044  c-0.264,0.264-0.573,0.441-0.924,0.617c-0.309,0.132-0.662,0.266-1.015,0.354c-0.352,0.088-0.793,0.176-1.278,0.176  c-0.485,0.043-1.013,0.043-1.63,0.043l-4.011-0.131l-0.353-0.045v-0.353l0.617-17.362v-0.354h0.353L111.896,210.966L111.896,210.966  z"/>
<path fill-rule="evenodd" clip-rule="evenodd" d="M110.441,225.994l1.63,0.043c0.573,0,1.058,0,1.455-0.088s0.705-0.219,0.925-0.396  c0.265-0.176,0.441-0.396,0.529-0.66c0.132-0.309,0.22-0.661,0.22-1.059c0.044-0.44,0-0.836-0.132-1.189  c-0.132-0.309-0.309-0.616-0.53-0.838c-0.22-0.219-0.528-0.396-0.925-0.528s-0.838-0.22-1.366-0.22l-1.631-0.045L110.441,225.994  L110.441,225.994z"/>
<path fill-rule="evenodd" clip-rule="evenodd" d="M110.75,218.237h0.44c0.618,0.044,1.19,0,1.63-0.088  c0.397-0.088,0.75-0.176,0.97-0.353c0.221-0.133,0.397-0.352,0.529-0.617c0.132-0.264,0.22-0.617,0.22-1.014  c0-0.354-0.043-0.66-0.132-0.924c-0.088-0.266-0.22-0.441-0.44-0.619c-0.22-0.176-0.484-0.307-0.793-0.395  c-0.353-0.09-0.793-0.178-1.277-0.178l-1.014-0.044L110.75,218.237L110.75,218.237z"/>
<path fill-rule="evenodd" clip-rule="evenodd" fill="#FFFFFF" d="M89.288,206.823l0.352,0.132l2.425,0.662l0.308,0.132l-0.088,0.308  l-3.041,10.666c-0.221,0.705-0.353,1.366-0.397,1.895c0,0.485,0.044,0.926,0.132,1.234c0.133,0.265,0.353,0.528,0.617,0.75  c0.309,0.264,0.706,0.439,1.235,0.572c0.484,0.132,0.881,0.176,1.234,0.132c0.352,0,0.66-0.132,0.881-0.353  c0.265-0.176,0.529-0.529,0.749-0.971c0.264-0.484,0.484-1.057,0.705-1.806l3.041-10.622l0.088-0.352l0.353,0.088l2.424,0.705  l0.309,0.088l-0.088,0.354l-3.041,10.621c-0.176,0.572-0.309,1.058-0.485,1.498c-0.176,0.441-0.308,0.793-0.484,1.102  c-0.132,0.309-0.309,0.573-0.53,0.837c-0.176,0.265-0.396,0.485-0.616,0.662c-0.396,0.353-0.793,0.616-1.19,0.792  c-0.44,0.222-0.881,0.397-1.321,0.485c-0.441,0.088-0.882,0.088-1.367,0.088c-0.485-0.044-0.969-0.132-1.499-0.264  c-0.573-0.177-1.058-0.397-1.498-0.616c-0.44-0.222-0.838-0.485-1.19-0.795c-0.353-0.307-0.618-0.66-0.882-1.057  c-0.264-0.397-0.485-0.838-0.617-1.323l-0.044-0.044c-0.089-0.264-0.133-0.572-0.177-0.881c-0.044-0.265-0.044-0.572-0.044-0.881  c0.044-0.31,0.088-0.707,0.177-1.189c0.088-0.486,0.265-1.06,0.44-1.676l3.041-10.621L89.288,206.823L89.288,206.823z"/>
<path fill-rule="evenodd" clip-rule="evenodd" fill="#FFFFFF" d="M65.225,216.122l-4.319-2.292l-0.308-0.176l0.176-0.309  l8.153-15.381l0.176-0.307l0.309,0.174l4.937,2.646c1.189,0.616,2.202,1.366,2.952,2.291c0.793,0.882,1.322,1.896,1.675,3.041  c0.352,1.102,0.44,2.292,0.308,3.438c-0.176,1.189-0.528,2.334-1.19,3.525c-0.352,0.705-0.75,1.277-1.234,1.85  c-0.441,0.529-0.97,1.014-1.543,1.411c-0.616,0.44-1.19,0.792-1.851,1.014c-0.661,0.264-1.322,0.44-2.027,0.528  c-0.529,0.088-1.013,0.088-1.455,0.088c-0.485,0-0.924-0.088-1.41-0.176c-0.441-0.131-0.969-0.265-1.542-0.484  C66.503,216.738,65.886,216.475,65.225,216.122L65.225,216.122z"/>
<path fill-rule="evenodd" clip-rule="evenodd" d="M64.784,212.465l2.424,1.277c0.793,0.44,1.586,0.705,2.38,0.793  c0.749,0.134,1.498,0.045,2.204-0.176c0.705-0.221,1.366-0.572,1.939-1.057c0.572-0.529,1.058-1.191,1.498-2.027  c0.441-0.838,0.75-1.676,0.838-2.469c0.088-0.75,0-1.498-0.22-2.247c-0.265-0.75-0.661-1.411-1.233-1.983  c-0.574-0.617-1.278-1.189-2.204-1.676l-1.982-1.014L64.784,212.465L64.784,212.465z"/>
<path fill-rule="evenodd" clip-rule="evenodd" d="M19.567,136.487c0.484-0.044,0.881-0.134,1.322-0.265  c0.396-0.133,0.793-0.309,1.19-0.485c0.396-0.22,0.749-0.397,1.058-0.661c0.308-0.265,0.617-0.528,0.881-0.838  c0.265-0.352,0.485-0.704,0.661-1.057c0.22-0.352,0.396-0.749,0.484-1.146c0.133-0.44,0.221-0.838,0.265-1.232  c0-0.397,0-0.795-0.044-1.191c-0.088-0.926-0.353-1.719-0.75-2.423c-0.396-0.706-0.969-1.278-1.674-1.808s-1.455-0.881-2.292-1.102  c-0.837-0.176-1.719-0.221-2.644-0.132c-0.397,0.044-0.794,0.132-1.19,0.264c-0.353,0.132-0.705,0.265-1.058,0.44  c-0.309,0.178-0.661,0.397-0.97,0.661c-0.309,0.265-0.573,0.53-0.881,0.838h0.044c-0.353,0.397-0.618,0.792-0.837,1.146  c-0.176,0.396-0.353,0.794-0.485,1.146c-0.132,0.396-0.176,0.793-0.22,1.234c-0.045,0.44-0.045,0.88,0.044,1.32  c0.044,0.397,0.132,0.795,0.22,1.147c0.133,0.396,0.309,0.749,0.485,1.102c0.22,0.353,0.441,0.661,0.706,0.97  c0.264,0.264,0.528,0.529,0.882,0.793c0.352,0.264,0.704,0.44,1.101,0.616c0.353,0.222,0.75,0.353,1.19,0.485  c0.396,0.089,0.837,0.177,1.278,0.221C18.73,136.531,19.171,136.531,19.567,136.487L19.567,136.487z"/>
<path fill-rule="evenodd" clip-rule="evenodd" d="M117.801,35.962c6.082,0,11.636,2.512,15.645,6.522  c4.055,4.01,6.522,9.563,6.522,15.688c0,6.126-2.468,11.68-6.522,15.689c-4.009,4.011-9.563,6.522-15.645,6.522  s-11.635-2.512-15.689-6.522c-4.01-4.01-6.522-9.563-6.522-15.689c0-6.125,2.513-11.678,6.522-15.688  C106.166,38.474,111.719,35.962,117.801,35.962L117.801,35.962z"/>
<polygon fill-rule="evenodd" clip-rule="evenodd" fill="#FFFFFF" points="126.174,62.757 122.429,69.72 125.16,73.598   131.771,69.103 131.771,62.757 126.174,62.757 "/>
<polygon fill-rule="evenodd" clip-rule="evenodd" fill="#FFFFFF" points="109.384,62.757 103.787,62.757 103.787,69.103   110.441,73.598 113.173,69.72 109.384,62.757 "/>
<polygon fill-rule="evenodd" clip-rule="evenodd" fill="#FFFFFF" points="114.363,54.251 121.282,54.251 123.397,47.332   117.801,43.277 112.204,47.332 114.363,54.251 "/>
<polygon fill-rule="evenodd" clip-rule="evenodd" fill="#FFFFFF" points="121.37,55.618 114.275,55.618 110.661,62.14   114.363,68.971 121.282,68.971 124.94,62.14 121.37,55.618 "/>
<polygon fill-rule="evenodd" clip-rule="evenodd" fill="#FFFFFF" points="124.72,47.772 122.517,54.868 126.086,61.391   132.124,61.347 136.223,55.133 131.374,47.772 124.72,47.772 "/>
<path fill-rule="evenodd" clip-rule="evenodd" fill="#FFFFFF" d="M132.256,43.234c-3.614-3.482-8.461-5.686-13.75-5.862v4.716  l5.905,4.275h6.919L132.256,43.234L132.256,43.234z"/>
<path fill-rule="evenodd" clip-rule="evenodd" fill="#FFFFFF" d="M138.25,54.383c-0.706-3.79-2.425-7.228-4.893-10.003l-0.792,2.688  l4.847,7.315H138.25L138.25,54.383z"/>
<path fill-rule="evenodd" clip-rule="evenodd" fill="#FFFFFF" d="M135.165,69.588c2.159-3.306,3.438-7.228,3.438-11.415  c0-0.793-0.045-1.586-0.133-2.379h-1.014l-4.274,6.479v6.654L135.165,69.588L135.165,69.588z"/>
<path fill-rule="evenodd" clip-rule="evenodd" fill="#FFFFFF" d="M123.706,78.138c3.35-1.014,6.347-2.821,8.771-5.244  c0.658-0.662,1.277-1.411,1.85-2.16l-1.674-0.529l-7.229,4.848L123.706,78.138L123.706,78.138z"/>
<path fill-rule="evenodd" clip-rule="evenodd" fill="#FFFFFF" d="M113.702,78.578c1.322,0.265,2.732,0.396,4.099,0.396  c1.411,0,2.776-0.132,4.099-0.396l2.248-4.011l-2.908-4.187h-6.832l-2.953,4.143L113.702,78.578L113.702,78.578z"/>
<path fill-rule="evenodd" clip-rule="evenodd" fill="#FFFFFF" d="M101.229,70.733c0.574,0.749,1.191,1.499,1.896,2.16  c2.38,2.423,5.421,4.23,8.771,5.244l-1.72-3.085l-7.228-4.848L101.229,70.733L101.229,70.733z"/>
<path fill-rule="evenodd" clip-rule="evenodd" fill="#FFFFFF" d="M97.132,55.793c-0.089,0.793-0.133,1.586-0.133,2.379  c0,4.188,1.234,8.109,3.395,11.415l2.027-0.661v-6.654l-4.275-6.479H97.132L97.132,55.793z"/>
<path fill-rule="evenodd" clip-rule="evenodd" fill="#FFFFFF" d="M102.244,44.379c-2.468,2.776-4.187,6.214-4.893,10.003h0.838  l4.848-7.315L102.244,44.379L102.244,44.379z"/>
<path fill-rule="evenodd" clip-rule="evenodd" fill="#FFFFFF" d="M117.14,37.372c-5.332,0.176-10.18,2.38-13.794,5.862l0.925,3.129  h6.919l5.95-4.275V37.372L117.14,37.372z"/>
<polygon fill-rule="evenodd" clip-rule="evenodd" fill="#FFFFFF" points="113.129,54.868 110.882,47.772 104.227,47.772   99.38,55.133 103.479,61.347 109.516,61.391 113.129,54.868 "/>
<path fill-rule="evenodd" clip-rule="evenodd" fill="#E2001A" d="M80.605,91.535c-0.353,1.674-0.265,3.701,0.044,3.922  c0.749-1.983,1.63-4.231,2.732-5.289c0.396-0.396,0.353,4.584,0.705,5.333c0.572-1.366,1.719-3.084,2.424-3.438  c0.265,1.939,1.146,4.672,1.146,5.421c0,1.807-0.528,2.644-5.156,2.424c-3.922-0.177-6.61-1.366-4.715-5.464  C78.313,93.298,79.283,92.284,80.605,91.535L80.605,91.535z"/>
<polygon fill-rule="evenodd" clip-rule="evenodd" fill="#FFFFFF" points="76.728,101.45 78.666,101.45 78.666,104.007   81.795,104.007 81.795,101.45 83.734,101.45 83.734,104.007 86.863,104.007 86.863,101.45 88.803,101.45 88.803,105.021   86.026,108.943 79.503,108.943 76.728,105.021 76.728,101.45 "/>
<path fill-rule="evenodd" clip-rule="evenodd" fill="#FFFFFF" d="M78.666,109.691h8.197l0.309,16.659  c-0.925,0.528-2.732,1.014-4.407,1.014s-3.481-0.485-4.407-1.014L78.666,109.691L78.666,109.691z"/>
<polygon fill-rule="evenodd" clip-rule="evenodd" points="81.928,114.54 83.646,114.54 83.646,117.889 81.928,117.889   81.928,114.54 "/>
<path fill-rule="evenodd" clip-rule="evenodd" fill="#FFFFFF" d="M87.7,127.408c1.322,0.529,2.16,1.234,2.16,2.027  c0,1.543-3.174,2.775-7.096,2.775c-3.878,0-7.096-1.232-7.096-2.775c0-0.793,0.838-1.498,2.16-2.027  c1.19,0.748,2.952,1.234,4.936,1.234S86.555,128.156,87.7,127.408L87.7,127.408z"/>
<path fill-rule="evenodd" clip-rule="evenodd" fill="#E2001A" d="M102.288,91.535c-0.353,1.674-0.221,3.701,0.045,3.922  c0.748-1.983,1.63-4.231,2.731-5.289c0.396-0.396,0.353,4.584,0.705,5.333c0.573-1.366,1.719-3.084,2.424-3.438  c0.264,1.939,1.146,4.672,1.146,5.421c0,1.807-0.528,2.6-5.156,2.424c-3.878-0.177-6.61-1.366-4.715-5.464  C99.996,93.298,100.966,92.284,102.288,91.535L102.288,91.535z"/>
<polygon fill-rule="evenodd" clip-rule="evenodd" fill="#FFFFFF" points="98.41,101.45 100.394,101.45 100.394,104.007   103.479,104.007 103.479,101.45 105.417,101.45 105.417,104.007 108.546,104.007 108.546,101.45 110.484,101.45 110.484,105.021   107.753,108.943 101.186,108.943 98.41,105.021 98.41,101.45 "/>
<path fill-rule="evenodd" clip-rule="evenodd" fill="#FFFFFF" d="M100.394,109.691h8.152l0.309,16.659  c-0.925,0.528-2.688,1.014-4.407,1.014c-1.674,0-3.481-0.485-4.407-1.014L100.394,109.691L100.394,109.691z"/>
<polygon fill-rule="evenodd" clip-rule="evenodd" points="103.61,114.54 105.329,114.54 105.329,117.889 103.61,117.889   103.61,114.54 "/>
<path fill-rule="evenodd" clip-rule="evenodd" fill="#FFFFFF" d="M109.384,127.408c1.322,0.529,2.159,1.234,2.159,2.027  c0,1.543-3.174,2.775-7.096,2.775c-3.878,0-7.051-1.232-7.051-2.775c0-0.793,0.793-1.498,2.115-2.027  c1.19,0.748,2.953,1.234,4.936,1.234C106.475,128.643,108.237,128.156,109.384,127.408L109.384,127.408z"/>
<path fill-rule="evenodd" clip-rule="evenodd" fill="#FFFFFF" stroke="#000000" stroke-width="0.1322" stroke-miterlimit="2.6131" d="  M88.67,112.82h9.74l-0.221,13.223c-0.661,0.264-1.19,0.615-1.586,1.012c-0.706,0.662-1.586,2.425-1.939,3.527h-2.291  c-0.353-1.103-1.19-2.865-1.896-3.527c-0.396-0.396-0.97-0.748-1.586-1.012L88.67,112.82L88.67,112.82z"/>
<polygon fill-rule="evenodd" clip-rule="evenodd" points="92.24,116.126 94.84,116.126 94.84,119.476 92.24,119.476 92.24,116.126   "/>
<path fill-rule="evenodd" clip-rule="evenodd" fill="#E2001A" d="M104.8,138.557c-0.353,1.633-0.22,3.66,0.044,3.924  c0.749-1.984,1.63-4.23,2.732-5.332c0.397-0.397,0.353,4.627,0.706,5.375c0.572-1.408,1.718-3.084,2.424-3.436  c0.264,1.939,1.146,4.671,1.146,5.375c0,1.809-0.529,2.645-5.156,2.469c-3.878-0.176-6.611-1.367-4.716-5.51  C102.509,140.32,103.479,139.264,104.8,138.557L104.8,138.557z"/>
<polygon fill-rule="evenodd" clip-rule="evenodd" fill="#FFFFFF" points="100.922,148.43 102.861,148.43 102.861,150.986   105.99,150.986 105.99,148.43 107.929,148.43 107.929,150.986 111.058,150.986 111.058,148.43 112.997,148.43 112.997,152.044   110.22,155.965 103.698,155.965 100.922,152.044 100.922,148.43 "/>
<path fill-rule="evenodd" clip-rule="evenodd" fill="#FFFFFF" d="M102.861,156.715h8.197l0.308,16.658  c-0.925,0.485-2.732,0.971-4.407,0.971c-1.675,0-3.481-0.485-4.407-0.971L102.861,156.715L102.861,156.715z"/>
<polygon fill-rule="evenodd" clip-rule="evenodd" points="106.122,161.563 107.841,161.563 107.841,164.912 106.122,164.912   106.122,161.563 "/>
<path fill-rule="evenodd" clip-rule="evenodd" fill="#FFFFFF" d="M111.896,174.432c1.321,0.484,2.159,1.19,2.159,1.982  c0,1.543-3.173,2.82-7.096,2.82c-3.878,0-7.096-1.277-7.096-2.82c0-0.792,0.838-1.498,2.16-1.982c1.19,0.75,2.953,1.234,4.936,1.234  S110.75,175.182,111.896,174.432L111.896,174.432z"/>
<path fill-rule="evenodd" clip-rule="evenodd" fill="#E2001A" d="M126.438,138.514c-0.309,1.676-0.221,3.703,0.045,3.967  c0.748-1.984,1.674-4.23,2.731-5.332c0.397-0.397,0.353,4.627,0.704,5.375c0.574-1.408,1.721-3.084,2.425-3.436  c0.265,1.939,1.19,4.671,1.146,5.375c0,1.809-0.529,2.645-5.154,2.469c-3.879-0.176-6.567-1.367-4.717-5.51  C124.147,140.32,125.116,139.264,126.438,138.514L126.438,138.514z"/>
<polygon fill-rule="evenodd" clip-rule="evenodd" fill="#FFFFFF" points="122.647,148.43 124.544,148.43 124.544,150.986   127.628,150.986 127.628,148.43 129.612,148.43 129.612,150.986 132.696,150.986 132.696,148.43 134.681,148.43 134.681,152   131.903,155.965 125.337,155.965 122.647,152 122.647,148.43 "/>
<path fill-rule="evenodd" clip-rule="evenodd" fill="#FFFFFF" d="M124.544,156.715h8.152l0.309,16.658  c-0.925,0.485-2.688,0.971-4.363,0.971c-1.718,0-3.525-0.485-4.451-0.971L124.544,156.715L124.544,156.715z"/>
<polygon fill-rule="evenodd" clip-rule="evenodd" points="127.761,161.563 129.479,161.563 129.479,164.912 127.761,164.912   127.761,161.563 "/>
<path fill-rule="evenodd" clip-rule="evenodd" fill="#FFFFFF" d="M133.534,174.432c1.365,0.484,2.16,1.19,2.16,1.982  c0,1.543-3.174,2.82-7.053,2.82c-3.922,0-7.051-1.277-7.051-2.82c0-0.792,0.793-1.498,2.115-1.982  c1.146,0.75,2.908,1.234,4.936,1.234C130.626,175.666,132.388,175.182,133.534,174.432L133.534,174.432z"/>
<path fill-rule="evenodd" clip-rule="evenodd" fill="#FFFFFF" stroke="#000000" stroke-width="0.1322" stroke-miterlimit="2.6131" d="  M112.865,159.801h9.739l-0.221,13.221c-0.616,0.309-1.189,0.661-1.586,1.059c-0.705,0.615-1.586,2.422-1.896,3.48h-2.336  c-0.352-1.059-1.189-2.865-1.895-3.48c-0.397-0.397-0.97-0.75-1.587-1.059L112.865,159.801L112.865,159.801z"/>
<polygon fill-rule="evenodd" clip-rule="evenodd" points="116.435,163.148 119.035,163.148 119.035,166.499 116.435,166.499   116.435,163.148 "/>
<path fill-rule="evenodd" clip-rule="evenodd" fill="#E2001A" d="M128.95,91.535c-0.352,1.674-0.221,3.701,0.045,3.922  c0.748-1.983,1.631-4.231,2.732-5.289c0.396-0.396,0.353,4.584,0.704,5.333c0.573-1.366,1.72-3.084,2.425-3.438  c0.264,1.939,1.145,4.672,1.145,5.421c0,1.807-0.528,2.644-5.156,2.424c-3.877-0.177-6.609-1.366-4.715-5.464  C126.659,93.298,127.628,92.284,128.95,91.535L128.95,91.535z"/>
<polygon fill-rule="evenodd" clip-rule="evenodd" fill="#FFFFFF" points="125.072,101.45 127.056,101.45 127.056,104.007   130.141,104.007 130.141,101.45 132.08,101.45 132.08,104.007 135.209,104.007 135.209,101.45 137.147,101.45 137.147,105.021   134.415,108.943 127.85,108.943 125.072,105.021 125.072,101.45 "/>
<path fill-rule="evenodd" clip-rule="evenodd" fill="#FFFFFF" d="M127.056,109.691h8.153l0.308,16.659  c-0.926,0.528-2.688,1.014-4.406,1.014c-1.674,0-3.482-0.485-4.408-1.014L127.056,109.691L127.056,109.691z"/>
<polygon fill-rule="evenodd" clip-rule="evenodd" points="130.272,114.54 131.991,114.54 131.991,117.889 130.272,117.889   130.272,114.54 "/>
<path fill-rule="evenodd" clip-rule="evenodd" fill="#FFFFFF" d="M136.046,127.408c1.322,0.529,2.158,1.234,2.158,2.027  c0,1.543-3.172,2.775-7.094,2.775c-3.879,0-7.052-1.232-7.052-2.775c0-0.793,0.794-1.498,2.115-2.027  c1.189,0.748,2.953,1.234,4.937,1.234C133.136,128.643,134.899,128.156,136.046,127.408L136.046,127.408z"/>
<path fill-rule="evenodd" clip-rule="evenodd" fill="#E2001A" d="M150.677,91.535c-0.352,1.674-0.264,3.701,0,3.922  c0.75-1.983,1.676-4.231,2.732-5.289c0.397-0.396,0.354,4.584,0.707,5.333c0.616-1.366,1.718-3.084,2.422-3.438  c0.264,1.939,1.189,4.672,1.146,5.421c0,1.807-0.529,2.6-5.156,2.424c-3.878-0.177-6.609-1.366-4.716-5.464  C148.341,93.298,149.312,92.284,150.677,91.535L150.677,91.535z"/>
<polygon fill-rule="evenodd" clip-rule="evenodd" fill="#FFFFFF" points="146.799,101.45 148.738,101.45 148.738,104.007   151.867,104.007 151.867,101.45 153.807,101.45 153.807,104.007 156.892,104.007 156.892,101.45 158.875,101.45 158.875,105.021   156.098,108.943 149.53,108.943 146.799,105.021 146.799,101.45 "/>
<path fill-rule="evenodd" clip-rule="evenodd" fill="#FFFFFF" d="M148.738,109.691h8.153l0.309,16.659  c-0.926,0.528-2.689,1.014-4.363,1.014c-1.719,0-3.525-0.485-4.451-1.014L148.738,109.691L148.738,109.691z"/>
<polygon fill-rule="evenodd" clip-rule="evenodd" points="151.955,114.54 153.673,114.54 153.673,117.889 151.955,117.889   151.955,114.54 "/>
<path fill-rule="evenodd" clip-rule="evenodd" fill="#FFFFFF" d="M157.772,127.408c1.322,0.529,2.16,1.234,2.16,2.027  c0,1.543-3.217,2.775-7.096,2.775c-3.923,0-7.096-1.232-7.096-2.775c0-0.793,0.838-1.498,2.159-2.027  c1.146,0.748,2.909,1.234,4.937,1.234C154.82,128.643,156.583,128.156,157.772,127.408L157.772,127.408z"/>
<path fill-rule="evenodd" clip-rule="evenodd" fill="#FFFFFF" stroke="#000000" stroke-width="0.1322" stroke-miterlimit="2.6131" d="  M137.015,112.82h9.74l-0.22,13.223c-0.616,0.264-1.189,0.615-1.587,1.012c-0.705,0.662-1.542,2.425-1.895,3.527h-2.291  c-0.354-1.103-1.235-2.865-1.939-3.527c-0.397-0.396-0.926-0.748-1.587-1.012L137.015,112.82L137.015,112.82z"/>
<polygon fill-rule="evenodd" clip-rule="evenodd" points="140.585,116.126 143.185,116.126 143.185,119.476 140.585,119.476   140.585,116.126 "/>
</svg>