<?xml version="1.0" encoding="utf-8"?>
<!-- Generator: Adobe Illustrator 16.0.0, SVG Export Plug-In . SVG Version: 6.00 Build 0)  -->
<!DOCTYPE svg PUBLIC "-//W3C//DTD SVG 1.1//EN" "http://www.w3.org/Graphics/SVG/1.1/DTD/svg11.dtd">
<svg version="1.1" xmlns="http://www.w3.org/2000/svg" xmlns:xlink="http://www.w3.org/1999/xlink" x="0px" y="0px"
	 width="595.28px" height="841.891px" viewBox="0 0 595.28 841.891" enable-background="new 0 0 595.28 841.891"
	 xml:space="preserve">
<g id="cdr_x5F_object">
	<g>
		<path fill-rule="evenodd" clip-rule="evenodd" fill="#066634" d="M512.088,464.101c-0.407,1.269-0.822,2.537-1.245,3.803
			c-34.775,103.838-114.318,174.63-208.811,224.735l-3.383,1.793l-3.387-1.784c-94.464-49.789-174.204-119.912-208.904-223.695
			c-0.54-1.613-1.065-3.231-1.58-4.852H512.088z"/>
		<path fill-rule="evenodd" clip-rule="evenodd" fill="#EC222C" d="M92.01,188.814c64.4-25.479,131.654-40.722,201.088-41.295
			c73.894-0.609,143.144,14.102,211.658,41.323l3.425,1.36l0.916,3.57c6.321,24.623,11.504,49.566,15.126,74.733
			c6.25,43.431,7.818,87.593,2.2,130.884H70.698c-8.661-68.49,0.468-138.939,16.946-205.578l0.896-3.624L92.01,188.814z"/>
		<path fill-rule="evenodd" clip-rule="evenodd" d="M80.596,183.261c72.323-29.643,142.678-44.581,212.423-45.157
			c75.502-0.622,146.906,13.857,223.056,45.157c58.051,217.037,15.095,402.179-217.414,521.759
			C63.504,584.764,24.619,400.741,80.596,183.261z M76.617,387.183h443.929c6.437-63.941-2.521-129.506-18.464-191.611
			c-67.827-26.948-135.579-41.415-208.925-40.81c-68.674,0.566-134.9,15.631-198.482,40.787
			C79.33,257.606,70.383,323.252,76.617,387.183z M477.087,525.297c-50.476-30.974-121.961-44.881-178.426-44.588
			c-56.706,0.294-112.9,9.151-179.379,44.13c40.606,70.969,105.546,122.497,179.357,161.401
			C371.993,647.343,436.442,595.762,477.087,525.297z"/>
		<path fill-rule="evenodd" clip-rule="evenodd" d="M255.318,189.674c-2.596,10.844-3.573,22.674-2.836,32.436
			c-1.103,0.277-2.176,0.559-3.217,0.847c-3.214,13.42-4.364,27.458-3.48,39.551c-1.436,0.375-2.828,0.76-4.168,1.153
			c-4.075,17.016-5.384,35.504-4.25,50.863c-2.395,0.594-4.579,1.181-6.522,1.751c2.251,25.501,8.85,39.285,14.271,51.54
			c10.674-6.649,26.463-12.076,43.279-15.068c-7.148,6.433-17.325,19.711-19.643,23.391c4.236,5.056,12.688,11.484,17.791,15.085
			l44.897-0.482c1.854-0.02,14.896-17.702,14.722-18.465c-7.475-7.91-19.124-16.936-25.999-22.163
			c18.021,0.115,34.271,2.895,43.905,7.439c3.142-9.236,8.872-44.645,6.95-53.011c-2.465-0.368-4.864-0.684-7.211-0.953
			c-1.498-11.925-7.087-38.036-12.261-48.761c-1.707-0.168-3.44-0.318-5.199-0.449c-1.34-9.707-6.681-30.712-10.689-39.02
			c-0.88-0.063-1.768-0.122-2.661-0.174c-1.066-7.819-4.879-24.468-8.079-31.102c-11.678-1.149-25.337-0.957-38.174,0.196
			l-2.115-17.185l-32.554,7.525l32.636,2.301l0.711,7.482C273.981,185.492,263.275,187.34,255.318,189.674z M287.904,210.552
			l0.543,5.718c-12.784,1.229-24.939,3.159-34.837,5.562C262.822,215.414,274.961,211.97,287.904,210.552z M291.551,248.964
			l0.578,6.097c-16.27,1.422-31.749,3.823-44.16,6.892C260.398,253.808,277.206,250.547,291.551,248.964z M295.984,295.659
			l0.894,9.414c-22.398,1.991-43.49,5.602-57.809,9.036C249.369,305.475,276.059,298.53,295.984,295.659z M301.556,304.671
			l-1.18-9.589c17.846-2.06,45.608-1.037,62.583,8.411C341.22,301.094,323.988,302.746,301.556,304.671z M295.419,254.787
			l-0.756-6.141c17.549-1.58,39.389,1.16,49.688,5.591C328.933,253.204,311.854,253.492,295.419,254.787z M290.655,216.065
			l-0.704-5.719c14.436-1.337,29.635-0.112,41.134,4.735C318.275,214.442,304.168,214.859,290.655,216.065z"/>
		<path fill-rule="evenodd" clip-rule="evenodd" d="M138.077,225.303l-1.657,18.849l5.8,4.557l-13.464,90.521l-8.493,6.214
			l-2.9,34.8l9.736,9.735l50.128,1.243l14.914-10.357l3.107-36.871l-7.25-5.179l2.071-90.727l7.043-4.143l1.036-18.85
			c-1.689-0.436-3.38-0.84-5.076-1.21l-0.757,8.286c-1.884-0.398-3.773-0.753-5.666-1.065l0.761-8.329
			c-2.821-0.487-5.652-0.875-8.494-1.16l-0.767,8.399c-1.905-0.174-3.815-0.302-5.729-0.379l0.771-8.448
			c-1.482-0.073-2.967-0.117-4.456-0.13l1.137-19.47l28.276,1.55l-28.483-11.807l-1.938,29.723
			c-0.991,0.001-1.982,0.014-2.976,0.042l-0.779,8.525c-1.927,0.073-3.86,0.197-5.798,0.377l0.784-8.58
			c-2.878,0.239-5.767,0.598-8.669,1.085l-0.791,8.666c-1.953,0.347-3.911,0.753-5.875,1.217l0.797-8.726
			C142.313,224.138,140.198,224.685,138.077,225.303z M159.239,310.46l13.845,1.592l-0.696,21.306l-13.845-1.591L159.239,310.46z
			 M162.481,265.097l13.845,1.591l-0.696,21.306l-13.846-1.591L162.481,265.097z"/>
		<path fill-rule="evenodd" clip-rule="evenodd" d="M458.449,225.303l1.657,18.849l-5.801,4.557l13.464,90.521l8.493,6.214l2.9,34.8
			l-9.735,9.735l-50.128,1.243l-14.915-10.357l-3.106-36.871l7.25-5.179l-2.071-90.727l-7.043-4.143l-1.036-18.85
			c1.689-0.436,3.381-0.84,5.076-1.21l0.757,8.286c1.884-0.398,3.773-0.753,5.667-1.065l-0.762-8.329
			c2.821-0.487,5.652-0.875,8.495-1.16l0.767,8.399c1.904-0.174,3.814-0.302,5.729-0.379l-0.772-8.448
			c1.482-0.073,2.968-0.117,4.456-0.13l-1.137-19.47l-28.276,1.55l28.483-11.807l1.938,29.723c0.991,0.001,1.982,0.014,2.977,0.042
			l0.778,8.525c1.928,0.073,3.86,0.197,5.798,0.377l-0.783-8.58c2.878,0.239,5.767,0.598,8.669,1.085l0.791,8.666
			c1.953,0.347,3.911,0.753,5.875,1.217l-0.797-8.726C454.214,224.138,456.328,224.685,458.449,225.303z M437.287,310.46
			l-13.845,1.592l0.695,21.306l13.846-1.591L437.287,310.46z M434.045,265.097l-13.845,1.591l0.697,21.306l13.845-1.591
			L434.045,265.097z"/>
		<path fill-rule="evenodd" clip-rule="evenodd" fill="#FFFFFF" d="M138.628,452.179v8.773h-18.776c-3.567,0-6.3-0.172-8.198-0.505
			c-6.595-1.184-11.293-4.56-14.079-10.142c-1.845-3.732-2.76-8.354-2.76-13.861c0-6.617,1.413-12.015,4.227-16.179
			c2.019-2.982,4.737-5.163,8.144-6.531c3.391-1.368,7.806-2.058,13.217-2.058h18.225v8.774h-16.919
			c-5.128,0-8.884,1.256-11.279,3.758c-1.979,2.07-2.962,5.816-2.962,11.262c0,7.258,1.534,12.039,4.617,14.331
			c2.154,1.589,5.505,2.378,10.055,2.378H138.628z"/>
		<path fill-rule="evenodd" clip-rule="evenodd" fill="#FFFFFF" d="M168.727,411.356c5.383,0,10.121,0.838,14.2,2.526
			c4.805,1.996,8.17,5.36,10.095,10.067c1.521,3.709,2.289,8.059,2.289,13.072c0,5.005-0.929,9.342-2.8,13.025
			c-2.288,4.424-5.829,7.504-10.608,9.242c-3.58,1.294-7.699,1.946-12.343,1.946c-6.057,0-11.32-1.035-15.816-3.105
			c-3.769-1.737-6.636-4.448-8.628-8.132c-1.978-3.697-2.974-8.182-2.974-13.456c0-9.377,2.543-16.068,7.645-20.061
			C154.108,413.118,160.421,411.405,168.727,411.356z M168.807,419.661c-5.291,0-9.072,1.577-11.36,4.731
			c-1.791,2.452-2.679,6.396-2.679,11.829c0,5.779,1.13,10.018,3.392,12.741c2.234,2.674,5.801,4.004,10.688,4.004
			c4.723,0,8.224-1.354,10.472-4.054c2.247-2.711,3.365-6.9,3.365-12.58c0-5.151-0.903-9.082-2.719-11.805
			C177.839,421.312,174.11,419.686,168.807,419.661z"/>
		<path fill-rule="evenodd" clip-rule="evenodd" fill="#FFFFFF" d="M214.869,442.223v18.729h-11.442v-49.276h26.276
			c7.537,0,12.814,0.875,15.802,2.637c2.033,1.183,3.593,2.736,4.711,4.67c1.117,1.947,1.682,4.079,1.682,6.408
			c0,4.694-1.305,8.306-3.903,10.844c-1.602,1.54-3.729,2.711-6.393,3.535c2.113,0.642,3.701,1.356,4.778,2.134
			c1.076,0.763,2.046,1.896,2.92,3.388c0.647,1.158,1.117,2.28,1.401,3.376c0.269,1.097,0.498,2.711,0.686,4.854
			c0.31,3.537,0.754,6.014,1.306,7.431h-12.855c-0.403-1.158-0.795-3.487-1.184-6.998c-0.323-2.884-0.889-5.103-1.723-6.63
			c-0.822-1.528-2.087-2.724-3.77-3.585c-2.073-1.035-5.101-1.541-9.058-1.517H214.869z M214.869,433.45h16.085
			c2.692,0,4.59-0.358,5.721-1.085c1.709-1.109,2.57-3.007,2.57-5.705c0-3.007-1.292-4.929-3.862-5.779
			c-0.902-0.284-2.37-0.431-4.429-0.431h-16.085V433.45z"/>
		<path fill-rule="evenodd" clip-rule="evenodd" fill="#FFFFFF" d="M272.6,411.676v49.276h-11.442v-49.276H272.6z M272.991,436.012
			l20.635-24.336h15.062l-22.479,24.336l21.415,24.94h-15.102L272.991,436.012z"/>
		<path fill-rule="evenodd" clip-rule="evenodd" fill="#FFFFFF" d="M375.479,452.179v8.773h-18.777
			c-3.567,0-6.299-0.172-8.197-0.505c-6.595-1.184-11.294-4.56-14.08-10.142c-1.844-3.732-2.759-8.354-2.759-13.861
			c0-6.617,1.413-12.015,4.227-16.179c2.02-2.982,4.737-5.163,8.144-6.531c3.392-1.368,7.806-2.058,13.218-2.058h18.226v8.774
			h-16.92c-5.129,0-8.885,1.256-11.279,3.758c-1.979,2.07-2.961,5.816-2.961,11.262c0,7.258,1.533,12.039,4.615,14.331
			c2.154,1.589,5.507,2.378,10.056,2.378H375.479z"/>
		<rect x="382.8" y="411.676" fill-rule="evenodd" clip-rule="evenodd" fill="#FFFFFF" width="11.442" height="49.276"/>
		<polygon fill-rule="evenodd" clip-rule="evenodd" fill="#FFFFFF" points="418.081,420.45 400.919,420.45 400.919,411.676 
			447.345,411.676 447.345,420.45 429.523,420.45 429.523,460.952 418.081,460.952 		"/>
		<polygon fill-rule="evenodd" clip-rule="evenodd" fill="#FFFFFF" points="469.971,439.327 450.063,411.676 463.469,411.676 
			475.812,430.911 488.828,411.676 502.438,411.676 481.412,439.758 481.412,460.952 469.971,460.952 		"/>
		<g>
			<path fill="#FFFFFF" d="M138.439,539.25c-0.854-2.168-1.299-4.104-1.331-5.807s0.254-3.205,0.857-4.506s1.469-2.402,2.595-3.311
				c1.127-0.907,2.42-1.649,3.882-2.227l9.19-3.625l1.673,4.242l-8.483,3.346c-0.801,0.316-1.521,0.718-2.161,1.201
				c-0.64,0.482-1.146,1.064-1.519,1.742c-0.373,0.678-0.596,1.475-0.671,2.389c-0.074,0.915,0.068,1.969,0.43,3.16l14.775-5.83
				l1.674,4.242l-14.847,5.857l4.045,10.251l-4.949,1.952L138.439,539.25z"/>
			<path fill="#FFFFFF" d="M161.542,530.992c-0.779-2.438-1.119-4.602-1.02-6.496c0.1-1.893,0.539-3.536,1.317-4.929
				c0.778-1.392,1.842-2.556,3.192-3.493c1.35-0.936,2.881-1.678,4.595-2.227c1.664-0.531,3.318-0.807,4.962-0.827
				c1.642-0.019,3.19,0.312,4.644,0.99c1.454,0.679,2.776,1.759,3.968,3.24c1.191,1.479,2.177,3.44,2.955,5.876
				c0.779,2.438,1.112,4.605,1,6.503c-0.111,1.897-0.562,3.544-1.353,4.94c-0.791,1.396-1.861,2.562-3.211,3.5
				c-1.35,0.936-2.857,1.67-4.521,2.202c-1.714,0.548-3.392,0.831-5.034,0.851s-3.185-0.312-4.627-0.996
				c-1.441-0.682-2.752-1.766-3.931-3.251C163.299,535.392,162.321,533.431,161.542,530.992z M176.682,535.928
				c0.989-0.315,1.88-0.752,2.673-1.312c0.792-0.559,1.406-1.28,1.842-2.164s0.663-1.96,0.684-3.229
				c0.02-1.271-0.244-2.762-0.793-4.477c-0.546-1.713-1.197-3.08-1.949-4.104c-0.752-1.022-1.562-1.768-2.43-2.236
				c-0.867-0.465-1.785-0.698-2.755-0.693c-0.97,0.004-1.949,0.164-2.938,0.479c-1.014,0.323-1.916,0.765-2.709,1.323
				c-0.792,0.561-1.405,1.281-1.842,2.164c-0.435,0.885-0.657,1.96-0.664,3.225c-0.009,1.266,0.262,2.757,0.81,4.47
				c0.548,1.714,1.19,3.083,1.932,4.11c0.74,1.025,1.544,1.773,2.411,2.24c0.867,0.469,1.785,0.699,2.756,0.695
				C174.677,536.416,175.669,536.252,176.682,535.928z"/>
			<path fill="#FFFFFF" d="M188.931,522.348c-0.604-2.486-0.79-4.67-0.558-6.552c0.233-1.882,0.788-3.489,1.662-4.823
				c0.875-1.332,2.019-2.42,3.432-3.258c1.412-0.84,2.992-1.473,4.74-1.897c1.698-0.411,3.367-0.57,5.008-0.474
				c1.64,0.097,3.161,0.534,4.562,1.314c1.402,0.779,2.646,1.951,3.729,3.512c1.084,1.562,1.928,3.586,2.533,6.072
				c0.604,2.486,0.784,4.672,0.538,6.557c-0.245,1.885-0.812,3.496-1.699,4.832c-0.887,1.337-2.037,2.426-3.449,3.264
				c-1.413,0.838-2.968,1.465-4.667,1.877c-1.748,0.426-3.44,0.59-5.081,0.494c-1.641-0.097-3.155-0.536-4.544-1.32
				c-1.391-0.783-2.621-1.957-3.691-3.521C190.374,526.86,189.537,524.836,188.931,522.348z M203.685,528.342
				c1.01-0.245,1.929-0.619,2.759-1.121c0.829-0.502,1.493-1.178,1.989-2.029c0.497-0.85,0.8-1.908,0.91-3.173
				c0.109-1.265-0.048-2.771-0.474-4.52c-0.425-1.747-0.977-3.157-1.654-4.231c-0.679-1.072-1.434-1.875-2.267-2.402
				c-0.832-0.527-1.731-0.822-2.699-0.889c-0.967-0.063-1.955,0.027-2.964,0.271c-1.034,0.252-1.967,0.629-2.796,1.131
				c-0.83,0.502-1.492,1.178-1.99,2.029c-0.496,0.85-0.794,1.906-0.891,3.168c-0.098,1.262,0.066,2.769,0.491,4.516
				c0.425,1.748,0.971,3.16,1.637,4.235c0.666,1.077,1.415,1.878,2.247,2.406s1.731,0.825,2.7,0.889
				C201.651,528.688,202.652,528.594,203.685,528.342z"/>
			<path fill="#FFFFFF" d="M223.451,505.697l-9.357,1.636l-0.786-4.491l23.957-4.189l0.785,4.492l-9.358,1.637l3.798,21.71
				l-5.24,0.917L223.451,505.697z"/>
			<path fill="#FFFFFF" d="M240.781,498.166l15.3-1.66c1.158-0.126,2.268-0.124,3.326,0.002c1.059,0.129,2.008,0.434,2.851,0.916
				c0.842,0.482,1.533,1.151,2.072,2.012c0.539,0.857,0.882,1.967,1.029,3.328c0.158,1.459,0.037,2.69-0.364,3.689
				s-1.013,1.823-1.834,2.473c1.14,0.412,2.092,1.08,2.854,2.004s1.233,2.205,1.409,3.842c0.147,1.358,0.051,2.516-0.292,3.471
				c-0.343,0.953-0.873,1.758-1.592,2.409c-0.721,0.65-1.583,1.151-2.59,1.503s-2.09,0.59-3.248,0.715l-16.056,1.74L240.781,498.166
				z M257.268,507.463c0.882-0.096,1.612-0.41,2.191-0.945c0.579-0.534,0.803-1.405,0.672-2.615c-0.128-1.184-0.533-1.98-1.215-2.39
				c-0.681-0.411-1.463-0.568-2.345-0.474l-10.011,1.086l0.696,6.422L257.268,507.463z M259.211,518.336
				c0.881-0.096,1.611-0.41,2.191-0.945c0.578-0.532,0.803-1.404,0.672-2.613c-0.129-1.184-0.533-1.98-1.215-2.392
				c-0.682-0.409-1.463-0.567-2.344-0.472l-10.768,1.166l0.695,6.424L259.211,518.336z"/>
			<path fill="#FFFFFF" d="M279.05,494.864l5.731-0.275l13.12,25.999l-5.922,0.285l-2.495-5.207l-13.095,0.631l-1.983,5.421
				l-5.921,0.286L279.05,494.864z M287.33,511.205l-5.151-10.633l-4.071,11.076L287.33,511.205z"/>
			<path fill="#FFFFFF" d="M299.359,494.303l5.318,0.119l-0.356,15.955c-0.026,1.166,0.128,2.139,0.466,2.918
				c0.338,0.781,0.811,1.413,1.421,1.895c0.61,0.483,1.331,0.835,2.162,1.056c0.832,0.222,1.716,0.343,2.653,0.363l6.838,0.153
				l-0.103,4.559l-6.838-0.152c-1.671-0.037-3.238-0.25-4.699-0.637c-1.461-0.389-2.731-1.012-3.816-1.873
				c-1.082-0.859-1.932-1.975-2.547-3.344s-0.902-3.055-0.856-5.056L299.359,494.303z"/>
			<path fill="#FFFFFF" d="M322.206,494.947l5.304,0.405l-1.215,15.914c-0.089,1.162,0.014,2.142,0.309,2.938
				c0.295,0.798,0.734,1.453,1.317,1.968s1.284,0.904,2.103,1.171c0.817,0.266,1.693,0.434,2.628,0.506l6.82,0.521l-0.347,4.546
				l-6.819-0.52c-1.668-0.127-3.221-0.424-4.659-0.891c-1.438-0.465-2.675-1.156-3.709-2.074c-1.035-0.916-1.823-2.076-2.365-3.477
				c-0.541-1.399-0.733-3.098-0.582-5.094L322.206,494.947z"/>
			<path fill="#FFFFFF" d="M366.409,526.059c-1.273-0.709-2.328-1.668-3.161-2.877c-0.835-1.211-1.393-2.703-1.671-4.48
				c-0.279-1.775-0.196-3.873,0.247-6.291c0.442-2.416,1.11-4.405,2.002-5.969c0.893-1.561,1.942-2.759,3.151-3.594
				c1.209-0.834,2.535-1.356,3.978-1.568c1.443-0.213,2.937-0.177,4.482,0.107l9.718,1.783l-0.824,4.484l-8.97-1.646
				c-0.921-0.168-1.819-0.19-2.691-0.068c-0.873,0.123-1.676,0.459-2.406,1.008c-0.733,0.549-1.372,1.338-1.922,2.371
				c-0.551,1.032-0.979,2.383-1.285,4.053c-0.307,1.67-0.387,3.084-0.238,4.244c0.147,1.161,0.467,2.127,0.956,2.899
				c0.488,0.772,1.12,1.37,1.891,1.796c0.773,0.426,1.62,0.723,2.542,0.891l8.97,1.646l-0.822,4.484l-9.718-1.783
				C369.092,527.268,367.682,526.77,366.409,526.059z"/>
			<path fill="#FFFFFF" d="M390.126,504.27l5.169,1.262l-3.784,15.504c-0.276,1.133-0.334,2.117-0.173,2.951
				c0.162,0.835,0.488,1.554,0.981,2.156c0.49,0.602,1.119,1.101,1.883,1.496s1.602,0.704,2.512,0.926l6.646,1.621l-1.081,4.431
				l-6.646-1.622c-1.623-0.396-3.108-0.939-4.452-1.634c-1.343-0.692-2.45-1.576-3.322-2.649c-0.873-1.074-1.462-2.344-1.768-3.815
				c-0.308-1.47-0.223-3.176,0.252-5.12L390.126,504.27z"/>
			<path fill="#FFFFFF" d="M411.818,509.603l5.083,1.574l-4.61,14.882c-0.396,1.284-0.56,2.406-0.486,3.371
				c0.072,0.963,0.324,1.797,0.756,2.501c0.433,0.704,1.008,1.286,1.727,1.747c0.719,0.463,1.538,0.836,2.458,1.121
				c0.896,0.277,1.77,0.428,2.624,0.455c0.853,0.025,1.657-0.131,2.412-0.467c0.754-0.338,1.439-0.881,2.056-1.631
				c0.617-0.75,1.124-1.768,1.522-3.05l4.608-14.882l5.081,1.574l-4.608,14.881c-0.653,2.105-1.506,3.771-2.562,4.996
				s-2.242,2.104-3.562,2.635c-1.318,0.534-2.736,0.764-4.252,0.693c-1.517-0.072-3.072-0.355-4.67-0.85
				c-1.597-0.494-3.048-1.143-4.35-1.944c-1.304-0.802-2.349-1.794-3.136-2.98c-0.786-1.185-1.264-2.579-1.43-4.183
				c-0.167-1.603,0.076-3.457,0.729-5.562L411.818,509.603z"/>
			<path fill="#FFFFFF" d="M440.441,518.69l14.341,5.583c1.085,0.422,2.068,0.935,2.95,1.536c0.879,0.602,1.583,1.31,2.108,2.126
				c0.523,0.816,0.827,1.729,0.91,2.74c0.081,1.011-0.125,2.153-0.621,3.428c-0.533,1.369-1.209,2.404-2.025,3.106
				c-0.817,0.701-1.739,1.151-2.768,1.349c0.822,0.891,1.358,1.922,1.609,3.094c0.25,1.171,0.077,2.523-0.52,4.059
				c-0.496,1.275-1.117,2.256-1.86,2.945c-0.745,0.689-1.586,1.156-2.524,1.402s-1.937,0.294-2.99,0.141
				c-1.057-0.152-2.126-0.439-3.212-0.862l-15.05-5.859L440.441,518.69z M447.493,545.088c0.826,0.321,1.62,0.379,2.38,0.172
				c0.761-0.207,1.361-0.877,1.802-2.01c0.433-1.109,0.441-2.004,0.025-2.683c-0.416-0.677-1.036-1.179-1.863-1.5l-10.092-3.929
				l-2.343,6.02L447.493,545.088z M450.783,534.543c0.826,0.321,1.62,0.379,2.38,0.172c0.761-0.207,1.362-0.877,1.802-2.01
				c0.433-1.109,0.44-2.004,0.025-2.682c-0.417-0.678-1.036-1.18-1.863-1.501l-9.384-3.652l-2.344,6.019L450.783,534.543z"/>
		</g>
		<g>
			<path fill="#FFFFFF" d="M222.831,570.834l9.135-3.263v46.979h-9.135V570.834z"/>
			<path fill="#FFFFFF" d="M242.208,606.721h18.074c1.305,0,2.533-0.141,3.687-0.424c1.152-0.282,2.207-0.75,3.165-1.403
				c0.956-0.652,1.804-1.521,2.544-2.609c0.739-1.087,1.305-2.436,1.697-4.046h-18.661c-1.871,0-3.633-0.229-5.285-0.685
				c-1.654-0.457-3.089-1.218-4.307-2.284c-1.218-1.065-2.186-2.489-2.903-4.273c-0.718-1.783-1.077-3.98-1.077-6.59
				c0-2.871,0.359-5.296,1.077-7.275c0.717-1.979,1.685-3.578,2.903-4.796c1.217-1.218,2.653-2.099,4.307-2.643
				c1.652-0.544,3.414-0.815,5.285-0.815h8.874c2.697,0,5.241,0.392,7.634,1.174c2.392,0.783,4.479,2.078,6.264,3.883
				c1.783,1.806,3.186,4.166,4.208,7.079c1.022,2.915,1.534,6.482,1.534,10.701c0,4.264-0.512,7.841-1.534,10.733
				c-1.022,2.894-2.425,5.242-4.208,7.047c-1.784,1.806-3.872,3.1-6.264,3.882c-2.393,0.783-4.938,1.175-7.634,1.175h-19.379
				V606.721z M272.093,590.409c-0.088-2.641-0.457-4.838-1.109-6.592c-0.652-1.753-1.512-3.16-2.578-4.221
				c-1.066-1.061-2.295-1.808-3.687-2.241c-1.393-0.432-2.871-0.649-4.437-0.649h-5.546c-0.871,0-1.686,0.142-2.447,0.423
				c-0.762,0.281-1.447,0.726-2.055,1.331c-0.61,0.606-1.088,1.396-1.436,2.37c-0.349,0.975-0.522,2.154-0.522,3.539
				c0,1.169,0.173,2.133,0.522,2.891c0.348,0.757,0.826,1.374,1.436,1.851c0.608,0.477,1.293,0.812,2.055,1.007
				c0.761,0.194,1.576,0.292,2.447,0.292H272.093z"/>
			<path fill="#FFFFFF" d="M286.773,602.153c0-2.827,0.555-5.1,1.664-6.818c1.109-1.718,2.62-3.034,4.535-3.947
				c-1.523-0.956-2.719-2.251-3.589-3.883c-0.871-1.631-1.305-3.708-1.305-6.231c0-2.349,0.38-4.306,1.142-5.872
				c0.761-1.565,1.816-2.838,3.165-3.817c1.348-0.979,2.903-1.674,4.665-2.088c1.762-0.412,3.665-0.619,5.71-0.619h9.787
				c2,0,3.893,0.207,5.676,0.619c1.783,0.414,3.35,1.109,4.699,2.088c1.348,0.979,2.402,2.252,3.164,3.817
				c0.76,1.566,1.143,3.523,1.143,5.872c0,2.523-0.436,4.601-1.307,6.231c-0.869,1.632-2.066,2.927-3.588,3.883
				c1.869,0.913,3.371,2.229,4.502,3.947c1.131,1.719,1.697,3.991,1.697,6.818c0,2.35-0.383,4.307-1.143,5.873
				c-0.762,1.565-1.816,2.838-3.164,3.816c-1.35,0.979-2.916,1.675-4.699,2.088c-1.783,0.414-3.676,0.62-5.676,0.62h-12.396
				c-2.046,0-3.948-0.206-5.71-0.62c-1.762-0.413-3.317-1.109-4.666-2.088c-1.349-0.979-2.404-2.251-3.165-3.816
				C287.154,606.46,286.773,604.503,286.773,602.153z M295.908,601.175c0,2.088,0.543,3.534,1.631,4.339
				c1.086,0.806,2.392,1.207,3.916,1.207h12.396c1.521,0,2.826-0.401,3.914-1.207c1.088-0.805,1.633-2.251,1.633-4.339
				c0-2.044-0.545-3.479-1.633-4.307c-1.088-0.825-2.393-1.239-3.914-1.239h-12.396c-1.523,0-2.829,0.414-3.916,1.239
				C296.452,597.695,295.908,599.131,295.908,601.175z M312.547,587.799c1.521,0,2.826-0.401,3.914-1.207
				c1.088-0.805,1.631-2.251,1.631-4.339c0-2.044-0.543-3.479-1.631-4.307c-1.088-0.826-2.393-1.24-3.914-1.24h-9.787
				c-1.523,0-2.828,0.414-3.916,1.24c-1.088,0.827-1.631,2.263-1.631,4.307c0,2.088,0.543,3.534,1.631,4.339
				c1.087,0.806,2.392,1.207,3.916,1.207H312.547z"/>
			<path fill="#FFFFFF" d="M333.425,596.281l26.817-27.404h11.68v28.709h6.524v7.83h-6.524v9.135h-9.135v-9.135h-29.362V596.281z
				 M362.787,597.586v-19.771l-18.922,19.771H362.787z"/>
		</g>
	</g>
</g>
<g id="MasterLayer_1" display="none">
</g>
</svg>
