<?xml version="1.0" encoding="UTF-8"?>
<!-- Generator: Adobe Illustrator 15.1.0, SVG Export Plug-In . SVG Version: 6.00 Build 0)  -->
<!DOCTYPE svg PUBLIC "-//W3C//DTD SVG 1.1//EN" "http://www.w3.org/Graphics/SVG/1.1/DTD/svg11.dtd">
<svg version="1.1" id="Layer_1" xmlns="http://www.w3.org/2000/svg" xmlns:xlink="http://www.w3.org/1999/xlink" x="0px" y="0px" width="56.772px" height="68px" viewBox="0 0 56.772 68" enable-background="new 0 0 56.772 68" xml:space="preserve">
<polygon fill="#FF0000" points="31.108,59.23 31.108,37.11 31.108,30.655 25.665,30.655 25.665,37.11 25.665,59.23 "/>
<g>
	<path fill="#FF0000" d="M50.31,46.738V30.807v-0.151h-5.443v1.938v22.669c-1.29,1.578-2.68,3.035-4.157,4.357V33.958v-3.303h-5.443   v5.089v27.879c-1.339,0.791-2.727,1.481-4.157,2.061v-2.296h-5.443v2.296c-1.431-0.579-2.819-1.27-4.158-2.061V35.745v-5.089   h-5.443v3.303V59.62c-1.478-1.322-2.868-2.779-4.158-4.357V32.594v-1.938H6.463v0.151v15.931   c-2.592-5.282-4.295-11.249-4.878-17.533l-1.406-0.461c0.286,3.512,0.916,6.976,1.886,10.342c1.336,4.637,3.276,8.964,5.766,12.861   c2.501,3.916,5.478,7.273,8.848,9.98c3.485,2.801,7.294,4.824,11.322,6.016C28.126,67.981,28.256,68,28.386,68   c0.13,0,0.26-0.019,0.386-0.057c4.027-1.191,7.837-3.215,11.321-6.016c3.37-2.707,6.347-6.064,8.848-9.98   c2.49-3.897,4.431-8.225,5.767-12.861c0.97-3.366,1.6-6.83,1.886-10.342l-1.406,0.461C54.604,35.489,52.902,41.456,50.31,46.738"/>
	<path fill="#FFFFFF" d="M56.694,27.279l-1.392,0.457c0.072-1.112,0.109-2.232,0.109-3.36c0-11.749-3.682-19.104-3.682-19.104   s-8.416-3.911-23.344-3.911c-14.928,0-23.344,3.911-23.344,3.911s-3.682,7.355-3.682,19.104c0,1.127,0.038,2.248,0.109,3.36   l-1.391-0.457c0.026,0.489,0.061,0.978,0.1,1.465l1.406,0.462c0.583,6.283,2.286,12.25,4.878,17.532V30.655h5.443v24.607   c1.29,1.578,2.68,3.035,4.158,4.357V30.655h5.443v32.969c1.339,0.791,2.727,1.481,4.158,2.061v-2.296h5.443v2.296   c1.431-0.579,2.818-1.27,4.157-2.061V30.655h5.443V59.62c1.478-1.322,2.867-2.779,4.157-4.357V30.655h5.443v16.083   c2.593-5.282,4.295-11.249,4.878-17.532l1.406-0.462C56.634,28.257,56.667,27.769,56.694,27.279 M31.108,59.23h-5.443V30.655h5.443   V59.23z"/>
	<path d="M56.772,24.376c0-6.223-1.028-11.223-1.891-14.323c-0.944-3.395-1.895-5.311-1.935-5.39   c-0.138-0.275-0.365-0.496-0.644-0.625c-0.091-0.042-2.271-1.045-6.322-2.043C42.286,1.085,36.234,0,28.386,0   c-7.848,0-13.899,1.085-17.595,1.995c-4.051,0.998-6.231,2-6.322,2.043C4.19,4.167,3.964,4.388,3.826,4.663   c-0.04,0.08-0.99,1.995-1.936,5.39C1.028,13.153,0,18.153,0,24.376c0,0.971,0.027,1.938,0.079,2.903l1.391,0.457   c-0.072-1.112-0.109-2.232-0.109-3.36c0-11.749,3.682-19.104,3.682-19.104s8.416-3.911,23.343-3.911   c14.928,0,23.344,3.911,23.344,3.911s3.682,7.355,3.682,19.104c0,1.128-0.037,2.248-0.109,3.36l1.392-0.457   C56.746,26.314,56.772,25.347,56.772,24.376"/>
	<path d="M8.176,22.208H5.445v4.848h2.731c1.044,0,1.89-0.718,1.89-2.424S9.22,22.208,8.176,22.208 M8.542,25.909   c-0.358,0.364-0.955,0.381-1.567,0.381v-3.317c0.612,0,1.208,0.017,1.567,0.38c0.237,0.242,0.333,0.499,0.333,1.278   C8.875,25.411,8.78,25.668,8.542,25.909"/>
	<polygon points="10.892,27.055 14.507,27.055 14.507,26.29 12.45,26.29 12.45,24.958 14.11,24.958 14.11,24.192 12.45,24.192    12.45,22.973 14.507,22.973 14.507,22.208 10.892,22.208  "/>
	<polygon points="29.064,23.738 29.047,23.738 28.13,22.208 26.564,22.208 27.991,24.591 27.991,27.055 29.55,27.055 29.55,24.66    31.1,22.208 30.069,22.208  "/>
	<polygon points="50.298,22.208 49.293,23.738 49.274,23.738 48.358,22.208 46.793,22.208 48.22,24.591 48.22,27.056 49.778,27.056    49.778,24.66 51.328,22.208  "/>
	<path d="M25.809,23.741c0-1.075-0.809-1.534-1.645-1.534h-3.033v4.848h1.748v-2.424v-1.567h0.775c0.282,0,0.543,0.174,0.543,0.677   c0,0.635-0.475,0.89-0.757,0.89h-0.562l1.493,2.424h1.531l-1.259-1.834C25.284,25.072,25.809,24.607,25.809,23.741"/>
	<path d="M20.082,23.741c0-1.075-0.809-1.534-1.645-1.534h-3.033v4.848h1.749v-2.424v-1.567h0.774c0.282,0,0.543,0.174,0.543,0.677   c0,0.635-0.475,0.89-0.756,0.89h-0.562l1.493,2.424h1.531l-1.259-1.834C19.558,25.072,20.082,24.607,20.082,23.741"/>
	<rect x="39.399" y="22.208" width="1.702" height="4.848"/>
	<polygon points="41.616,22.878 43.159,22.878 43.159,27.056 44.685,27.056 44.685,22.878 46.228,22.878 46.228,22.208    41.616,22.208  "/>
	<path d="M34.343,24.631c0,0.849,0.221,1.42,0.734,1.859c0.538,0.454,1.045,0.644,2.049,0.644c0.577,0,0.965-0.066,1.463-0.249   l0.065-0.822c-0.537,0.388-1.149,0.317-1.561,0.317c-0.759,0-1.218-0.658-1.218-1.749c0-1.09,0.401-1.749,1.459-1.749   c0.825,0,0.872-0.005,1.41,0.383l-0.156-0.888c-0.498-0.183-0.886-0.249-1.463-0.249c-1.004,0-1.511,0.19-2.049,0.644   C34.563,23.211,34.343,23.783,34.343,24.631"/>
	<polygon points="21.729,28.122 22.396,28.122 22.396,29.927 23.055,29.927 23.055,28.122 23.722,28.122 23.722,27.832    21.729,27.832  "/>
	<polygon points="31.028,27.832 31.687,27.832 31.687,29.637 32.601,29.637 32.601,29.927 31.028,29.927  "/>
	<polygon points="36.386,27.832 37.045,27.832 37.045,29.637 37.959,29.637 37.959,29.927 36.386,29.927  "/>
	<polygon points="29.124,27.832 29.783,27.832 29.783,29.637 30.697,29.637 30.697,29.927 29.124,29.927  "/>
	<polygon points="14.358,29.927 15.16,29.927 15.16,29.021 15.813,29.021 15.813,28.689 15.16,28.689 15.16,28.163 16.056,28.163    16.056,27.832 14.358,27.832  "/>
	<path d="M39.817,27.832v1.236c0,0.35-0.157,0.586-0.435,0.586c-0.217,0-0.302-0.236-0.302-0.586v-1.236h-0.87v1.104   c0,0.415,0.133,0.917,0.775,0.917h0.396c0.413,0,0.681-0.255,0.681-0.785v-1.236H39.817z"/>
	<path d="M25.486,28.818c0.162-0.076,0.276-0.259,0.276-0.475c0-0.283-0.197-0.512-0.439-0.512h-1.26v2.095h1.26   c0.243,0,0.439-0.257,0.439-0.575C25.763,29.109,25.648,28.903,25.486,28.818 M24.863,28.122h0.282c0.072,0,0.13,0.099,0.13,0.222   s-0.058,0.222-0.13,0.222h-0.282V28.122z M25.06,29.578h-0.196v-0.649h0.196c0.18,0,0.301,0.12,0.301,0.338   C25.36,29.405,25.298,29.578,25.06,29.578"/>
	<path d="M42.138,28.818c0.162-0.076,0.277-0.259,0.277-0.475c0-0.283-0.197-0.512-0.44-0.512h-1.259v2.095h1.259   c0.243,0,0.44-0.257,0.44-0.575C42.415,29.109,42.3,28.903,42.138,28.818 M41.515,28.122h0.282c0.072,0,0.131,0.099,0.131,0.222   s-0.059,0.222-0.131,0.222h-0.282V28.122z M41.712,29.578h-0.197v-0.649h0.197c0.18,0,0.301,0.12,0.301,0.338   C42.013,29.405,41.95,29.578,41.712,29.578"/>
	<path d="M27.847,29.927h0.707l-1.018-2.095h-0.415l-1.019,2.095h0.562l0.182-0.375h0.82L27.847,29.927z M27.006,29.221l0.249-0.512   l0.249,0.512H27.006z"/>
	<path d="M20.189,27.832c-0.306,0-0.627,0.079-0.813,0.23c-0.206,0.164-0.321,0.452-0.321,0.797c0,0.354,0.088,0.606,0.273,0.8   c0.185,0.188,0.497,0.267,0.861,0.267c0.61,0,0.945-0.361,0.945-1.049C21.134,28.202,20.779,27.832,20.189,27.832 M20.255,29.642   c-0.258,0-0.34-0.23-0.34-0.776c0-0.516,0.085-0.749,0.34-0.749c0.214,0,0.344,0.233,0.344,0.776   C20.6,29.409,20.467,29.642,20.255,29.642"/>
	<path d="M17.526,27.832c-0.306,0-0.627,0.079-0.813,0.23c-0.206,0.164-0.321,0.452-0.321,0.797c0,0.354,0.088,0.606,0.273,0.8   c0.185,0.188,0.498,0.267,0.861,0.267c0.611,0,0.945-0.361,0.945-1.049C18.471,28.202,18.116,27.832,17.526,27.832 M17.592,29.642   c-0.258,0-0.339-0.23-0.339-0.776c0-0.516,0.084-0.749,0.339-0.749c0.214,0,0.345,0.233,0.345,0.776   C17.937,29.409,17.805,29.642,17.592,29.642"/>
	<path d="M34.04,28.885c0,0.357,0.094,0.598,0.31,0.782c0.227,0.191,0.439,0.271,0.862,0.271c0.243,0,0.406-0.027,0.615-0.104   l0.028-0.346c-0.227,0.163-0.484,0.133-0.657,0.133c-0.319,0-0.513-0.277-0.513-0.736c0-0.459,0.169-0.736,0.614-0.736   c0.347,0,0.367-0.002,0.593,0.162l-0.065-0.374c-0.209-0.077-0.372-0.104-0.615-0.104c-0.423,0-0.636,0.08-0.862,0.271   C34.134,28.288,34.04,28.528,34.04,28.885"/>
	<path fill="#FFFFFF" d="M39.612,46.35c0-6.199-5.025-11.226-11.226-11.226S17.16,40.15,17.16,46.35   c0,6.2,5.026,11.227,11.227,11.227S39.612,52.55,39.612,46.35"/>
	<path d="M38.068,40.895L38.068,40.895C38.068,40.894,38.068,40.894,38.068,40.895c-0.518-0.917-1.16-1.752-1.906-2.483   c-0.038-0.036-0.076-0.072-0.114-0.109c-0.001-0.001-0.001-0.001-0.001-0.002c-1.058-0.567-2.413-0.983-3.82-0.595   c0,0,0.992,1.257,1.909,3.742c2.205,0.251,3.534,1.304,3.534,1.304l0.273-1.272c0.449,1.189,0.697,2.478,0.697,3.824   c0,1.239-0.21,2.43-0.594,3.537l-0.51-0.892c0,0-0.907,1.928-2.637,2.75c0,1.207-0.152,2.303-0.402,3.115   c-1.213,0.952-2.633,1.653-4.184,2.02l0.061-0.515c-2.41-0.236-3.932-1.946-3.932-1.946s-2.117,0.929-3.855,1.115l-0.056,0.253   c-1.399-0.786-2.606-1.874-3.532-3.177c0.369,0.259,0.813,0.508,1.338,0.693c0.217-2.05,1.001-4.157,1.001-4.157   s-1.304-1.115-1.946-3.156c0,0-1.045,0.653-2.093,2.188c0.094,1.359,0.433,2.65,0.973,3.832c0.154,0.15,0.339,0.313,0.552,0.474   c0.836,1.734,2.1,3.224,3.657,4.327c1.71,1.075,3.733,1.698,5.903,1.698c6.137,0,11.112-4.976,11.112-11.113   C39.499,44.367,38.979,42.506,38.068,40.895"/>
	<path d="M28.05,50.462c2.28-0.598,4.215-2.212,4.215-2.212c-0.177-2.714-0.756-4.592-0.756-4.592s-1.342-0.661-4.744-0.718   c0,0-1.479,1.572-2.23,4.347C24.535,47.287,25.986,49.35,28.05,50.462"/>
	<path d="M21.322,40.237c0,0,1.758-0.567,3.931-0.567c1.077-1.72,2.986-2.569,2.986-2.569c-0.772-0.496-1.753-0.878-2.403-1.102   c-1.709,0.419-3.256,1.251-4.529,2.383C21.229,38.914,21.207,39.545,21.322,40.237"/>
	<path d="M23,59.843c0,0-0.165,0.117-0.369,0.17l-0.026,0.604h0.31c0.114,0,0.22,0.048,0.207,0.34l-0.084,1.929h0.945l0.133-3.043   H23z"/>
	<path d="M26.672,59.734c-1.092,0-1.517,0.396-1.517,1.119c0,0.6,0.339,1.161,1.395,0.896c-0.142,0.313-0.386,0.635-0.799,1.136   h1.134c0.822-0.997,0.978-1.28,0.978-2.216C27.862,60.018,27.409,59.734,26.672,59.734 M26.459,61.279   c-0.312,0-0.454-0.241-0.454-0.539c0-0.297,0.142-0.538,0.454-0.538c0.298,0,0.539,0.057,0.539,0.538   C26.998,61.123,26.884,61.279,26.459,61.279"/>
	<path d="M31.009,60.4c0-0.511-0.496-0.666-1.332-0.666c-1.077,0-1.195,0.137-1.275,0.709h0.553c0.019-0.184,0.132-0.213,0.51-0.213   c0.309,0,0.558,0,0.558,0.396c0,0.51-1.682,1.238-1.682,2.259h2.532l0.021-0.482H29.41C30.089,61.963,31.009,61.086,31.009,60.4"/>
	<path d="M33.639,61.179c0.245-0.133,0.476-0.347,0.488-0.639c0.023-0.514-0.488-0.795-1.2-0.795c-0.369,0-0.76,0.061-0.988,0.176   c-0.254,0.124-0.402,0.343-0.414,0.605c-0.012,0.27,0.086,0.461,0.303,0.608c0.04,0.026,0.087,0.049,0.137,0.069   c-0.049,0.018-0.096,0.036-0.136,0.057c-0.284,0.14-0.45,0.386-0.463,0.682c-0.014,0.303,0.096,0.518,0.338,0.684   c0.242,0.161,0.66,0.229,1.15,0.229c0.823,0,1.287-0.309,1.313-0.896C34.183,61.582,33.991,61.318,33.639,61.179 M32.816,60.063   c0.259,0,0.488,0.182,0.47,0.489c-0.023,0.392-0.29,0.496-0.545,0.496c-0.229,0-0.558-0.103-0.539-0.517   C32.22,60.14,32.51,60.063,32.816,60.063 M33.334,61.971c-0.02,0.44-0.324,0.568-0.61,0.568c-0.255,0-0.448-0.125-0.428-0.592   c0.02-0.44,0.17-0.526,0.513-0.526C33.099,61.421,33.354,61.507,33.334,61.971"/>
	<path fill="#FF0000" d="M15.08,5.187L11.857,6.14c-0.085,0.025-0.153,0.166-0.153,0.314v0.309v0.31   c0,0.148-0.068,0.286-0.153,0.307L9.633,7.849C9.548,7.87,9.48,7.778,9.48,7.644V7.086c0-0.134-0.068-0.222-0.153-0.197   L7.278,7.495c-0.084,0.025-0.153,0.142-0.153,0.26v0.494c0,0.118-0.069,0.231-0.153,0.251L5.053,8.969   C4.969,8.99,4.9,8.923,4.9,8.819V8.387c0-0.104-0.069-0.168-0.153-0.143c-0.039,0.011-0.34,0.101-0.477,0.141   C4.186,8.41,4.118,8.505,4.118,8.599v8.393c0.176,0.055,1.333,0.493,1.51,0.548c0.084,0.026,0.153-0.038,0.153-0.144v-4.111   c0-0.177,0.029-0.344,0.081-0.498c0.052-0.153,0.127-0.293,0.221-0.413c0.093-0.12,0.204-0.219,0.327-0.29s0.258-0.114,0.4-0.12   c0.213-0.008,3.509-0.122,3.722-0.13c0.142-0.005,0.277,0.038,0.4,0.122s0.234,0.209,0.327,0.367   c0.093,0.158,0.168,0.349,0.221,0.563c0.052,0.213,0.081,0.45,0.081,0.696c0,0.208,0.012,4.667,0.012,4.859v0.598   c0,0.146,0.068,0.287,0.153,0.313c0.11,0.034,3.436,1.067,3.508,1.089v-15C15.232,5.276,15.164,5.162,15.08,5.187"/>
	<path d="M5.296,7.736C5.073,7.685,5.068,7.689,4.797,7.976c0.21,0.008,0.368,0.181,0.368,0.411V8.67l1.694-0.415   c0-0.002,0-0.005,0-0.007V8.1L5.296,7.736z"/>
	<path d="M6.542,12.314c-0.092,0.053-0.176,0.129-0.25,0.224c-0.076,0.098-0.136,0.211-0.179,0.335   c-0.044,0.131-0.067,0.27-0.067,0.413v3.937l2.605-1.708v-3.349c-0.867,0.03-1.726,0.06-1.831,0.064   C6.726,12.233,6.632,12.262,6.542,12.314"/>
	<rect x="15.497" y="5.709" width="0.271" height="14.458"/>
	<path d="M9.16,6.384C8.937,6.333,8.933,6.337,8.662,6.623l0.275-0.291l-0.52,0.55l0.835-0.247C9.286,6.625,9.32,6.62,9.355,6.62   c0.222,0,0.389,0.2,0.389,0.466v0.463l1.686-0.413c0.005-0.016,0.009-0.038,0.009-0.063v-0.16L8.937,6.333L9.16,6.384z"/>
	<path fill="#FF0000" d="M41.693,5.187l3.223,0.953C45,6.166,45.069,6.306,45.069,6.455v0.309v0.31c0,0.148,0.068,0.286,0.152,0.307   l1.918,0.469c0.085,0.021,0.153-0.071,0.153-0.205V7.086c0-0.134,0.068-0.222,0.153-0.197l2.049,0.606   c0.085,0.025,0.153,0.142,0.153,0.26v0.494c0,0.118,0.068,0.231,0.153,0.251l1.918,0.469c0.084,0.021,0.153-0.046,0.153-0.15V8.387   c0-0.104,0.068-0.168,0.152-0.143c0.039,0.011,0.342,0.101,0.477,0.141c0.085,0.025,0.153,0.121,0.153,0.214v8.393   c-0.176,0.055-1.334,0.493-1.511,0.548c-0.084,0.026-0.152-0.038-0.152-0.144v-4.111c0-0.177-0.029-0.344-0.081-0.498   s-0.127-0.293-0.221-0.413c-0.093-0.12-0.203-0.219-0.327-0.29c-0.122-0.071-0.258-0.114-0.399-0.12   c-0.213-0.008-3.509-0.122-3.722-0.13c-0.143-0.005-0.277,0.038-0.4,0.122s-0.234,0.209-0.327,0.367s-0.169,0.349-0.221,0.563   s-0.08,0.45-0.08,0.696c0,0.208-0.013,4.667-0.013,4.859c0,0.191,0,0.39,0,0.598c0,0.146-0.068,0.287-0.153,0.313   c-0.109,0.034-3.436,1.067-3.507,1.089v-15C41.541,5.276,41.609,5.162,41.693,5.187"/>
	<path d="M51.478,7.736c0.223-0.051,0.228-0.047,0.498,0.239c-0.211,0.008-0.367,0.181-0.367,0.411V8.67l-1.695-0.415   c0-0.002,0-0.005,0-0.007V8.1L51.478,7.736z"/>
	<path d="M50.231,12.314c0.093,0.053,0.177,0.129,0.25,0.224c0.077,0.098,0.137,0.211,0.18,0.335   c0.044,0.131,0.066,0.27,0.066,0.413v3.937l-2.605-1.708v-3.349c0.867,0.03,1.727,0.06,1.831,0.064   C50.047,12.233,50.141,12.262,50.231,12.314"/>
	<rect x="41.005" y="5.709" width="0.271" height="14.458"/>
	<path d="M47.613,6.384c0.223-0.051,0.228-0.047,0.498,0.239l-0.275-0.291l0.521,0.55l-0.835-0.247   c-0.034-0.01-0.069-0.015-0.104-0.015c-0.222,0-0.39,0.2-0.39,0.466v0.463l-1.686-0.413c-0.005-0.016-0.01-0.038-0.01-0.063v-0.16   l2.503-0.581L47.613,6.384z"/>
	<path fill="#FF0000" d="M39.821,4.206h-3.223c-0.155,0-0.281,0.126-0.281,0.282v1.014c0,0.202-0.164,0.367-0.366,0.367h-5.306   c-0.202,0-0.366-0.165-0.366-0.367V4.488c0-0.156-0.126-0.282-0.281-0.282h-3.223c-0.156,0-0.282,0.126-0.282,0.282v1.014   c0,0.202-0.164,0.367-0.367,0.367h-5.305c-0.203,0-0.366-0.165-0.367-0.367V4.488c0-0.156-0.126-0.282-0.281-0.282h-3.223   c-0.155,0-0.281,0.126-0.282,0.282v16.175h4.538c0.184,0,0.332-0.149,0.332-0.333V16.48c-0.077-0.08-0.125-0.186-0.125-0.33   c0-0.195,0.052-0.324,0.125-0.413v-0.264c-0.277-0.043-0.417-0.235-0.417-0.57c0-0.292,0.171-0.544,0.417-0.663v-1.061   c0-1.231,0.999-2.229,2.229-2.229h9.236c1.231,0,2.229,0.998,2.229,2.229v1.061c0.247,0.119,0.418,0.371,0.418,0.663   c0,0.335-0.141,0.526-0.418,0.57v0.264c0.073,0.089,0.125,0.218,0.125,0.413c0,0.145-0.048,0.25-0.125,0.33v3.851   c0,0.184,0.149,0.333,0.333,0.333h4.537V4.488C40.104,4.332,39.978,4.207,39.821,4.206"/>
	<path fill="#FF0000" d="M40.103,3.743h-4.009c-0.184,0-0.332,0.149-0.332,0.332v0.764c0,0.184-0.149,0.332-0.332,0.332h-4.158   c-0.183,0-0.332-0.148-0.332-0.332V4.075c0-0.183-0.148-0.332-0.332-0.332h-4.442c-0.184,0-0.332,0.149-0.332,0.332v0.764   c0,0.184-0.149,0.332-0.332,0.332h-4.158c-0.184,0-0.332-0.148-0.332-0.332V4.075c0-0.183-0.149-0.332-0.332-0.332h-4.01   c-0.183,0-0.332,0.149-0.332,0.332v16.588h0.247V4.488c0-0.203,0.164-0.367,0.366-0.367h3.223c0.203,0,0.367,0.164,0.367,0.367   v1.014c0,0.156,0.126,0.282,0.281,0.282h5.305c0.156,0,0.281-0.126,0.282-0.282V4.488c0-0.203,0.164-0.367,0.366-0.367h3.223   c0.202,0,0.366,0.164,0.366,0.367v1.014c0,0.156,0.126,0.282,0.281,0.282h5.306c0.155,0,0.281-0.126,0.281-0.282V4.488   c0-0.203,0.164-0.367,0.366-0.367h3.223c0.203,0,0.367,0.164,0.367,0.367v16.176h0.246V4.075   C40.435,3.892,40.286,3.743,40.103,3.743"/>
	<path fill="#576373" d="M25.737,11.214h-1.693c-1.158,0-2.096,0.939-2.096,2.097v0.86c0.296,0.023,0.404,0.161,0.493,0.315   c0.063,0.109,0.105,0.181,0.391,0.181c0.09,0,0.129-0.017,0.139-0.027c0.022-0.024,0.014-0.13,0.008-0.193   c-0.01-0.131-0.024-0.293,0.086-0.412c0.069-0.075,0.172-0.114,0.306-0.114c0.229,0,0.385,0.134,0.505,0.306v-1.151   C23.876,12.048,24.709,11.214,25.737,11.214"/>
	<path fill="#576373" d="M21.981,15.514c-0.001-0.016-0.004-0.024-0.005-0.028c-0.004-0.002-0.013-0.004-0.028-0.006v0.045   C21.959,15.521,21.972,15.518,21.981,15.514"/>
	<path fill="#576373" d="M23.021,19.543c0-0.398,0.306-0.649,0.508-0.814c0.049-0.041,0.115-0.095,0.142-0.126   c-0.028-0.081-0.24-0.117-0.511-0.154c-0.433-0.06-1.088-0.15-1.088-0.805c0-0.502,0.3-0.577,0.479-0.621   c0.145-0.036,0.16-0.04,0.16-0.159c0-0.066-0.285-0.106-0.438-0.128c-0.102-0.014-0.215-0.03-0.324-0.056v3.846h1.928v-0.158   C23.474,20.257,23.021,20.075,23.021,19.543"/>
	<path fill="#576373" d="M34.797,15.486c-0.001,0.004-0.003,0.013-0.005,0.028c0.01,0.003,0.021,0.007,0.033,0.01v-0.045   C34.811,15.481,34.802,15.484,34.797,15.486"/>
	<path fill="#576373" d="M34.063,16.864c0,0.119,0.016,0.123,0.16,0.158c0.179,0.044,0.478,0.119,0.478,0.621   c0,0.655-0.654,0.745-1.087,0.805c-0.271,0.038-0.483,0.074-0.512,0.155c0.026,0.031,0.092,0.084,0.142,0.125   c0.202,0.166,0.508,0.416,0.508,0.814c0,0.532-0.453,0.714-0.855,0.825v0.157h1.929V16.68c-0.109,0.026-0.222,0.042-0.323,0.056   C34.349,16.757,34.063,16.798,34.063,16.864"/>
	<path fill="#576373" d="M32.729,11.214h-1.693c1.027,0,1.86,0.833,1.86,1.861v1.151c0.121-0.171,0.277-0.306,0.506-0.306   c0.134,0,0.236,0.039,0.306,0.114c0.109,0.119,0.097,0.281,0.086,0.412c-0.005,0.063-0.014,0.169,0.009,0.193   c0.009,0.01,0.049,0.027,0.139,0.027c0.285,0,0.327-0.072,0.391-0.181c0.089-0.154,0.197-0.292,0.493-0.315v-0.86   C34.825,12.153,33.887,11.214,32.729,11.214"/>
	<path d="M35.481,14.903c0-0.313-0.254-0.567-0.567-0.567c-0.623,0-0.236,0.501-0.973,0.501c-0.662,0-0.01-0.747-0.539-0.747   c-0.491,0-0.577,0.973-0.897,0.973c-0.208,0,0.378-1.077-0.549-1.077c-0.435,0-0.585,0.439-0.589,0.933   c-0.004,0.494-0.063,1.259-0.44,1.259c-0.482,0,0.028-0.987-0.548-0.987c-0.567,0-0.813,0.829-0.811,1.401s0.13,1.093-0.055,1.093   c-0.108,0-0.118-0.184-0.493-0.184c-0.271,0-0.491,0.246-0.491,1.058c0,0.813,0.354,1.052,0.398,2.253   c-0.137,0.123-0.315,0.263-0.541,0.405c-0.226-0.142-0.405-0.283-0.542-0.405c0.045-1.201,0.399-1.439,0.399-2.253   c0-0.813-0.22-1.058-0.491-1.058c-0.375,0-0.385,0.184-0.494,0.184c-0.185,0-0.057-0.521-0.055-1.093   c0.002-0.572-0.243-1.401-0.81-1.401c-0.576,0-0.066,0.987-0.548,0.987c-0.378,0-0.437-0.765-0.44-1.259   c-0.004-0.494-0.155-0.933-0.59-0.933c-0.926,0-0.34,1.077-0.548,1.077c-0.321,0-0.406-0.973-0.898-0.973   c-0.529,0,0.123,0.747-0.539,0.747c-0.737,0-0.35-0.501-0.973-0.501c-0.313,0-0.567,0.253-0.567,0.567   c0,0.784,0.86,0.094,0.86,0.633c0,0.274-0.567,0.019-0.567,0.614c0,0.596,1.295,0.255,1.295,0.714c0,0.539-0.638,0.084-0.638,0.779   c0,0.907,1.602,0.411,1.602,0.978c0,0.184-0.652,0.412-0.652,0.921c0,0.893,1.63,0.524,1.63,1.219c0,0.162-0.118,0.123-0.118,0.293   c0,0.25,0.237,0.454,0.529,0.454c0.649,0,0.538-0.616,2.493-0.445c0.114,0.091,0.253,0.191,0.418,0.298   c-0.291,0.161-0.644,0.318-1.069,0.45c0.59-0.104,0.767,0,0.767,0c0.205-0.104,0.385-0.204,0.545-0.299   c0.16,0.095,0.341,0.195,0.545,0.299c0,0,0.177-0.104,0.767,0c-0.425-0.132-0.778-0.289-1.069-0.45   c0.166-0.107,0.306-0.207,0.419-0.298c1.955-0.17,1.844,0.445,2.493,0.445c0.292,0,0.529-0.203,0.529-0.454   c0-0.17-0.118-0.131-0.118-0.293c0-0.694,1.63-0.326,1.63-1.219c0-0.509-0.652-0.737-0.652-0.921c0-0.567,1.602-0.071,1.602-0.978   c0-0.695-0.638-0.241-0.638-0.779c0-0.458,1.295-0.118,1.295-0.714c0-0.595-0.567-0.34-0.567-0.614   C34.621,14.998,35.481,15.688,35.481,14.903"/>
	<path fill="#FFFFFF" d="M22.677,15.234c2.972,1.366,2.186,3.22,4.518,5.245C25.262,18.735,25.395,16.222,22.677,15.234"/>
	<path fill="#FFFFFF" d="M34.096,15.234c-2.972,1.366-2.186,3.22-4.518,5.245C31.511,18.735,31.378,16.222,34.096,15.234"/>
</g>
</svg>