<?xml version="1.0" encoding="UTF-8" standalone="no"?>
<!-- Created with Inkscape (http://www.inkscape.org/) -->

<svg
   xmlns:dc="http://purl.org/dc/elements/1.1/"
   xmlns:cc="http://creativecommons.org/ns#"
   xmlns:rdf="http://www.w3.org/1999/02/22-rdf-syntax-ns#"
   xmlns:svg="http://www.w3.org/2000/svg"
   xmlns="http://www.w3.org/2000/svg"
   xmlns:sodipodi="http://sodipodi.sourceforge.net/DTD/sodipodi-0.dtd"
   xmlns:inkscape="http://www.inkscape.org/namespaces/inkscape"
   id="svg2"
   version="1.1"
   inkscape:version="0.91 r13725"
   xml:space="preserve"
   width="428.40604"
   height="410"
   viewBox="0 0 428.40604 410"
   sodipodi:docname="Dundalk_FC.svg"><metadata
     id="metadata8"><rdf:RDF><cc:Work
         rdf:about=""><dc:format>image/svg+xml</dc:format><dc:type
           rdf:resource="http://purl.org/dc/dcmitype/StillImage" /><dc:title></dc:title></cc:Work></rdf:RDF></metadata><defs
     id="defs6"><clipPath
       clipPathUnits="userSpaceOnUse"
       id="clipPath16"><path
         d="M 0,600 800,600 800,0 0,0 0,600 Z"
         id="path18"
         inkscape:connector-curvature="0" /></clipPath></defs><sodipodi:namedview
     pagecolor="#ffffff"
     bordercolor="#666666"
     borderopacity="1"
     objecttolerance="10"
     gridtolerance="10"
     guidetolerance="10"
     inkscape:pageopacity="0"
     inkscape:pageshadow="2"
     inkscape:window-width="1920"
     inkscape:window-height="1018"
     id="namedview4"
     showgrid="false"
     fit-margin-top="5"
     fit-margin-left="5"
     fit-margin-bottom="5"
     fit-margin-right="5"
     inkscape:zoom="1.2586667"
     inkscape:cx="205.69016"
     inkscape:cy="138.21422"
     inkscape:window-x="1358"
     inkscape:window-y="-8"
     inkscape:window-maximized="1"
     inkscape:current-layer="g10" /><g
     id="g10"
     inkscape:groupmode="layer"
     inkscape:label="dundalk-fc--current--vector-logo"
     transform="matrix(1.25,0,0,-1.25,-311.02362,605.86398)"><g
       id="g12"
       transform="matrix(1.1371197,0,0,1.1371197,-34.666459,-22.033934)"><g
         id="g4286"><g
           clip-path="url(#clipPath16)"
           id="g14"><g
             transform="translate(526.8203,421.5356)"
             id="g20"><path
               inkscape:connector-curvature="0"
               id="path4282"
               d="m -128.57812,-251.66211 c -9.10689,10.41768 -22.5276,15.888 -34.26563,22.80469 -17.33616,9.56014 -35.65023,17.17708 -53.24609,26.24023 -22.4871,13.48009 -30.4382,42.95442 -24.67969,67.44141 6.37079,41.734424 6.35323,85.987935 -10.14453,125.4140612 -1.99187,4.6774339 -4.43305,8.89643929 -7.14844,13.0957032 36.99032,-11.6117999 79.0703,-14.1495704 114.12891,4.7929687 6.21768,3.4385409 12.20778,7.4209069 17.10547,12.4414059 20.67617,-19.5673699 50.749298,-26.8000184 78.548823,-26.3046871 17.818251,0.2908305 35.609728,3.889712 52.685547,9.0703125 -15.826346,-25.1145554 -20.267991,-56.2146494 -21.169134,-85.4705624 -0.679273,-21.850532 2.379738,-43.633372 5.64179,-65.218892 1.1687157,-22.44078 -8.822943,-46.79814 -29.763672,-57.15039 -27.128613,-12.92504 -54.955703,-24.89699 -79.478514,-42.30078 -2.81494,-2.07128 -5.0754,-4.78967 -6.46484,-8.01367 -0.58334,1.05273 -1.16667,2.10547 -1.75,3.1582 z"
               style="fill:#ffffff;fill-opacity:1;fill-rule:nonzero;stroke:none" /><path
               inkscape:connector-curvature="0"
               id="path22"
               style="fill:#1d1d1b;fill-opacity:1;fill-rule:nonzero;stroke:none"
               d="m 0,0 c -85.542,-24.811 -126.828,17.773 -126.828,17.773 0,0 -41.286,-42.584 -126.828,-17.773 0,0 31.102,-47.768 13.334,-144.417 0,0 -5.553,-44.806 33.694,-60.732 0,0 73.507,-33.324 79.8,-45.545 6.293,12.221 79.8,45.545 79.8,45.545 39.248,15.926 33.694,60.732 33.694,60.732 C -31.103,-47.768 0,0 0,0" /></g><g
             transform="translate(398.5283,201.4492)"
             id="g24"><path
               inkscape:connector-curvature="0"
               id="path26"
               style="fill:#ffffff;fill-opacity:1;fill-rule:nonzero;stroke:none"
               d="m 0,0 c -0.548,1.176 -3.167,3.571 -6.902,6.095 -3.744,2.569 -8.624,5.464 -13.901,8.377 -10.555,5.832 -22.7,11.759 -30.717,15.561 -5.02,2.383 -8.411,3.925 -8.811,4.108 -12.137,4.918 -18.986,13.433 -22.68,21.867 -3.707,8.444 -4.359,16.809 -4.363,21.785 0,2.816 0.214,4.551 0.22,4.604 l 0.006,0.046 0.009,0.049 c 3.01,16.368 4.178,30.88 4.178,43.55 -0.003,41.562 -12.561,63.33 -14.017,65.721 -0.096,0.159 -0.136,0.218 -0.136,0.218 l -2.417,3.713 4.255,-1.234 c 14.65,-4.248 27.554,-5.885 38.758,-5.885 36.028,0.002 54.573,16.929 56.616,18.892 0.135,0.13 0.184,0.18 0.184,0.181 l 1.182,1.218 1.182,-1.218 c 0,0 0.048,-0.051 0.183,-0.181 0.136,-0.131 0.344,-0.328 0.627,-0.583 0.565,-0.508 1.426,-1.246 2.584,-2.135 2.317,-1.78 5.823,-4.17 10.533,-6.566 9.421,-4.791 23.646,-9.607 42.872,-9.608 11.203,0 24.108,1.636 38.757,5.885 l 4.258,1.236 -2.419,-3.715 c 0,0 -0.039,-0.059 -0.137,-0.218 -0.096,-0.159 -0.242,-0.404 -0.432,-0.736 -0.377,-0.664 -0.924,-1.673 -1.583,-3.027 -1.322,-2.709 -3.094,-6.803 -4.872,-12.286 -3.555,-10.97 -7.129,-27.503 -7.13,-49.672 0,-12.67 1.169,-27.182 4.179,-43.55 l 0.009,-0.045 0.006,-0.051 c 0.007,-0.054 0.218,-1.787 0.218,-4.603 C 90.296,72.817 89.645,64.452 85.937,56.008 82.244,47.572 75.394,39.057 63.256,34.139 62.9,33.979 60.313,32.799 56.361,30.937 52.109,28.936 46.291,26.148 40.04,23.014 27.555,16.762 13.266,9.056 6.502,3.654 4.578,2.141 3.292,0.754 2.928,0 L 1.464,-2.841 0,0 Z" /></g><g
             transform="translate(314.6133,283.1816)"
             id="g28"><path
               inkscape:connector-curvature="0"
               id="path30"
               style="fill:#c52722;fill-opacity:1;fill-rule:nonzero;stroke:none"
               d="M 0,0 C -0.017,-0.186 -0.042,-0.463 -0.067,-0.826 -0.116,-1.551 -0.166,-2.615 -0.166,-3.939 -0.169,-8.625 0.471,-16.57 3.919,-24.4 c 3.46,-7.835 9.622,-15.551 20.924,-20.15 l 0.029,-0.013 0.031,-0.013 c 0.013,-0.005 10.809,-4.901 23.374,-11.199 12.581,-6.316 26.864,-13.966 34.115,-19.728 1.181,-0.952 2.185,-1.835 2.987,-2.71 0.802,0.875 1.805,1.758 2.987,2.71 2.08,1.657 4.72,3.448 7.734,5.325 6.025,3.752 13.546,7.836 20.912,11.626 14.729,7.579 28.827,13.97 28.842,13.976 l 0.033,0.015 0.027,0.011 c 11.302,4.598 17.463,12.314 20.924,20.15 3.446,7.83 4.087,15.775 4.083,20.461 0,1.989 -0.111,3.387 -0.165,3.939 -0.011,0.109 -0.019,0.182 -0.023,0.221 -3.039,16.536 -4.223,31.231 -4.223,44.089 -0.002,34.902 8.731,56.256 12.73,64.202 -13.385,-3.553 -25.343,-4.962 -35.88,-4.962 -34.105,0 -53.227,14.757 -57.981,18.966 -4.755,-4.209 -23.877,-18.966 -57.982,-18.966 -10.539,0 -22.497,1.41 -35.88,4.963 C -4.484,100.567 4.248,79.212 4.246,44.31 4.246,31.449 3.062,16.753 0.023,0.213 0.019,0.172 0.011,0.104 0,0" /></g><g
             transform="translate(476.5762,337.9717)"
             id="g32"><path
               inkscape:connector-curvature="0"
               id="path34"
               style="fill:#000000;fill-opacity:1;fill-rule:nonzero;stroke:none"
               d="M 0,0 -0.122,0.864 -0.977,0.69 c -0.002,0 -1.004,-0.203 -2.485,-0.409 -1.48,-0.206 -3.426,-0.41 -5.253,-0.41 -1.368,-0.001 -2.67,0.119 -3.622,0.406 -0.641,0.193 -1.074,0.438 -1.334,0.708 0.524,0.477 1.369,1.297 2.224,2.33 1.361,1.666 2.805,3.867 2.826,6.272 0,0.482 -0.065,0.969 -0.203,1.447 l -0.226,0.783 -0.785,-0.219 c -10e-4,0 -0.097,-0.027 -0.314,-0.076 -0.653,-0.146 -2.284,-0.449 -4.507,-0.449 -4.964,0.011 -12.814,1.476 -19.645,9.531 -0.31,0.676 -1.962,3.621 -6.896,5.244 -0.567,0.694 -2.448,2.944 -4.577,3.907 -0.47,0.854 -2.081,3.732 -4.143,6.787 -2.494,3.641 -5.461,7.532 -8.36,8.664 l -0.042,0.015 -0.045,0.011 c -0.038,0.009 -1.334,0.335 -2.943,0.337 -1.261,-0.005 -2.74,-0.188 -3.967,-1.025 l -0.158,-0.108 -0.093,-0.168 c -0.003,-0.005 -1.197,-2.147 -2.563,-4.285 -0.683,-1.068 -1.409,-2.133 -2.028,-2.903 -0.308,-0.384 -0.593,-0.693 -0.803,-0.879 -0.103,-0.093 -0.189,-0.152 -0.228,-0.173 -0.015,-0.007 -0.015,-0.006 -0.014,-0.007 l 0.085,-0.266 -0.115,-1.351 c 0.001,0 0.295,-0.051 0.757,-0.16 0.693,-0.161 1.743,-0.458 2.551,-0.86 0.404,-0.197 0.743,-0.425 0.939,-0.625 0.202,-0.208 0.239,-0.334 0.24,-0.43 0,-0.032 -0.005,-0.078 -0.025,-0.143 l -0.066,-0.216 0.032,-0.13 c -0.011,-0.32 -0.189,-2.176 -1.545,-9.359 -0.056,-0.229 -0.408,-1.717 -0.409,-3.891 -0.028,-4.685 1.726,-12.719 11.637,-17.599 l 0.023,-0.012 0.026,-0.01 c 0,0 0.081,-0.034 0.259,-0.121 0.62,-0.303 2.235,-1.196 3.662,-2.754 1.426,-1.566 2.667,-3.751 2.671,-6.78 0,-1.668 -0.381,-3.608 -1.361,-5.861 l -0.073,-0.168 0.005,-0.185 c 0.004,-0.047 0.015,-0.623 0.248,-1.289 0.119,-0.333 0.295,-0.7 0.615,-1.023 0.314,-0.324 0.817,-0.573 1.369,-0.566 1.113,0.032 2.195,0.732 3.729,2.341 l 0.04,0.042 0.03,0.045 0.022,0.026 c 0.175,0.213 1.086,1.226 2.733,1.221 1.254,0 3.079,-0.569 5.529,-2.799 l 0.168,-0.154 0.229,-0.045 c 0.031,-0.005 0.544,-0.106 1.198,-0.107 0.489,0.004 1.06,0.045 1.623,0.312 0.565,0.238 1.123,0.921 1.095,1.733 -0.014,0.835 -0.401,1.698 -1.201,2.839 -0.027,0.056 -0.076,0.16 -0.142,0.316 -0.321,0.746 -0.975,2.549 -0.972,4.572 10e-4,1.009 0.158,2.067 0.581,3.099 2.883,-0.763 15.099,-4.759 23.514,-19.877 l 0.122,-0.221 0.227,-0.114 c 0.059,-0.022 0.742,-0.386 1.669,-0.394 l 0.021,0 c 0.524,0 1.172,0.152 1.692,0.647 0.517,0.49 0.83,1.233 0.919,2.202 0.112,0.477 0.748,3.323 0.75,6.526 -0.002,1.755 -0.187,3.622 -0.8,5.29 0.711,0.403 1.882,1.133 3.07,2.156 1.863,1.614 3.847,4.006 3.861,7.115 C 0.071,-0.675 0.047,-0.34 0,0" /></g><g
             transform="translate(410.7764,376.7319)"
             id="g36"><path
               inkscape:connector-curvature="0"
               id="path38"
               style="fill:#ffffff;fill-opacity:1;fill-rule:nonzero;stroke:none"
               d="m 0,0 c 0,0 -2.407,-2.697 -1.562,-2.977 0,0 1.705,-0.711 2.269,0 0,0 0.57,2.269 -0.707,2.977" /></g><g
             transform="translate(439.2979,337.4287)"
             id="g40"><path
               inkscape:connector-curvature="0"
               id="path42"
               style="fill:#fcfcfb;fill-opacity:1;fill-rule:nonzero;stroke:none"
               d="m 0,0 c 0,0 -3.268,-5.395 -0.28,-12.914 0,0 -6.957,4.822 -10.932,-1.275 0,0 2.56,8.652 -0.565,12.627 0,0 -2.127,3.832 -6.81,6.529 0,0 -5.68,2.27 -7.665,8.512 0,0 -1.699,5.818 -1.135,11.353 0,0 1.278,7.092 0.713,9.362 0,0 2.977,2.269 1.135,5.109 0,0 -2.697,2.13 -0.856,3.123 0,0 4.26,2.552 8.373,-4.26 0,0 3.975,-4.54 5.115,-7.237 0,0 2.692,-3.685 4.677,-4.255 0,0 2.413,-0.992 -1.705,-1.135 0,0 -3.543,1.984 -3.399,-3.973 0,0 0,-0.566 -1.844,-1.562 0,0 6.515,-2.41 0.708,-4.679 0,0 0,-13.763 28.237,-11.352 l 0.142,-2.411 c 0,0 -37.041,-2.839 -32.496,20.712 l -1.985,0 C -20.572,22.274 -25.401,2.978 0,0" /></g><g
             transform="translate(436.8848,358.5703)"
             id="g44"><path
               inkscape:connector-curvature="0"
               id="path46"
               style="fill:#ffffff;fill-opacity:1;fill-rule:nonzero;stroke:none"
               d="m 0,0 c 0,0 0.855,2.127 -2.549,2.127 0,0 -4.546,0.571 -4.402,-0.707 0,0 3.689,-3.405 1.704,-3.55 0,0 -2.133,-0.282 -0.57,-2.124 0,0 1.278,-1.141 -1.7,-2.558 0,0 -4.54,-1.842 0.845,-4.255 0,0 0.57,2.27 3.41,1.845 l -0.564,4.252 2.976,-0.14 c 0,0 2.555,0.708 1.278,3.833 0,0 -1.562,1.135 -0.428,1.277" /></g><g
             transform="translate(441.2871,356.0156)"
             id="g48"><path
               inkscape:connector-curvature="0"
               id="path50"
               style="fill:#ffffff;fill-opacity:1;fill-rule:nonzero;stroke:none"
               d="m 0,0 c 0,0 -0.143,-2.27 -4.545,-3.405 0,0 -1.699,-4.542 9.364,-4.4 0,0 0.708,-1.985 2.128,-1.702 0,0 -3.684,-2.273 -11.207,1.135 l -3.827,0 c 0,0 -1.282,-5.25 12.627,-5.11 0,0 7.517,0.14 9.222,2.557 l 0.85,-0.139 c 0,0 0.143,-7.38 -1.42,-8.235 l -12.342,0.57 c 0,0 21.141,-8.515 24.261,-19.867 0,0 2.698,2.27 -0.707,11.78 0,0 6.53,1.702 7.237,6.242 0,0 -9.222,-2.697 -12.204,1.985 0,0 -1.425,2.13 -2.127,2.13 0,0 4.681,2.697 5.532,6.669 0,0 -16.032,-1.562 -22.842,9.79" /></g><g
             transform="translate(414.3232,377.231)"
             id="g52"><path
               inkscape:connector-curvature="0"
               id="path54"
               style="fill:#020102;fill-opacity:1;fill-rule:nonzero;stroke:none"
               d="m 0,0 c 0,-0.71 0.575,-1.283 1.277,-1.283 0.708,0 1.279,0.573 1.279,1.283 0,0.702 -0.571,1.275 -1.279,1.275 C 0.575,1.275 0,0.702 0,0" /></g><g
             transform="translate(430.6035,261.4902)"
             id="g56"><path
               inkscape:connector-curvature="0"
               id="path58"
               style="fill:#000000;fill-opacity:1;fill-rule:nonzero;stroke:none"
               d="M 0,0 -0.122,0.865 -0.978,0.691 c -0.001,0 -1.004,-0.204 -2.484,-0.41 -1.48,-0.205 -3.427,-0.41 -5.253,-0.41 -1.367,0 -2.671,0.119 -3.622,0.406 -0.641,0.194 -1.074,0.439 -1.334,0.709 0.524,0.477 1.369,1.297 2.224,2.33 1.361,1.666 2.805,3.868 2.825,6.272 0,0.482 -0.064,0.969 -0.202,1.447 L -9.05,11.818 -9.835,11.6 c -10e-4,0 -0.096,-0.029 -0.314,-0.077 -0.654,-0.146 -2.284,-0.449 -4.507,-0.449 -4.965,0.01 -12.814,1.475 -19.645,9.531 -0.311,0.675 -1.962,3.621 -6.896,5.244 -0.566,0.694 -2.448,2.944 -4.577,3.907 -0.47,0.854 -2.081,3.731 -4.143,6.787 -2.494,3.641 -5.461,7.532 -8.36,8.664 l -0.042,0.014 -0.045,0.012 c -0.038,0.009 -1.334,0.335 -2.943,0.337 -1.261,-0.005 -2.74,-0.189 -3.967,-1.025 l -0.159,-0.108 -0.092,-0.169 c -0.003,-0.004 -1.197,-2.147 -2.564,-4.285 -0.682,-1.067 -1.408,-2.132 -2.027,-2.903 -0.308,-0.383 -0.593,-0.693 -0.803,-0.879 -0.104,-0.092 -0.19,-0.15 -0.229,-0.172 -0.014,-0.008 -0.014,-0.006 -0.013,-0.008 l 0.085,-0.265 -0.115,-1.352 c 0.001,0 0.294,-0.05 0.757,-0.16 0.693,-0.161 1.743,-0.457 2.551,-0.859 0.404,-0.197 0.742,-0.424 0.939,-0.625 0.201,-0.207 0.238,-0.334 0.239,-0.431 0,-0.031 -0.005,-0.077 -0.024,-0.142 l -0.066,-0.216 0.032,-0.13 c -0.011,-0.321 -0.189,-2.176 -1.545,-9.359 -0.057,-0.229 -0.408,-1.717 -0.409,-3.892 -0.029,-4.684 1.726,-12.719 11.636,-17.598 l 0.023,-0.012 0.027,-0.01 c 0,0 0.081,-0.034 0.259,-0.121 0.62,-0.304 2.235,-1.197 3.662,-2.755 1.426,-1.565 2.667,-3.75 2.671,-6.78 0,-1.668 -0.381,-3.607 -1.362,-5.861 l -0.072,-0.168 0.005,-0.184 c 0.004,-0.046 0.015,-0.624 0.248,-1.29 0.119,-0.332 0.295,-0.7 0.615,-1.023 0.313,-0.323 0.817,-0.573 1.368,-0.565 1.113,0.033 2.196,0.732 3.73,2.341 l 0.039,0.042 0.031,0.044 0.021,0.026 c 0.176,0.214 1.087,1.227 2.734,1.221 1.254,0 3.078,-0.569 5.528,-2.798 l 0.169,-0.154 0.228,-0.046 c 0.032,-0.004 0.544,-0.106 1.199,-0.106 0.489,0.004 1.06,0.045 1.623,0.311 0.565,0.238 1.123,0.921 1.095,1.734 -0.014,0.835 -0.401,1.698 -1.201,2.84 -0.027,0.054 -0.075,0.158 -0.142,0.315 -0.322,0.745 -0.975,2.548 -0.972,4.571 10e-4,1.01 0.158,2.068 0.58,3.1 2.883,-0.763 15.1,-4.76 23.514,-19.877 l 0.123,-0.222 0.227,-0.113 c 0.059,-0.022 0.741,-0.386 1.669,-0.394 l 0.021,0 c 0.524,0 1.172,0.152 1.692,0.647 0.517,0.49 0.83,1.233 0.92,2.201 0.111,0.477 0.747,3.324 0.749,6.527 -0.003,1.754 -0.188,3.622 -0.8,5.29 0.711,0.404 1.882,1.132 3.07,2.156 1.862,1.614 3.847,4.006 3.861,7.113 C 0.071,-0.674 0.047,-0.34 0,0" /></g><g
             transform="translate(364.8037,300.251)"
             id="g60"><path
               inkscape:connector-curvature="0"
               id="path62"
               style="fill:#ffffff;fill-opacity:1;fill-rule:nonzero;stroke:none"
               d="m 0,0 c 0,0 -2.407,-2.696 -1.562,-2.978 0,0 1.705,-0.709 2.269,0 0,0 0.57,2.271 -0.707,2.978" /></g><g
             transform="translate(393.3252,260.9482)"
             id="g64"><path
               inkscape:connector-curvature="0"
               id="path66"
               style="fill:#fcfcfb;fill-opacity:1;fill-rule:nonzero;stroke:none"
               d="m 0,0 c 0,0 -3.269,-5.396 -0.28,-12.915 0,0 -6.958,4.822 -10.933,-1.273 0,0 2.561,8.651 -0.564,12.626 0,0 -2.127,3.833 -6.81,6.53 0,0 -5.68,2.269 -7.665,8.511 0,0 -1.7,5.817 -1.135,11.352 0,0 1.278,7.092 0.713,9.362 0,0 2.977,2.27 1.135,5.11 0,0 -2.697,2.13 -0.856,3.122 0,0 4.26,2.553 8.373,-4.259 0,0 3.975,-4.54 5.115,-7.237 0,0 2.692,-3.686 4.678,-4.255 0,0 2.412,-0.993 -1.707,-1.136 0,0 -3.542,1.986 -3.399,-3.972 0,0 0,-0.567 -1.842,-1.562 0,0 6.514,-2.409 0.707,-4.679 0,0 0,-13.763 28.237,-11.353 l 0.142,-2.41 c 0,0 -37.042,-2.839 -32.496,20.711 l -1.985,0 c 0,0 -4.83,-19.295 20.572,-22.273" /></g><g
             transform="translate(390.9121,282.0898)"
             id="g68"><path
               inkscape:connector-curvature="0"
               id="path70"
               style="fill:#ffffff;fill-opacity:1;fill-rule:nonzero;stroke:none"
               d="m 0,0 c 0,0 0.855,2.127 -2.55,2.127 0,0 -4.545,0.57 -4.402,-0.707 0,0 3.69,-3.405 1.705,-3.55 0,0 -2.133,-0.282 -0.569,-2.125 0,0 1.277,-1.14 -1.702,-2.557 0,0 -4.539,-1.842 0.846,-4.254 0,0 0.569,2.269 3.41,1.843 l -0.565,4.252 2.977,-0.139 c 0,0 2.555,0.708 1.278,3.833 0,0 -1.563,1.134 -0.428,1.277" /></g><g
             transform="translate(395.3145,279.5352)"
             id="g72"><path
               inkscape:connector-curvature="0"
               id="path74"
               style="fill:#ffffff;fill-opacity:1;fill-rule:nonzero;stroke:none"
               d="m 0,0 c 0,0 -0.143,-2.27 -4.545,-3.405 0,0 -1.7,-4.542 9.364,-4.4 0,0 0.707,-1.985 2.128,-1.703 0,0 -3.684,-2.272 -11.207,1.135 l -3.827,0 c 0,0 -1.283,-5.249 12.627,-5.109 0,0 7.517,0.14 9.222,2.557 l 0.85,-0.139 c 0,0 0.143,-7.381 -1.421,-8.235 l -12.34,0.57 c 0,0 21.141,-8.515 24.26,-19.867 0,0 2.698,2.27 -0.708,11.78 0,0 6.531,1.702 7.238,6.242 0,0 -9.222,-2.697 -12.204,1.984 0,0 -1.425,2.131 -2.127,2.131 0,0 4.682,2.697 5.532,6.669 0,0 -16.032,-1.563 -22.842,9.79" /></g><g
             transform="translate(368.3506,300.75)"
             id="g76"><path
               inkscape:connector-curvature="0"
               id="path78"
               style="fill:#020102;fill-opacity:1;fill-rule:nonzero;stroke:none"
               d="m 0,0 c 0,-0.71 0.576,-1.283 1.277,-1.283 0.708,0 1.279,0.573 1.279,1.283 0,0.702 -0.571,1.275 -1.279,1.275 C 0.576,1.275 0,0.702 0,0" /></g><g
             transform="translate(397.1201,334.5664)"
             id="g80"><path
               inkscape:connector-curvature="0"
               id="path82"
               style="fill:#000000;fill-opacity:1;fill-rule:nonzero;stroke:none"
               d="M 0,0 -0.123,0.864 -0.978,0.69 c -0.001,0 -1.003,-0.203 -2.484,-0.409 -1.48,-0.206 -3.427,-0.41 -5.253,-0.41 -1.368,-0.001 -2.671,0.119 -3.622,0.406 -0.642,0.193 -1.074,0.438 -1.334,0.708 0.524,0.477 1.369,1.297 2.224,2.33 1.361,1.666 2.805,3.868 2.825,6.272 0,0.482 -0.064,0.969 -0.202,1.448 l -0.226,0.783 -0.785,-0.219 c -10e-4,0 -0.097,-0.028 -0.314,-0.077 -0.654,-0.145 -2.285,-0.449 -4.507,-0.449 -4.965,0.011 -12.814,1.476 -19.645,9.532 -0.311,0.675 -1.962,3.62 -6.896,5.243 -0.566,0.694 -2.448,2.944 -4.577,3.907 -0.47,0.854 -2.081,3.731 -4.143,6.787 -2.494,3.642 -5.461,7.533 -8.36,8.664 l -0.043,0.015 -0.044,0.011 c -0.038,0.009 -1.334,0.335 -2.943,0.337 -1.261,-0.005 -2.74,-0.189 -3.967,-1.025 l -0.159,-0.108 -0.092,-0.169 c -0.003,-0.003 -1.197,-2.146 -2.564,-4.284 -0.682,-1.068 -1.408,-2.133 -2.027,-2.903 -0.308,-0.384 -0.593,-0.693 -0.803,-0.879 -0.104,-0.093 -0.19,-0.152 -0.229,-0.173 -0.014,-0.007 -0.014,-0.005 -0.013,-0.007 l 0.085,-0.266 -0.115,-1.351 c 0.001,0 0.294,-0.051 0.757,-0.16 0.693,-0.161 1.743,-0.458 2.551,-0.86 0.404,-0.197 0.742,-0.424 0.939,-0.625 0.201,-0.208 0.238,-0.334 0.239,-0.43 0,-0.032 -0.005,-0.078 -0.024,-0.143 l -0.066,-0.216 0.032,-0.13 c -0.011,-0.321 -0.189,-2.176 -1.545,-9.359 -0.057,-0.229 -0.408,-1.717 -0.409,-3.892 -0.029,-4.684 1.726,-12.718 11.636,-17.598 l 0.023,-0.011 0.027,-0.011 c 0,0 0.081,-0.034 0.259,-0.121 0.62,-0.303 2.235,-1.196 3.661,-2.754 1.427,-1.565 2.668,-3.751 2.672,-6.78 0,-1.668 -0.381,-3.608 -1.362,-5.861 l -0.072,-0.168 0.005,-0.185 c 0.004,-0.047 0.015,-0.623 0.248,-1.289 0.119,-0.333 0.295,-0.7 0.615,-1.023 0.313,-0.324 0.817,-0.573 1.368,-0.566 1.113,0.032 2.196,0.732 3.73,2.341 l 0.039,0.043 0.031,0.044 0.021,0.026 c 0.176,0.213 1.087,1.227 2.734,1.221 1.254,0 3.078,-0.569 5.528,-2.799 l 0.169,-0.154 0.228,-0.045 c 0.032,-0.005 0.544,-0.107 1.199,-0.107 0.489,0.004 1.06,0.045 1.623,0.312 0.565,0.238 1.123,0.921 1.095,1.733 -0.014,0.835 -0.401,1.699 -1.201,2.839 -0.027,0.056 -0.076,0.16 -0.142,0.316 -0.322,0.746 -0.975,2.549 -0.972,4.572 10e-4,1.01 0.158,2.067 0.58,3.1 2.883,-0.763 15.1,-4.76 23.514,-19.877 l 0.123,-0.222 0.227,-0.113 c 0.059,-0.023 0.741,-0.387 1.669,-0.395 l 0.021,0 c 0.524,0 1.172,0.152 1.692,0.647 0.517,0.49 0.83,1.233 0.919,2.202 0.112,0.477 0.748,3.323 0.75,6.526 -0.003,1.755 -0.188,3.622 -0.8,5.29 0.711,0.403 1.882,1.133 3.07,2.156 1.863,1.614 3.847,4.006 3.861,7.115 C 0.071,-0.675 0.047,-0.34 0,0" /></g><g
             transform="translate(331.3203,373.3267)"
             id="g84"><path
               inkscape:connector-curvature="0"
               id="path86"
               style="fill:#ffffff;fill-opacity:1;fill-rule:nonzero;stroke:none"
               d="m 0,0 c 0,0 -2.407,-2.697 -1.562,-2.977 0,0 1.704,-0.711 2.269,0 0,0 0.57,2.27 -0.707,2.977" /></g><g
             transform="translate(359.8418,334.0239)"
             id="g88"><path
               inkscape:connector-curvature="0"
               id="path90"
               style="fill:#fcfcfb;fill-opacity:1;fill-rule:nonzero;stroke:none"
               d="m 0,0 c 0,0 -3.269,-5.395 -0.28,-12.915 0,0 -6.958,4.823 -10.933,-1.274 0,0 2.561,8.651 -0.564,12.627 0,0 -2.127,3.832 -6.81,6.529 0,0 -5.68,2.27 -7.665,8.512 0,0 -1.7,5.817 -1.135,11.352 0,0 1.278,7.092 0.712,9.362 0,0 2.978,2.269 1.136,5.11 0,0 -2.697,2.13 -0.856,3.122 0,0 4.26,2.553 8.373,-4.26 0,0 3.975,-4.54 5.115,-7.237 0,0 2.692,-3.684 4.678,-4.255 0,0 2.412,-0.992 -1.707,-1.135 0,0 -3.542,1.985 -3.399,-3.972 0,0 0,-0.567 -1.842,-1.562 0,0 6.514,-2.41 0.707,-4.68 0,0 0,-13.762 28.237,-11.352 l 0.142,-2.41 c 0,0 -37.042,-2.84 -32.496,20.711 l -1.985,0 c 0,0 -4.83,-19.296 20.572,-22.273" /></g><g
             transform="translate(357.4287,355.165)"
             id="g92"><path
               inkscape:connector-curvature="0"
               id="path94"
               style="fill:#ffffff;fill-opacity:1;fill-rule:nonzero;stroke:none"
               d="m 0,0 c 0,0 0.855,2.127 -2.55,2.127 0,0 -4.545,0.57 -4.402,-0.707 0,0 3.69,-3.405 1.705,-3.55 0,0 -2.133,-0.282 -0.569,-2.125 0,0 1.277,-1.14 -1.702,-2.557 0,0 -4.539,-1.842 0.846,-4.255 0,0 0.569,2.27 3.41,1.845 l -0.565,4.252 2.977,-0.14 c 0,0 2.555,0.708 1.278,3.833 0,0 -1.563,1.134 -0.428,1.277" /></g><g
             transform="translate(361.8311,352.6104)"
             id="g96"><path
               inkscape:connector-curvature="0"
               id="path98"
               style="fill:#ffffff;fill-opacity:1;fill-rule:nonzero;stroke:none"
               d="m 0,0 c 0,0 -0.143,-2.27 -4.545,-3.405 0,0 -1.7,-4.542 9.364,-4.4 0,0 0.707,-1.985 2.128,-1.702 0,0 -3.684,-2.273 -11.207,1.135 l -3.827,0 c 0,0 -1.283,-5.25 12.627,-5.11 0,0 7.517,0.14 9.222,2.558 l 0.85,-0.14 c 0,0 0.143,-7.38 -1.421,-8.235 l -12.341,0.57 c 0,0 21.141,-8.515 24.261,-19.867 0,0 2.698,2.27 -0.707,11.78 0,0 6.53,1.702 7.237,6.242 0,0 -9.222,-2.697 -12.204,1.985 0,0 -1.425,2.13 -2.127,2.13 0,0 4.681,2.697 5.532,6.669 0,0 -16.032,-1.562 -22.842,9.79" /></g><g
             transform="translate(334.8672,373.8257)"
             id="g100"><path
               inkscape:connector-curvature="0"
               id="path102"
               style="fill:#020102;fill-opacity:1;fill-rule:nonzero;stroke:none"
               d="m 0,0 c 0,-0.71 0.576,-1.283 1.277,-1.283 0.708,0 1.279,0.573 1.279,1.283 0,0.702 -0.571,1.275 -1.279,1.275 C 0.576,1.275 0,0.702 0,0" /></g><g
             transform="translate(487.5879,179.6582)"
             id="g104"><path
               inkscape:connector-curvature="0"
               id="path106"
               style="fill:#ffffff;fill-opacity:1;fill-rule:nonzero;stroke:none"
               d="m 0,0 -0.387,0.519 0.414,0.497 c 2.997,3.601 3.661,7.521 3.663,10.323 10e-4,1.517 -0.196,2.694 -0.32,3.278 -33.186,11.252 -64.229,15.052 -90.966,15.052 -26.737,0 -57.78,-3.8 -90.966,-15.052 -0.034,-0.153 -0.071,-0.346 -0.108,-0.576 -0.106,-0.648 -0.214,-1.582 -0.214,-2.701 0.002,-2.803 0.666,-6.723 3.663,-10.323 L -174.806,0.52 -175.192,0 c -0.065,-0.084 -14.115,-18.953 -41.807,-18.967 -2.48,0 -5.069,0.153 -7.766,0.483 l -1.4,0.172 13.325,17.958 -21.929,11.61 3.921,-0.297 c 0.002,0.002 0.789,-0.059 2.199,-0.059 5.844,-0.012 21.96,1.109 32.654,12.037 -0.017,0.157 -0.045,0.368 -0.096,0.629 -0.123,0.645 -0.371,1.598 -0.879,2.782 -1.015,2.367 -3.064,5.665 -7.233,9.281 l -0.032,0.027 -0.033,0.034 c -0.067,0.078 -0.901,0.983 -0.911,2.531 -0.007,1.21 0.561,2.705 2.184,4.223 1.626,1.529 4.302,3.146 8.685,4.792 0.062,0.022 43.918,16.815 106.714,16.816 62.794,-0.001 106.653,-16.794 106.708,-16.814 4.389,-1.647 7.065,-3.263 8.69,-4.794 1.624,-1.518 2.19,-3.013 2.183,-4.223 -0.007,-1.548 -0.842,-2.453 -0.909,-2.531 l -0.03,-0.033 -0.034,-0.028 C 21.914,29.468 20.95,24.242 20.804,22.937 31.497,12.01 47.612,10.887 53.458,10.898 c 1.408,0 2.194,0.061 2.197,0.061 l 3.938,0.303 -21.947,-11.616 13.328,-17.96 -1.403,-0.17 c -2.696,-0.33 -5.285,-0.483 -7.765,-0.483 C 14.113,-18.953 0.064,-0.084 0,0" /></g><g
             transform="translate(489.5225,179.8789)"
             id="g108"><path
               inkscape:connector-curvature="0"
               id="path110"
               style="fill:#1d1d1b;fill-opacity:1;fill-rule:nonzero;stroke:none"
               d="m 0,0 c 0.421,-0.494 1.055,-1.207 1.902,-2.064 1.695,-1.715 4.24,-4.01 7.625,-6.304 6.775,-4.587 16.892,-9.175 30.344,-9.175 1.978,0 4.029,0.1 6.154,0.313 L 33.254,-0.016 50.38,9.049 C 43.557,9.203 28.068,10.789 17.431,21.84 l -0.229,0.238 0,0.33 c -0.012,0.184 0.098,6.69 8.751,14.199 0.008,0.011 0.018,0.024 0.029,0.04 0.042,0.06 0.107,0.154 0.17,0.281 0.128,0.252 0.256,0.616 0.256,1.072 -0.006,0.707 -0.284,1.713 -1.668,3.027 -1.381,1.307 -3.877,2.856 -8.145,4.453 -10e-4,0.001 -0.667,0.256 -1.979,0.711 -1.31,0.457 -3.256,1.108 -5.788,1.891 -5.063,1.565 -12.472,3.654 -21.835,5.744 -18.726,4.182 -45.272,8.362 -76.523,8.362 -54.69,10e-4 -94.972,-12.807 -104.148,-15.997 -1.31,-0.455 -1.976,-0.71 -1.984,-0.712 -4.264,-1.597 -6.758,-3.145 -8.14,-4.452 -1.384,-1.314 -1.662,-2.32 -1.669,-3.027 -0.004,-0.738 0.354,-1.262 0.455,-1.391 8.656,-7.511 8.764,-14.017 8.752,-14.201 l 0,-0.33 -0.228,-0.238 C -207.132,10.787 -222.623,9.203 -229.443,9.049 l 17.129,-9.065 -12.774,-17.214 c 2.124,-0.213 4.176,-0.313 6.154,-0.313 23.524,-0.008 36.92,14.066 39.872,17.543 0.083,0.099 0.158,0.187 0.224,0.269 -2.951,3.827 -3.625,7.932 -3.623,10.85 0,2.447 0.466,4.084 0.48,4.137 l 0.118,0.412 0.407,0.139 c 33.538,11.428 64.917,15.285 91.926,15.285 27.008,0 58.387,-3.857 91.925,-15.285 l 0.406,-0.139 0.12,-0.414 C 2.935,15.203 3.398,13.565 3.399,11.118 3.401,8.201 2.727,4.096 -0.224,0.268 -0.158,0.187 -0.083,0.099 0,0" /></g><g
             transform="translate(309.085,208.8408)"
             id="g112"><path
               inkscape:connector-curvature="0"
               id="path114"
               style="fill:#ffffff;fill-opacity:1;fill-rule:nonzero;stroke:none"
               d="m 0,0 -3.419,14.017 c -0.06,0.242 -0.161,0.41 -0.305,0.515 -0.148,0.099 -0.38,0.156 -0.687,0.164 l -0.098,0.39 8.732,2.134 c 1.976,0.478 3.558,0.574 4.743,0.277 1.497,-0.359 2.764,-1.174 3.808,-2.432 0.912,-1.102 1.56,-2.449 1.952,-4.041 C 15.183,9.139 15.175,7.417 14.685,5.851 14.246,4.454 13.525,3.361 12.528,2.558 11.526,1.753 10.105,1.13 8.256,0.679 l -8.732,-2.129 -0.097,0.39 c 0.278,0.15 0.452,0.303 0.54,0.457 C 0.045,-0.442 0.054,-0.243 0,0 m 1.814,0.784 5.982,1.453 c 1.761,0.43 2.99,1.015 3.709,1.764 0.849,0.893 1.341,2.059 1.483,3.506 0.094,0.961 0.007,1.974 -0.249,3.027 -0.468,1.924 -1.344,3.402 -2.635,4.416 -0.711,0.565 -1.485,0.893 -2.335,1.002 -0.851,0.094 -1.922,-0.01 -3.234,-0.336 L -1.45,14.163 1.814,0.784 Z" /></g><g
             transform="translate(328.7285,227.9883)"
             id="g116"><path
               inkscape:connector-curvature="0"
               id="path118"
               style="fill:#ffffff;fill-opacity:1;fill-rule:nonzero;stroke:none"
               d="m 0,0 1.663,-9.277 c 0.193,-1.102 0.389,-1.856 0.587,-2.287 0.193,-0.421 0.496,-0.768 0.916,-1.028 1.018,-0.637 2.718,-0.735 5.111,-0.305 2.6,0.467 4.226,1.233 4.872,2.305 0.208,0.356 0.328,0.757 0.339,1.205 0.013,0.449 -0.071,1.178 -0.253,2.184 L 11.578,2.07 c -0.061,0.338 -0.157,0.559 -0.285,0.69 -0.139,0.127 -0.365,0.199 -0.688,0.222 l -0.071,0.395 3.321,0.59 0.072,-0.385 C 13.632,3.448 13.442,3.31 13.364,3.146 13.287,2.98 13.277,2.728 13.339,2.391 l 1.723,-9.659 c 0.214,-1.192 0.258,-2.115 0.147,-2.781 -0.229,-1.189 -0.882,-2.156 -1.964,-2.881 -1.082,-0.742 -2.661,-1.293 -4.738,-1.666 -3.111,-0.556 -5.346,-0.336 -6.704,0.663 -0.552,0.404 -0.978,0.89 -1.273,1.48 -0.295,0.588 -0.538,1.4 -0.725,2.449 l -1.729,9.658 c -0.055,0.343 -0.157,0.575 -0.285,0.7 C -2.342,0.48 -2.568,0.553 -2.891,0.57 L -2.968,0.961 0.521,1.588 0.594,1.187 C 0.299,1.054 0.11,0.91 0.032,0.74 -0.052,0.582 -0.06,0.333 0,0" /></g><g
             transform="translate(349.8086,230.7734)"
             id="g120"><path
               inkscape:connector-curvature="0"
               id="path122"
               style="fill:#ffffff;fill-opacity:1;fill-rule:nonzero;stroke:none"
               d="m 0,0 1.544,-13.313 c 0.039,-0.337 0.126,-0.576 0.248,-0.71 0.128,-0.131 0.35,-0.22 0.672,-0.264 l 0.046,-0.391 -3.365,-0.394 -0.045,0.39 c 0.315,0.123 0.515,0.256 0.604,0.411 0.088,0.154 0.108,0.406 0.068,0.755 L -1.856,0.471 C -1.896,0.82 -1.978,1.057 -2.104,1.193 -2.227,1.324 -2.449,1.406 -2.776,1.447 L -2.822,1.837 2.041,2.4 2.086,2.01 C 1.713,1.828 1.546,1.627 1.573,1.385 1.59,1.221 1.819,0.932 2.267,0.523 L 13.843,-10.214 12.405,2.129 c -0.04,0.348 -0.125,0.59 -0.248,0.715 -0.122,0.136 -0.349,0.22 -0.673,0.26 l -0.044,0.39 3.371,0.395 0.04,-0.391 C 14.539,3.385 14.345,3.251 14.251,3.098 14.163,2.938 14.133,2.685 14.178,2.342 l 1.628,-13.998 c 0.04,-0.348 0.12,-0.58 0.254,-0.711 0.117,-0.131 0.338,-0.214 0.672,-0.26 l 0.044,-0.39 -3.913,-0.456 -0.045,0.391 c 0.369,0.14 0.541,0.33 0.508,0.574 -0.017,0.18 -0.23,0.463 -0.618,0.834 L 0,0 Z" /></g><g
             transform="translate(371.0391,219.4102)"
             id="g124"><path
               inkscape:connector-curvature="0"
               id="path126"
               style="fill:#ffffff;fill-opacity:1;fill-rule:nonzero;stroke:none"
               d="m 0,0 -0.792,14.4 c -0.013,0.248 -0.088,0.438 -0.205,0.564 -0.127,0.126 -0.339,0.22 -0.641,0.291 l -0.024,0.4 8.976,0.499 c 2.032,0.111 3.606,-0.089 4.718,-0.588 1.399,-0.633 2.499,-1.66 3.291,-3.095 C 16.019,11.214 16.409,9.775 16.5,8.135 16.609,6.203 16.279,4.512 15.519,3.061 14.831,1.777 13.925,0.826 12.79,0.221 11.664,-0.389 10.146,-0.748 8.247,-0.852 l -8.976,-0.494 -0.019,0.407 c 0.295,0.102 0.495,0.22 0.604,0.357 C -0.033,-0.443 0.013,-0.248 0,0 m 1.935,0.432 6.147,0.336 c 1.799,0.097 3.116,0.449 3.967,1.058 0.992,0.719 1.692,1.78 2.099,3.172 0.268,0.931 0.371,1.939 0.305,3.027 -0.104,1.973 -0.697,3.584 -1.777,4.822 -0.592,0.682 -1.297,1.153 -2.112,1.41 -0.815,0.253 -1.892,0.345 -3.238,0.272 L 1.174,14.188 1.935,0.432 Z" /></g><g
             transform="translate(402.4854,223.875)"
             id="g128"><path
               inkscape:connector-curvature="0"
               id="path130"
               style="fill:#ffffff;fill-opacity:1;fill-rule:nonzero;stroke:none"
               d="m 0,0 -9.107,-0.014 -1.501,-3.242 c -0.135,-0.307 -0.213,-0.523 -0.212,-0.644 0.002,-0.254 0.246,-0.422 0.737,-0.502 l 0.004,-0.402 -3.786,-0.007 -0.003,0.402 c 0.338,0.055 0.596,0.183 0.773,0.375 0.184,0.197 0.418,0.604 0.703,1.251 l 6.21,13.459 c 0.152,0.323 0.229,0.546 0.228,0.662 -0.002,0.217 -0.203,0.379 -0.61,0.486 l 0.002,0.406 4.138,0.01 -0.002,-0.412 c -0.406,-0.129 -0.61,-0.31 -0.609,-0.521 0.001,-0.096 0.076,-0.295 0.226,-0.621 L 3.188,-2.272 C 3.629,-3.225 3.929,-3.783 4.066,-3.95 4.211,-4.119 4.513,-4.252 4.988,-4.371 L 4.991,-4.777 0.958,-4.785 0.955,-4.379 c 0.485,0.067 0.728,0.254 0.73,0.549 0,0.132 -0.097,0.389 -0.281,0.773 L 0,0 Z m -0.726,1.621 -3.851,8.402 -3.814,-8.412 7.665,0.01 z" /></g><g
             transform="translate(412.0752,220.4766)"
             id="g132"><path
               inkscape:connector-curvature="0"
               id="path134"
               style="fill:#ffffff;fill-opacity:1;fill-rule:nonzero;stroke:none"
               d="m 0,0 10.863,-0.516 c 0.348,-0.019 0.601,0.026 0.753,0.127 0.148,0.102 0.267,0.303 0.355,0.621 l 0.407,-0.019 -0.156,-3.211 -0.402,0.019 c -0.06,0.311 -0.157,0.532 -0.3,0.642 -0.144,0.12 -0.387,0.181 -0.736,0.2 l -13.608,0.644 0.023,0.413 c 0.322,0.064 0.543,0.168 0.648,0.3 0.115,0.138 0.176,0.382 0.195,0.729 l 0.673,14.053 c 0.013,0.353 -0.027,0.602 -0.133,0.743 -0.096,0.147 -0.303,0.273 -0.614,0.366 L -2.01,15.517 1.529,15.348 1.511,14.946 C 1.194,14.875 0.974,14.773 0.858,14.641 0.748,14.508 0.677,14.265 0.663,13.91 L 0,0 Z" /></g><g
             transform="translate(429.9102,224.3301)"
             id="g136"><path
               inkscape:connector-curvature="0"
               id="path138"
               style="fill:#ffffff;fill-opacity:1;fill-rule:nonzero;stroke:none"
               d="m 0,0 -0.49,-5.05 c -0.03,-0.333 -0.001,-0.581 0.095,-0.738 0.091,-0.158 0.297,-0.288 0.599,-0.407 l -0.039,-0.381 -3.545,0.344 0.039,0.385 c 0.327,0.05 0.548,0.146 0.669,0.274 0.12,0.133 0.197,0.371 0.238,0.719 l 1.353,14.02 c 0.035,0.35 0.007,0.604 -0.084,0.761 -0.102,0.147 -0.298,0.282 -0.606,0.391 L -1.73,10.703 1.809,10.365 1.774,9.969 C 1.447,9.92 1.227,9.828 1.106,9.7 0.98,9.572 0.908,9.329 0.874,8.98 L 0.187,1.934 10.022,8.209 c 0.353,0.213 0.537,0.405 0.551,0.559 0.015,0.189 -0.135,0.315 -0.44,0.392 l 0.038,0.391 4.47,-0.432 -0.035,-0.391 C 14.1,8.74 13.594,8.588 13.079,8.263 L 5.675,3.59 12.328,-6.75 c 0.166,-0.254 0.315,-0.421 0.469,-0.52 0.149,-0.088 0.382,-0.161 0.704,-0.21 l -0.04,-0.391 -4.126,0.402 0.04,0.391 c 0.358,0.045 0.548,0.151 0.563,0.31 0.009,0.1 -0.141,0.401 -0.461,0.905 L 4.1,2.586 0,0 Z" /></g><g
             transform="translate(457.0762,230.0303)"
             id="g140"><path
               inkscape:connector-curvature="0"
               id="path142"
               style="fill:#ffffff;fill-opacity:1;fill-rule:nonzero;stroke:none"
               d="m 0,0 -0.95,-5.729 7.293,-1.208 c 0.344,-0.066 0.602,-0.042 0.761,0.038 0.163,0.08 0.309,0.276 0.433,0.578 l 0.392,-0.066 -0.532,-3.192 -0.39,0.06 c -0.019,0.332 -0.1,0.559 -0.222,0.69 -0.128,0.131 -0.361,0.23 -0.704,0.28 l -7.299,1.213 -1.061,-6.411 c -0.061,-0.35 -0.043,-0.597 0.031,-0.754 0.086,-0.152 0.282,-0.305 0.59,-0.439 l -0.062,-0.387 -3.529,0.582 0.06,0.391 c 0.333,0.035 0.564,0.099 0.69,0.226 0.131,0.117 0.224,0.356 0.285,0.699 l 2.3,13.907 c 0.06,0.342 0.048,0.595 -0.037,0.753 -0.081,0.165 -0.278,0.305 -0.579,0.434 l 0.065,0.392 13.674,-2.27 c 0.343,-0.056 0.591,-0.044 0.754,0.037 0.164,0.086 0.305,0.282 0.433,0.583 l 0.392,-0.059 -0.53,-3.202 -0.391,0.07 c -0.024,0.326 -0.095,0.558 -0.217,0.689 -0.128,0.131 -0.361,0.219 -0.71,0.285 L 0,0 Z" /></g><g
             transform="translate(469.0234,214.7461)"
             id="g144"><path
               inkscape:connector-curvature="0"
               id="path146"
               style="fill:#ffffff;fill-opacity:1;fill-rule:nonzero;stroke:none"
               d="M 0,0 C 0.382,-0.07 0.667,-0.264 0.876,-0.574 1.084,-0.889 1.145,-1.227 1.073,-1.607 1.002,-1.967 0.814,-2.242 0.499,-2.456 0.184,-2.67 -0.159,-2.74 -0.514,-2.664 -0.883,-2.598 -1.17,-2.4 -1.383,-2.09 c -0.209,0.316 -0.28,0.653 -0.208,1.012 0.07,0.37 0.259,0.656 0.569,0.87 C -0.717,-0.005 -0.381,0.071 0,0" /></g><g
             transform="translate(494.9971,222.3799)"
             id="g148"><path
               inkscape:connector-curvature="0"
               id="path150"
               style="fill:#ffffff;fill-opacity:1;fill-rule:nonzero;stroke:none"
               d="m 0,0 -2.509,-2.567 -0.282,0.271 c 0.136,0.224 0.214,0.409 0.244,0.545 0.083,0.329 -0.339,0.865 -1.252,1.617 -1.259,1.036 -2.731,1.744 -4.413,2.155 -2.264,0.532 -4.252,0.343 -5.95,-0.573 -1.735,-0.936 -2.844,-2.418 -3.325,-4.437 -0.482,-2.02 -0.13,-3.865 1.039,-5.551 1.131,-1.645 2.749,-2.715 4.864,-3.211 2.063,-0.497 4.024,-0.33 5.887,0.496 0.837,0.371 1.289,0.676 1.34,0.899 0.025,0.11 0.003,0.316 -0.074,0.605 l 0.348,0.162 1.537,-3.136 -0.367,-0.171 c -0.171,0.257 -0.335,0.404 -0.483,0.44 -0.085,0.019 -0.264,-0.029 -0.517,-0.147 -0.879,-0.38 -1.595,-0.656 -2.153,-0.818 -0.553,-0.162 -1.149,-0.273 -1.777,-0.33 -1.298,-0.125 -2.681,-0.02 -4.126,0.329 -2.792,0.66 -4.876,1.976 -6.252,3.944 -1.456,2.059 -1.879,4.347 -1.281,6.875 0.472,1.983 1.458,3.563 2.948,4.752 2.336,1.844 5.299,2.351 8.884,1.497 2.364,-0.565 4.511,-1.737 6.429,-3.518 0.128,-0.115 0.219,-0.177 0.276,-0.193 0.107,-0.025 0.332,0.082 0.679,0.327 L 0,0 Z" /></g><g
             transform="translate(497.209,208.0332)"
             id="g152"><path
               inkscape:connector-curvature="0"
               id="path154"
               style="fill:#ffffff;fill-opacity:1;fill-rule:nonzero;stroke:none"
               d="M 0,0 C 0.366,-0.109 0.637,-0.328 0.812,-0.65 0.995,-0.98 1.029,-1.324 0.927,-1.687 0.823,-2.043 0.604,-2.309 0.272,-2.49 c -0.335,-0.182 -0.674,-0.221 -1.028,-0.117 -0.355,0.101 -0.631,0.321 -0.803,0.658 -0.186,0.331 -0.22,0.674 -0.123,1.023 0.103,0.36 0.312,0.625 0.639,0.807 C -0.718,0.062 -0.369,0.098 0,0" /></g></g></g></g></g></svg>