<?xml version="1.0" encoding="utf-8"?>
<!-- Generator: Adobe Illustrator 16.0.0, SVG Export Plug-In . SVG Version: 6.00 Build 0)  -->
<!DOCTYPE svg PUBLIC "-//W3C//DTD SVG 1.1//EN" "http://www.w3.org/Graphics/SVG/1.1/DTD/svg11.dtd">
<svg version="1.1" id="Layer_1" xmlns="http://www.w3.org/2000/svg" xmlns:xlink="http://www.w3.org/1999/xlink" x="0px" y="0px"
	 width="960px" height="560px" viewBox="0 0 960 560" enable-background="new 0 0 960 560" xml:space="preserve">
<path style="fill:#fff;" d="M650.688,86.029H309.316c-19.327,0-35.051,15.725-35.051,35.052v205.833c0,19.327,15.725,35.052,35.051,35.052h341.371
	c19.327,0,35.052-15.725,35.052-35.052V121.081C685.739,101.754,670.015,86.029,650.688,86.029z M667.819,273.016h-35.638V174.98
	h35.638V273.016z M471.04,262.098c-17.288-4.063-30.218-19.583-30.218-38.098c0-18.521,12.93-34.039,30.218-38.107V262.098z
	 M488.96,185.893c17.297,4.068,30.222,19.586,30.222,38.107c0,18.516-12.925,34.035-30.222,38.098V185.893z M292.185,174.98h36.297
	v98.04h-36.297V174.98z M292.185,326.919v-35.979h45.257c4.946,0,8.96-4.014,8.96-8.959v-25.68
	c15.102-3.181,26.204-16.634,26.204-32.301c0-15.743-11.075-29.143-26.204-32.314V166.02c0-4.946-4.014-8.96-8.96-8.96h-45.257
	v-35.974c0-9.444,7.683-17.131,17.131-17.131H471.04v63.723c-27.229,4.319-48.138,27.888-48.138,56.323
	c0,28.43,20.908,51.995,48.138,56.318v63.733H309.312C299.868,344.051,292.185,336.363,292.185,326.919z M346.397,210.533
	c4.946,2.513,8.284,7.625,8.284,13.467c0,5.811-3.347,10.927-8.284,13.449V210.533L346.397,210.533z M650.688,344.051H488.96
	v-63.733c27.229-4.323,48.142-27.888,48.142-56.318c0-28.435-20.912-52.004-48.142-56.327v-63.724h161.728
	c9.439,0,17.132,7.688,17.132,17.132v35.974h-44.599c-4.95,0-8.96,4.014-8.96,8.96v25.688
	c-15.065,3.186-26.208,16.702-26.208,32.292c0,15.555,11.146,29.093,26.208,32.283v25.692c0,4.946,4.01,8.961,8.96,8.961h44.599
	v35.979C667.819,336.363,660.127,344.051,650.688,344.051z M614.261,237.422c-4.928-2.531-8.288-7.661-8.288-13.422
	c0-5.779,3.36-10.913,8.288-13.436V237.422z"/>
</svg>
