<?xml version="1.0" encoding="utf-8"?>
<!-- Generator: Adobe Illustrator 13.0.0, SVG Export Plug-In . SVG Version: 6.00 Build 14948)  -->
<!DOCTYPE svg PUBLIC "-//W3C//DTD SVG 1.0//EN" "http://www.w3.org/TR/2001/REC-SVG-20010904/DTD/svg10.dtd">
<svg version="1.0" id="HQFL" xmlns="http://www.w3.org/2000/svg" xmlns:xlink="http://www.w3.org/1999/xlink" x="0px" y="0px"
	 width="376.986px" height="331.241px" viewBox="0 0 376.986 331.241" enable-background="new 0 0 376.986 331.241"
	 xml:space="preserve">
<g>
	<path fill="#FFFFFF" d="M312.038,192.197c5.337-16.862,7.367-35.057,5.399-53.771l22.484,18.912l20.925-23.474
		c2.616,24.877-0.082,49.071-7.178,71.486L312.038,192.197z"/>
	<path fill="#FFFFFF" d="M64.945,192.197c-5.337-16.862-7.367-35.058-5.4-53.771l-22.484,18.913l-20.926-23.475
		c-2.614,24.877,0.083,49.072,7.179,71.487L64.945,192.197z"/>
	<path fill="#118528" d="M357.861,131.203c0,0-14.366,16.116-18.339,20.573c-4.479-3.767-27.101-22.794-27.101-22.794l1.038,9.863
		c1.865,17.745,0.104,35.28-5.236,52.147l-1.208,3.815l49.261,15.563l1.207-3.811c7.485-23.654,9.956-48.241,7.342-73.112
		l-0.945-8.995L357.861,131.203z M342.908,160c0,0,8.54-9.581,14.688-16.476c0.157,3.027,0.239,6.049,0.239,9.064
		c0,16.175-2.31,32.148-6.846,47.722c-5.766-1.822-28.597-9.036-34.076-10.768c3.445-12.097,5.267-24.468,5.267-37.024
		c0-1.659-0.07-3.323-0.131-4.987c6.653,5.596,18.271,15.369,18.271,15.369L342.908,160z"/>
	<path fill="#118528" d="M12.157,133.446c-2.614,24.873-0.143,49.459,7.343,73.113l1.207,3.811l49.26-15.563l-1.207-3.815
		c-5.339-16.868-7.101-34.401-5.236-52.147l1.037-9.863c0,0-22.621,19.027-27.1,22.794c-3.973-4.457-24.358-27.325-24.358-27.325
		L12.157,133.446z M19.148,152.588c0-3.015,0.082-6.037,0.24-9.064c6.146,6.895,17.273,19.377,17.273,19.377
		s11.619-9.773,18.272-15.37c-0.06,1.663-0.131,3.328-0.131,4.986c0,12.557,1.823,24.929,5.267,37.025
		c-5.479,1.731-28.31,8.945-34.076,10.768C21.457,184.736,19.148,168.765,19.148,152.588z"/>
	<path fill="#FFFFFF" d="M372.05,188.521c-22.641,80.056-96.248,138.72-183.549,138.72c-87.311,0-160.921-58.662-183.563-138.72
		l42.008-11.897c17.463,61.734,74.226,106.969,141.554,106.969c67.323,0,124.085-45.239,141.544-106.975L372.05,188.521z"/>
	<path fill="#FFFFFF" d="M269.347,4l46.241,46.24c-14.266,18.934-22.722,42.492-22.722,68.024c0,12.712,2.097,24.935,5.962,36.341
		l0.007-0.002c2.292,6.761,3.534,13.997,3.534,21.524c0,25.525-14.258,47.723-35.244,59.059l-0.003-0.002
		c-13.283,7.175-27.658,12.588-42.81,15.928v-0.001c-14.126,3.114-26.583,11.321-35.813,22.263
		c-9.237-10.941-21.693-19.148-35.82-22.263l0,0.001c-15.152-3.34-29.526-8.753-42.809-15.928l-0.003,0.002
		c-20.986-11.336-35.244-33.533-35.244-59.059c0-7.527,1.243-14.763,3.534-21.524l0.007,0.002
		c3.866-11.406,5.963-23.629,5.963-36.341c0-25.533-8.457-49.09-22.723-68.024l46.234-46.236L269.347,4z"/>
	<path fill="#FFFFFF" d="M228.597,160.662c0,22.137-17.954,40.094-40.095,40.094c-22.148,0-40.104-17.957-40.104-40.094
		c0-22.149,17.956-40.103,40.104-40.103C210.643,120.56,228.597,138.513,228.597,160.662z"/>
	<path fill="#118528" d="M326.195,175.53c-8.31,29.378-26.3,55.856-50.661,74.554c-25.152,19.306-55.251,29.509-87.035,29.509
		c-31.791,0-61.889-10.203-87.041-29.508c-24.361-18.695-42.354-45.172-50.664-74.55l-1.089-3.85L0,185.762l1.088,3.847
		c11.31,39.989,35.794,76.025,68.945,101.468c34.236,26.276,75.201,40.165,118.468,40.165c43.257,0,84.221-13.889,118.458-40.165
		c33.148-25.444,57.631-61.479,68.94-101.468l1.088-3.847l-49.702-14.083L326.195,175.53z M280.405,256.431
		c24.652-18.924,43.103-45.406,52.32-74.896c5.605,1.589,28.495,8.075,34.308,9.722c-11.292,36.807-34.219,69.888-64.947,93.472
		c-32.825,25.195-72.104,38.513-113.585,38.513c-41.489,0-80.771-13.317-113.597-38.511c-30.728-23.584-53.656-56.666-64.95-93.474
		c5.815-1.646,28.705-8.128,34.312-9.716c9.218,29.488,27.668,55.971,52.322,74.891c26.563,20.387,58.345,31.161,91.912,31.161
		C222.06,287.593,253.844,276.818,280.405,256.431z"/>
	<polygon fill="#118528" points="49.71,171.679 52.657,198.584 69.957,194.801 	"/>
	<polygon fill="#118528" points="327.276,171.681 323.878,198.775 307.023,194.812 	"/>
	<polygon fill="#118528" points="169.869,4.004 81.216,92.657 83.982,112.515 192.486,4.004 	"/>
	
		<rect x="111.121" y="-11.64" transform="matrix(-0.7071 -0.7071 0.7071 -0.7071 166.9755 152.7382)" fill="#118528" width="8.001" height="106.855"/>
	<polygon fill="#118528" points="296.658,147.409 179.939,264.118 191.175,275.499 301.476,165.216 	"/>
	
		<rect x="227.683" y="107.501" transform="matrix(-0.7072 -0.707 0.707 -0.7072 257.3551 497.4156)" fill="#118528" width="8" height="175.828"/>
	<rect x="183.911" y="77.936" fill="#118528" width="9.193" height="42.804"/>
	<path fill="#118528" d="M145.397,160.662c0,23.754,19.336,43.094,43.104,43.094c23.759,0,43.095-19.34,43.095-43.094
		c0-23.767-19.336-43.103-43.095-43.103C164.733,117.56,145.397,136.895,145.397,160.662z M151.397,160.662
		c0-20.458,16.645-37.103,37.104-37.103c20.451,0,37.095,16.644,37.095,37.103c0,20.445-16.645,37.094-37.095,37.094
		C168.042,197.756,151.397,181.107,151.397,160.662z"/>
	<path fill="#118528" d="M149.042,148.447c6.103,8.635,21.591,14.215,39.459,14.215v-4c-16.354,0-30.898-5.033-36.193-12.523
		L149.042,148.447z"/>
	<path fill="#118528" d="M151.65,180.821c7.333,6.933,21.454,11.237,36.852,11.237c3.167,0,6.324-0.18,9.374-0.534l-0.462-3.974
		c-2.897,0.338-5.897,0.508-8.912,0.508c-14.417,0-27.484-3.886-34.104-10.144L151.65,180.821z"/>
	<path fill="#118528" d="M146.501,158.251c1.537,11.646,19.592,20.44,42,20.44c2.376,0,4.755-0.102,7.058-0.303l-0.349-3.984
		c-2.188,0.19-4.448,0.287-6.709,0.287c-19.739,0-36.801-7.603-38.034-16.963L146.501,158.251z"/>
	<path fill="#118528" d="M186.769,161.662c8.167,14.15,11.08,29.264,7.239,37.592l3.633,1.675c4.429-9.6,1.518-25.806-7.414-41.266
		L186.769,161.662z"/>
	<path fill="#118528" d="M207.328,139.488c1.744,2.343,3.393,4.856,4.901,7.47c7.21,12.485,10.377,25.73,8.265,34.594l3.891,0.928
		c2.341-9.82-0.991-24.184-8.69-37.522c-1.586-2.747-3.32-5.391-5.156-7.858L207.328,139.488z"/>
	<path fill="#118528" d="M197.046,147.967c1.269,1.817,2.484,3.727,3.61,5.676c9.869,17.08,11.804,35.666,4.312,41.414l2.434,3.174
		c9.335-7.159,7.922-27.195-3.281-46.588c-1.184-2.048-2.461-4.055-3.795-5.965L197.046,147.967z"/>
	<path fill="#118528" d="M186.769,159.662l3.458,2c8.177-14.163,19.808-24.241,28.942-25.079l-0.365-3.983
		C208.273,133.566,195.695,144.188,186.769,159.662z"/>
	<path fill="#118528" d="M161.298,144.958c-1.577,2.731-2.998,5.555-4.224,8.394l3.672,1.586c1.165-2.697,2.516-5.382,4.017-7.979
		c7.209-12.486,17.111-21.859,25.833-24.461l-1.138-3.833C179.79,121.547,168.999,131.623,161.298,144.958z"/>
	<path fill="#118528" d="M172.875,151.642c-1.18,2.046-2.279,4.155-3.268,6.269l3.624,1.694c0.94-2.01,1.986-4.016,3.109-5.963
		c9.873-17.093,24.991-28.062,33.711-24.449l1.531-3.695C200.718,120.997,184.082,132.236,172.875,151.642z"/>
	<path fill="#118528" d="M21.417,208.806c-0.697-1.552-1.289-3.231-1.633-4.901l5.887-2.238c0.122,1.444,0.599,3.5,1.372,5.223
		c0.682,1.517,1.762,2.207,2.808,1.738c3.306-1.485-2.468-9.109,5.325-12.607c4.521-2.031,8.983,0.143,11.679,6.146
		c0.515,1.147,1.092,2.794,1.493,4.317l-5.583,2.102c-0.22-1.482-0.589-2.938-1.21-4.321c-0.788-1.755-1.83-2.179-2.707-1.785
		c-2.868,1.288,2.063,9.289-5.055,12.486C29.237,217.01,24.145,214.879,21.417,208.806z"/>
	<path fill="#118528" d="M36.218,235.396l8.356-5.191l-3.942-6.345l-8.357,5.19l-3.629-5.844l21.205-13.172l3.63,5.844l-7.728,4.8
		l3.942,6.346l7.729-4.8l3.629,5.844L39.847,241.24L36.218,235.396z"/>
	<path fill="#118528" d="M53.354,257.811l2.261-3.622l-4.983-5.859l-3.914,1.677l-4.408-5.185l24.288-9.974l5.104,6.002
		l-13.484,22.68L53.354,257.811z M60.35,246.569c0.812-1.271,1.538-2.474,2.554-3.677l-0.048-0.056
		c-1.242,0.766-2.822,1.477-4.396,2.136l-2.636,1.125l2.779,3.269L60.35,246.569z"/>
	<path fill="#118528" d="M79.126,281.694l4.272-7.271c0.866-1.443,1.85-3.031,3.052-4.821l-0.057-0.047
		c-1.708,1.415-3.403,2.7-5.354,4.061l-6.291,4.435l-4.946-4.117l2.729-6.342c0.955-2.188,2.105-4.552,3.458-6.697l-0.057-0.047
		c-1.756,1.763-3.162,3.047-4.567,4.33l-5.742,5.277l-5.315-4.425l19.155-16.534l5.969,4.969l-3.519,8.331
		c-0.714,1.667-1.514,3.263-2.597,5.2l0.057,0.047c1.633-1.383,3.063-2.406,4.8-3.511l7.512-4.862l5.799,4.828l-12.817,21.811
		L79.126,281.694z"/>
	<path fill="#118528" d="M99.525,294.824l0.523-10.225l-0.223-0.132l-4.582,7.861l-5.943-3.464l12.571-21.567
		c2.087,1.045,4.758,2.56,7.474,4.142c5.496,3.203,7.427,6.939,4.634,11.733c-1.49,2.556-4.362,4.178-7.375,3.62
		c0.072,1.198,0.118,2.295,0.113,3.404l0.03,8.836L99.525,294.824z M106.176,276.142c-0.383-0.224-0.945-0.508-1.155-0.588
		l-2.701,4.633c0.205,0.163,0.634,0.455,0.954,0.643c1.629,0.948,3.251,0.737,4.182-0.859
		C108.201,278.691,108.125,277.277,106.176,276.142z"/>
	<path fill="#118528" d="M120.493,305.431c-7.283-2.903-9.104-8.726-6.173-16.077c2.984-7.488,10.233-10.293,16.727-7.706
		c6.046,2.409,9.556,7.591,6.201,16.008C134.235,305.213,127.089,308.059,120.493,305.431z M128.238,287.296
		c-2.233-0.889-5.186-0.075-6.924,4.288c-1.575,3.951-1.262,6.862,1.83,8.095c1.992,0.794,5.22,0.487,7.178-4.425
		C131.937,291.199,131.295,288.515,128.238,287.296z"/>
	<path fill="#118528" d="M148.371,313.928c-9.527-2.299-9.917-9.355-8.737-14.244c1.952-8.089,7.775-12.201,15.721-10.284
		c1.582,0.383,3.22,1.005,4.535,1.703l-2.212,5.857c-1.072-0.602-2.422-1.154-3.789-1.484c-3.164-0.764-5.67,0.952-6.616,4.87
		c-1.015,4.208,0.056,6.863,3.831,7.773c1.042,0.252,2.721,0.391,3.832,0.202l-0.649,6.159
		C152.466,314.611,150.312,314.396,148.371,313.928z"/>
	<path fill="#118528" d="M171.856,317.301l-4.048-11.889l-1.211,11.326l-6.839-0.731l2.654-24.823l6.84,0.731l-1.136,10.628
		l6.505-10.053l8.274,0.884l-8.376,11.192l6.126,13.674L171.856,317.301z"/>
	<path fill="#118528" d="M206.206,317.241l-5.422-8.686l-0.258,0.021l0.741,9.068l-6.856,0.56l-2.031-24.882
		c2.311-0.337,5.367-0.623,8.5-0.879c6.341-0.518,10.063,1.441,10.514,6.972c0.241,2.948-1.186,5.922-3.978,7.188
		c0.745,0.941,1.411,1.814,2.042,2.729l5.08,7.229L206.206,317.241z M200.972,298.113c-0.441,0.036-1.065,0.123-1.284,0.18
		l0.437,5.344c0.261,0.016,0.781,0.011,1.148-0.019c1.881-0.153,3.089-1.255,2.938-3.097
		C204.091,299.046,203.221,297.931,200.972,298.113z"/>
	<path fill="#118528" d="M229.268,313.99c-7.636,1.777-12.455-1.961-14.25-9.669c-1.828-7.854,2.521-14.296,9.328-15.88
		c6.339-1.477,12.18,0.771,14.232,9.597C240.424,305.963,236.183,312.381,229.268,313.99z M225.268,294.682
		c-2.343,0.546-4.3,2.9-3.234,7.474c0.964,4.143,2.883,6.354,6.125,5.601c2.089-0.488,4.563-2.582,3.364-7.733
		C230.533,295.772,228.472,293.936,225.268,294.682z"/>
	<path fill="#118528" d="M260.396,303.28l-7.506,3.044l-16.992-20.047l6.854-2.779l8.229,10.151
		c0.877,1.081,1.817,2.216,2.799,3.653l0.068-0.027c-0.31-1.551-0.5-2.512-0.711-4.901l-1.133-12.63l6.511-2.642L260.396,303.28z"/>
	<path fill="#118528" d="M273.05,297.322l-12.487-21.615l12.648-7.308l2.924,5.06l-6.692,3.867l1.758,3.042l6.341-3.664l2.811,4.868
		l-6.341,3.663l2.018,3.49l6.692-3.867l2.979,5.156L273.05,297.322z"/>
	<path fill="#118528" d="M300.542,279.366l-9.243-4.401l-0.206,0.156l5.504,7.244l-5.477,4.162l-15.105-19.875
		c1.766-1.528,4.188-3.414,6.69-5.317c5.063-3.849,9.256-4.2,12.612,0.216c1.791,2.356,2.189,5.63,0.519,8.2
		c1.135,0.392,2.164,0.771,3.188,1.2l8.174,3.357L300.542,279.366z M285.835,266.064c-0.354,0.27-0.832,0.679-0.986,0.843
		l3.245,4.269c0.229-0.127,0.663-0.411,0.956-0.635c1.502-1.141,1.929-2.72,0.81-4.191
		C288.964,265.171,287.63,264.699,285.835,266.064z"/>
	<path fill="#118528" d="M314.116,268.254c-1.218,1.189-2.591,2.325-4.039,3.224l-4.13-4.757c1.315-0.612,3.081-1.769,4.43-3.087
		c1.19-1.163,1.467-2.414,0.665-3.234c-2.532-2.593-7.699,5.454-13.67-0.656c-3.464-3.546-2.961-8.481,1.747-13.083
		c0.899-0.878,2.247-1.987,3.539-2.888l3.896,4.518c-1.317,0.717-2.556,1.565-3.641,2.625c-1.375,1.344-1.414,2.469-0.742,3.156
		c2.197,2.248,8.01-5.138,13.463,0.445C319.124,258.087,318.877,263.603,314.116,268.254z"/>
	<path fill="#118528" d="M319.437,232.779l3.243,2.394l4.128-5.596l4.554,3.361l-4.13,5.594l7.529,5.556l-4.086,5.536
		l-20.086-14.825l8.457-11.456l4.761,3.515L319.437,232.779z"/>
	<path fill="#118528" d="M341.647,227.439c1.881,1.179,2.469,3.727,1.29,5.606c-1.177,1.882-3.725,2.469-5.606,1.291
		c-1.881-1.177-2.467-3.726-1.29-5.606C337.219,226.85,339.768,226.264,341.647,227.439z"/>
	<path fill="#118528" d="M352.172,215.947c-4.414,8.75-11.373,7.518-15.864,5.252c-7.428-3.748-10.1-10.357-6.418-17.654
		c0.732-1.453,1.714-2.905,2.693-4.027l5.197,3.492c-0.83,0.908-1.679,2.096-2.312,3.351c-1.466,2.904-0.367,5.737,3.231,7.553
		c3.862,1.95,6.692,1.515,8.442-1.953c0.482-0.958,1.001-2.561,1.071-3.685l5.849,2.039
		C353.773,212.116,353.072,214.165,352.172,215.947z"/>
	<path fill="#118528" d="M355.589,198.152c2.066,0.814,3.108,3.213,2.294,5.276c-0.813,2.064-3.212,3.106-5.276,2.292
		c-2.064-0.813-3.106-3.211-2.294-5.274C351.127,198.381,353.525,197.338,355.589,198.152z"/>
	<path fill="#118528" d="M269.347,0L105.981,0.004L56.117,49.87l2.092,2.777c14.338,19.031,21.917,41.722,21.917,65.617
		c0,12.003-1.935,23.798-5.751,35.057c-2.493,7.332-3.753,15.003-3.753,22.806c0,26.156,14.309,50.135,37.343,62.578
		c13.803,7.452,28.556,12.941,43.853,16.313c12.636,2.783,24.577,10.219,33.625,20.935l3.056,3.62l3.049-3.62
		c9.048-10.716,20.989-18.151,33.625-20.936c15.295-3.37,30.048-8.859,43.849-16.314c23.037-12.44,37.347-36.419,37.347-62.575
		c0-7.802-1.26-15.473-3.745-22.808c-3.824-11.258-5.758-23.052-5.758-35.055c0-23.896,7.578-46.586,21.915-65.617l2.093-2.777
		L271.005,0H269.347z M267.69,8c2.109,2.109,38.575,38.575,42.71,42.709c-14.049,19.832-21.534,43.084-21.534,67.555
		c0,12.877,2.076,25.536,6.173,37.625c2.213,6.504,3.33,13.307,3.33,20.238c0,23.215-12.7,44.496-33.146,55.539
		c-13.148,7.099-27.201,12.327-41.771,15.539c-12.96,2.855-25.207,10.002-34.952,20.239c-9.752-10.237-22-17.384-34.959-20.24
		c-14.57-3.211-28.623-8.439-41.77-15.541c-20.448-11.04-33.148-32.321-33.148-55.536c0-6.932,1.118-13.735,3.322-20.24
		c4.104-12.086,6.182-24.744,6.182-37.623c0-24.471-7.486-47.724-21.535-67.555c4.135-4.135,40.594-40.596,42.704-42.706
		C112.507,8.004,264.479,8,267.69,8z"/>
	<path fill="#118528" d="M208.836,45.648c0-5.611-4.552-10.162-10.162-10.162c-5.612,0-10.157,4.551-10.157,10.162
		c0-5.611-4.55-10.162-10.164-10.162c-5.611,0-10.159,4.551-10.159,10.162c0,0.981,0.146,1.926,0.405,2.824
		c0,0-0.008,0.002-0.008,0.004c2.57,10.438,19.926,27.19,19.926,27.19s17.349-16.753,19.922-27.19c0-0.001-0.008-0.003-0.01-0.004
		C208.689,47.575,208.836,46.629,208.836,45.648z"/>
	<path fill="#118528" d="M188.517,40.526c-1.887-3.724-5.711-6.307-10.164-6.307c-6.301,0-11.427,5.127-11.427,11.43
		c0,1.062,0.153,2.13,0.456,3.176c2.605,10.625,19.536,27.061,20.255,27.755c0.492,0.474,1.27,0.474,1.759,0
		c0.716-0.694,17.646-17.13,20.275-27.799c0.281-1.003,0.434-2.072,0.434-3.132c0-6.302-5.128-11.43-11.431-11.43
		C194.221,34.219,190.397,36.802,188.517,40.526z M189.781,45.648c0-4.904,3.987-8.894,8.893-8.894c4.904,0,8.896,3.99,8.896,8.894
		c0,0.822-0.121,1.654-0.356,2.472c-2.138,8.698-15.19,22.238-18.696,25.762c-3.512-3.523-16.564-17.057-18.694-25.708
		c-0.241-0.87-0.361-1.702-0.361-2.525c0-4.904,3.989-8.894,8.891-8.894c4.906,0,8.896,3.99,8.896,8.894
		c0,0.7,0.568,1.268,1.268,1.268C189.216,46.917,189.781,46.348,189.781,45.648z"/>
	<path fill="#118528" d="M156.149,66.239c-0.001,0,0,0.01-0.001,0.01c-0.931,0.063-1.869,0.25-2.789,0.583
		c-5.274,1.92-7.992,7.753-6.073,13.027c1.92,5.273,7.75,7.992,13.025,6.073c-5.275,1.919-7.994,7.753-6.075,13.027
		c1.922,5.271,7.753,7.992,13.027,6.073c0.922-0.335,1.758-0.797,2.512-1.345c0,0,0.005,0.006,0.005,0.005
		c8.933-5.987,18.737-28.026,18.737-28.026S166.842,65.086,156.149,66.239z"/>
	<path fill="#118528" d="M156.018,64.978c0.015,0,0.03,0.007,0.044,0.006c-1.084,0.073-2.139,0.294-3.136,0.656
		c-4.637,1.688-7.522,6.083-7.522,10.754c0,1.295,0.222,2.612,0.69,3.898c1.514,4.159,5.208,6.888,9.323,7.411
		c-1.949,2.105-3.063,4.893-3.063,7.792c0,1.295,0.222,2.612,0.689,3.898c2.159,5.921,8.731,8.986,14.652,6.831
		c0.989-0.359,1.94-0.868,2.824-1.511c9.097-6.087,18.748-27.617,19.151-28.531c0.276-0.624,0.012-1.356-0.599-1.655
		C188.175,74.089,166.95,63.802,156.018,64.978z M148.478,79.426c-1.677-4.609,0.708-9.724,5.315-11.402
		c0.773-0.28,1.595-0.452,2.441-0.51c0.017-0.001,0.035-0.013,0.051-0.014c8.871-0.957,26.06,6.689,30.554,8.778
		c-2.109,4.506-10.361,21.399-17.766,26.362c-0.738,0.526-1.478,0.923-2.245,1.201c-4.607,1.677-9.724-0.708-11.402-5.315
		c-0.364-1.001-0.537-2.025-0.537-3.033c0-3.635,2.246-7.056,5.854-8.369c0.515-0.188,0.835-0.674,0.835-1.191
		c0-0.144-0.025-0.291-0.077-0.434c-0.239-0.658-0.534-1.074-1.191-0.835c-0.144,0-0.291,0.025-0.434,0.078
		C155.27,86.417,150.159,84.033,148.478,79.426z M15..6.013,64.978c0.002,0,0.003,0,0.005,0
		C156.017,64.978,156.015,64.978,156.013,64.978z"/>
	<path fill="#118528" d="M223.669,66.833c-0.92-0.334-1.859-0.52-2.789-0.583c0,0,0-0.01,0-0.01
		c-10.695-1.153-32.363,9.428-32.363,9.428s9.798,22.039,18.733,28.026c0,0.001,0.003-0.004,0.003-0.004
		c0.755,0.548,1.593,1.009,2.51,1.344c5.276,1.919,11.107-0.802,13.029-6.073c1.918-5.274-0.801-11.108-6.078-13.027
		c5.277,1.919,11.105-0.799,13.027-6.073C231.661,74.586,228.938,68.753,223.669,66.833z"/>
	<path fill="#118528" d="M187.961,74.527c-0.614,0.3-0.879,1.031-0.602,1.655c0.406,0.914,10.052,22.444,19.185,28.563
		c0.849,0.61,1.797,1.118,2.784,1.478c5.924,2.154,12.497-0.912,14.656-6.831c0.468-1.286,0.689-2.602,0.689-3.896
		c0-2.899-1.116-5.689-3.065-7.794c4.113-0.523,7.809-3.252,9.324-7.41c0.469-1.286,0.691-2.603,0.691-3.899
		c0-4.669-2.885-9.064-7.521-10.753c0,0,0,0-0.002,0c-0.995-0.362-2.052-0.583-3.136-0.656
		C210.083,63.799,188.859,74.089,187.961,74.527z M220.744,67.5c0.896,0.072,1.719,0.244,2.492,0.524
		c3.606,1.316,5.85,4.734,5.85,8.368c0,1.008-0.172,2.033-0.536,3.034c-1.68,4.606-6.793,6.991-11.401,5.315
		c-0.144-0.053-0.29-0.078-0.435-0.078c-0.517,0-1.003,0.322-1.19,0.835c-0.053,0.143-0.078,0.29-0.078,0.434
		c0,0.518,0.32,1.004,0.836,1.191c3.609,1.313,5.854,4.734,5.854,8.371c0,1.008-0.172,2.031-0.535,3.031
		c-1.679,4.606-6.796,6.991-11.403,5.315c-0.766-0.28-1.507-0.676-2.198-1.179c-7.442-4.982-15.702-21.879-17.81-26.385
		C194.683,74.189,211.872,66.543,220.744,67.5z"/>
</g>
</svg>
