<?xml version="1.0" encoding="utf-8"?>
<!-- Generator: Adobe Illustrator 16.0.0, SVG Export Plug-In . SVG Version: 6.00 Build 0)  -->
<!DOCTYPE svg PUBLIC "-//W3C//DTD SVG 1.1//EN" "http://www.w3.org/Graphics/SVG/1.1/DTD/svg11.dtd">
<svg version="1.1" id="Layer_1" xmlns="http://www.w3.org/2000/svg" xmlns:xlink="http://www.w3.org/1999/xlink" x="0px" y="0px"
	 width="960px" height="560px" viewBox="0 0 960 560" enable-background="new 0 0 960 560" xml:space="preserve">
<g>
	<path style="fill:#fff;" d="M480.014,420.3L480.014,420.3L480.014,420.3z"/>
	<path style="fill:#fff;" d="M625.175,78.875c-38.748-38.774-90.281-60.126-145.147-60.126c-113.165,0-205.238,92.073-205.251,205.247
		c-0.022,54.817,21.315,106.36,60.085,145.134c38.761,38.77,90.304,60.13,145.13,60.135c0,0,0.022,0,0.026,0c0,0,0,0,0.005,0
		c54.809,0,106.351-21.352,145.116-60.117s60.104-90.299,60.077-145.098C685.251,169.209,663.931,117.654,625.175,78.875z
		 M488.118,365.434c-1.416-3.082-4.507-5.224-8.118-5.224c-3.629,0-6.733,2.159-8.136,5.269c-3.696-0.367-7.352-0.981-10.963-1.846
		c-1.64-2.07-4.144-3.423-6.993-3.423c-0.949,0-1.846,0.184-2.706,0.461c-6.299-2.347-12.414-5.474-18.278-9.336
		c2.325-1.612,3.849-4.301,3.849-7.347c0-4.946-4.01-8.951-8.951-8.951c-3.808,0-7.033,2.388-8.328,5.734
		c-4.978-4.605-9.713-9.771-14.121-15.546c-3.414-4.462-6.541-9.197-9.435-14.125c0.394,0.054,0.779,0.116,1.187,0.116
		c4.946,0,8.951-4.01,8.951-8.951s-4.01-8.951-8.951-8.951c-3.477,0-6.456,2.002-7.938,4.901
		c-5.806-12.535-10.071-26.154-12.683-40.455c2.625-1.563,4.404-4.395,4.404-7.67c0-4.13-2.809-7.571-6.612-8.606
		c-0.269-2.885-0.47-5.788-0.609-8.709c4.113-0.807,7.217-4.426,7.217-8.776s-3.1-7.965-7.213-8.776
		c0.135-2.93,0.35-5.833,0.618-8.713c3.795-1.035,6.599-4.476,6.599-8.597c0-3.262-1.765-6.088-4.373-7.652
		c2.657-14.471,6.971-28.081,12.669-40.437c1.492,2.876,4.458,4.861,7.921,4.861c4.946,0,8.951-4.01,8.951-8.951
		s-4.01-8.951-8.951-8.951c-0.399,0-0.78,0.067-1.169,0.117c6.671-11.406,14.609-21.428,23.542-29.671
		c1.291,3.351,4.525,5.735,8.329,5.735c4.945,0,8.951-4.01,8.951-8.951c0-3.042-1.523-5.716-3.84-7.338
		c5.824-3.835,11.953-6.958,18.314-9.332c0.847,0.265,1.733,0.448,2.666,0.448c2.831,0,5.321-1.339,6.966-3.392
		c3.606-0.869,7.275-1.492,10.998-1.859c1.407,3.091,4.512,5.25,8.127,5.25c3.606,0,6.693-2.146,8.113-5.219
		c3.741,0.39,7.446,1.026,11.102,1.926c1.64,1.994,4.1,3.293,6.882,3.293c0.855,0,1.671-0.161,2.459-0.385
		c6.316,2.37,12.445,5.528,18.328,9.426c-2.2,1.631-3.647,4.225-3.647,7.177c0,4.946,4.01,8.951,8.951,8.951
		c3.683,0,6.846-2.231,8.217-5.412c4.852,4.525,9.466,9.583,13.775,15.223c3.396,4.449,6.515,9.162,9.399,14.076
		c-0.233-0.018-0.452-0.072-0.686-0.072c-4.945,0-8.951,4.01-8.951,8.951s4.01,8.951,8.951,8.951c3.288,0,6.133-1.796,7.692-4.439
		c5.726,12.477,9.919,26.029,12.49,40.239c-2.388,1.604-3.965,4.336-3.965,7.432c0,3.942,2.567,7.258,6.11,8.45
		c0.278,2.983,0.488,5.976,0.627,9c-3.865,0.99-6.737,4.467-6.737,8.642s2.872,7.652,6.737,8.646
		c-0.134,3.02-0.349,6.017-0.627,8.996c-3.543,1.196-6.11,4.507-6.11,8.454c0,3.095,1.577,5.824,3.965,7.428
		c-2.571,14.21-6.765,27.753-12.495,40.23c-1.555-2.643-4.395-4.436-7.688-4.436c-4.945,0-8.951,4.01-8.951,8.952
		c0,4.941,4.01,8.95,8.951,8.95c0.233,0,0.452-0.049,0.677-0.066c-2.89,4.914-6.013,9.632-9.417,14.089
		c-4.301,5.632-8.911,10.681-13.754,15.201c-1.375-3.177-4.533-5.403-8.212-5.403c-4.945,0-8.951,4.01-8.951,8.951
		c0,2.948,1.442,5.537,3.638,7.177c-5.877,3.897-12.006,7.052-18.322,9.426c-0.789-0.224-1.596-0.38-2.455-0.38
		c-2.787,0-5.242,1.294-6.882,3.288C495.559,364.407,491.854,365.039,488.118,365.434z M599.781,182.636
		c-1.065-5.174-2.334-10.259-3.794-15.25l50.584-29.209c4.762,9.233,8.735,18.834,11.885,28.734L599.781,182.636z M590.024,150.138
		c-2.227-5.51-4.731-10.851-7.464-16.021l36.104-36.104c7.047,7.746,13.346,16.002,18.933,24.658L590.024,150.138z M573.031,118.303
		c-1.491-2.177-3.023-4.319-4.614-6.406c-2.531-3.32-5.179-6.442-7.889-9.435l20.813-36.06c8.655,5.587,16.908,11.886,24.649,18.937
		L573.031,118.303z M547.218,89.667c-5.904-4.923-12.096-9.184-18.533-12.719l8.422-31.432c9.896,3.154,19.502,7.128,28.73,11.899
		L547.218,89.667z M512.1,69.619c-7.509-2.571-15.241-4.229-23.135-4.959V36.884c10.461,0.484,20.756,1.864,30.822,4.027
		L512.1,69.619z M471.045,64.624c-7.943,0.712-15.689,2.37-23.153,4.923l-7.656-28.573c9.999-2.173,20.286-3.571,30.81-4.072V64.624
		z M431.303,76.863c-6.496,3.553-12.692,7.835-18.57,12.701l-18.48-32.009c9.148-4.735,18.726-8.754,28.672-11.948L431.303,76.863z
		 M399.392,102.296c-4.476,4.901-8.678,10.192-12.576,15.85l-32.713-32.713c7.656-6.962,15.917-13.256,24.645-18.892
		L399.392,102.296z M377.238,133.907c-2.742,5.147-5.246,10.523-7.513,16.083l-47.174-27.238
		c5.631-8.727,11.926-16.993,18.888-24.649L377.238,133.907z M363.681,167.193c-1.483,5-2.777,10.112-3.871,15.331l-58.191-15.591
		c3.19-9.95,7.208-19.523,11.944-28.676L363.681,167.193z M356.917,200.296c-0.564,4.852-0.954,9.766-1.174,14.748H292.92
		c0.497-10.519,1.895-20.805,4.063-30.804L356.917,200.296z M355.747,232.964c0.211,4.964,0.583,9.888,1.143,14.757l-59.947,16.061
		c-2.164-10.066-3.548-20.357-4.032-30.818H355.747z M359.761,265.503c1.08,5.206,2.361,10.335,3.844,15.362l-50.167,28.967
		c-4.767-9.233-8.745-18.829-11.895-28.73L359.761,265.503z M369.59,298.095c2.253,5.546,4.785,10.913,7.553,16.102l-35.782,35.781
		c-7.051-7.741-13.346-15.998-18.937-24.648L369.59,298.095z M386.695,329.983c1.434,2.083,2.903,4.126,4.431,6.124
		c2.625,3.437,5.362,6.671,8.176,9.753l-20.626,35.729c-8.651-5.587-16.903-11.886-24.649-18.938L386.695,329.983z M412.647,358.602
		c5.936,4.915,12.154,9.175,18.619,12.688l-8.355,31.189c-9.896-3.153-19.501-7.132-28.726-11.898L412.647,358.602z M528.68,371.047
		c6.438-3.534,12.62-7.8,18.529-12.719l18.619,32.247c-9.233,4.767-18.83,8.745-28.727,11.899L528.68,371.047z M560.52,345.529
		c2.705-2.984,5.34-6.098,7.871-9.408c1.6-2.093,3.136-4.242,4.632-6.434l32.955,32.955c-7.741,7.047-15.993,13.346-24.645,18.941
		L560.52,345.529z M582.552,313.878c2.737-5.166,5.237-10.506,7.468-16.012l47.564,27.458c-5.587,8.655-11.881,16.907-18.937,24.653
		L582.552,313.878z M595.987,280.623c1.46-4.991,2.729-10.076,3.799-15.246l58.675,15.72c-3.149,9.9-7.123,19.501-11.89,28.73
		L595.987,280.623z M602.645,247.592c0.551-4.825,0.914-9.704,1.124-14.627h63.308c-0.479,10.461-1.855,20.751-4.015,30.813
		L602.645,247.592z M603.765,215.044c-0.206-4.919-0.573-9.802-1.12-14.627l60.408-16.187c2.159,10.067,3.539,20.357,4.023,30.813
		H603.765z M440.227,407.084l7.647-28.542c7.521,2.536,15.268,4.157,23.171,4.856v27.723
		C460.584,410.632,450.293,409.253,440.227,407.084z M512.095,378.386l7.692,28.698c-10.066,2.169-20.361,3.553-30.822,4.037V383.35
		C496.854,382.619,504.586,380.957,512.095,378.386z M480.014,420.3L480.014,420.3L480.014,420.3L480.014,420.3z"/>
	<path style="fill:#fff;" d="M505.294,326.896c0.009,0,0.014-0.004,0.022-0.004h31.902c4.945,0,8.96-4.01,8.96-8.96V130.095
		c0-4.946-4.015-8.96-8.96-8.96h-32.373h-50.135c-0.01,0-0.014,0-0.023,0h-31.901c-4.946,0-8.96,4.014-8.96,8.96v187.838
		c0,4.95,4.014,8.96,8.96,8.96h69.973L505.294,326.896z M431.746,232.969h15.209c1.537,5.717,4.521,10.972,8.817,15.268
		c6.469,6.474,15.075,10.04,24.228,10.04s17.759-3.566,24.228-10.031c4.301-4.305,7.285-9.556,8.826-15.272h15.209v75.999h-14.004
		V291.63c0-2.374-0.945-4.654-2.626-6.335c-1.68-1.68-3.96-2.625-6.334-2.625h-50.141c-2.374,0-4.654,0.945-6.335,2.625
		c-1.68,1.681-2.625,3.965-2.625,6.34l0.005,17.338h-14.457V232.969z M431.746,139.055h14.004v17.347
		c0,2.375,0.945,4.655,2.626,6.334c1.68,1.68,3.96,2.625,6.334,2.625l50.136-0.004c4.946,0,8.96-4.014,8.96-8.96v-17.342h14.453
		v75.999h-15.21c-1.536-5.712-4.516-10.962-8.812-15.263c-6.469-6.474-15.07-10.044-24.223-10.044h-0.009
		c-15.783,0-29.075,10.747-33.031,25.303h-15.228V139.055z M495.891,139.055v8.382l-32.216,0.004v-8.387H495.891z M480.005,242.332
		L480.005,242.332c-6.846,0-12.746-3.799-15.887-9.363l31.772,0.005C492.746,238.533,486.846,242.332,480.005,242.332z
		 M480.009,205.695C480.014,205.695,480.014,205.695,480.009,205.695h0.009c6.837,0,12.732,3.799,15.873,9.359h-31.768
		C467.268,209.494,473.163,205.695,480.009,205.695z M464.123,308.973l-0.005-8.383h32.216v8.383H464.123z"/>
	<circle style="fill:#fff;" cx="397.116" cy="171.822" r="8.951"/>
	<circle style="fill:#fff;" cx="397.116" cy="197.908" r="8.951"/>
	<circle style="fill:#fff;" cx="397.116" cy="224" r="8.951"/>
	<circle style="fill:#fff;" cx="397.116" cy="250.092" r="8.951"/>
	<circle style="fill:#fff;" cx="397.116" cy="276.178" r="8.951"/>
	<circle style="fill:#fff;" cx="562.885" cy="276.178" r="8.951"/>
	<circle style="fill:#fff;" cx="562.885" cy="250.092" r="8.951"/>
	<circle style="fill:#fff;" cx="562.885" cy="224" r="8.951"/>
	<circle style="fill:#fff;" cx="562.885" cy="197.908" r="8.951"/>
	<circle style="fill:#fff;" cx="562.885" cy="171.822" r="8.951"/>
	<circle style="fill:#fff;" cx="506.092" cy="104.012" r="8.951"/>
	<circle style="fill:#fff;" cx="480" cy="104.012" r="8.951"/>
	<circle style="fill:#fff;" cx="453.908" cy="104.012" r="8.951"/>
	<circle style="fill:#fff;" cx="453.908" cy="343.988" r="8.951"/>
	<circle style="fill:#fff;" cx="480" cy="343.988" r="8.951"/>
	<circle style="fill:#fff;" cx="506.092" cy="343.988" r="8.951"/>
</g>
</svg>
