<?xml version="1.0" encoding="iso-8859-1"?>
<!-- Generator: Adobe Illustrator 16.0.0, SVG Export Plug-In . SVG Version: 6.00 Build 0)  -->
<!DOCTYPE svg PUBLIC "-//W3C//DTD SVG 1.1//EN" "http://www.w3.org/Graphics/SVG/1.1/DTD/svg11.dtd">
<svg version="1.1" id="Capa_1" xmlns="http://www.w3.org/2000/svg" xmlns:xlink="http://www.w3.org/1999/xlink" x="0px" y="0px"
	 width="32.001px" height="32.001px" viewBox="0 0 32.001 32.001" style="enable-background:new 0 0 32.001 32.001;"
	 xml:space="preserve">
<g>
	<path d="M29.824,14.867h-7.59c0.701-6.977,4.605-9.606,4.834-9.754c1.017-0.626,1.336-1.956,0.719-2.979
		c-0.625-1.028-1.961-1.351-2.989-0.732c-0.269,0.161-6.146,3.85-6.937,13.465H12.96C12.167,5.252,6.291,1.564,6.023,1.402
		c-1.021-0.616-2.34-0.291-2.966,0.72C2.427,3.134,2.74,4.47,3.747,5.111C3.93,5.23,7.879,7.847,8.582,14.867H2.176
		C0.973,14.867,0,15.841,0,17.044c0,1.201,0.973,2.176,2.176,2.176h6.393c-0.73,6.222-4.487,7.361-4.634,7.4
		c-1.168,0.281-1.889,1.456-1.608,2.624c0.24,0.997,1.131,1.669,2.114,1.669c0.168,0,0.338-0.021,0.51-0.061
		c0.308-0.076,7.113-1.829,8.003-11.636h4.914c0.889,9.807,7.694,11.56,8.004,11.636c0.17,0.039,0.34,0.061,0.505,0.061
		c0.967,0,1.836-0.656,2.089-1.637c0.298-1.148-0.399-2.329-1.545-2.646c-0.176-0.049-3.937-1.188-4.667-7.41h7.571
		c1.202,0,2.176-0.975,2.176-2.176C32.001,15.841,31.027,14.867,29.824,14.867z"/>
</g>
<g>
</g>
<g>
</g>
<g>
</g>
<g>
</g>
<g>
</g>
<g>
</g>
<g>
</g>
<g>
</g>
<g>
</g>
<g>
</g>
<g>
</g>
<g>
</g>
<g>
</g>
<g>
</g>
<g>
</g>
</svg>
