<?xml version="1.0" encoding="utf-8"?>
<!-- Generator: Adobe Illustrator 16.0.0, SVG Export Plug-In . SVG Version: 6.00 Build 0)  -->
<!DOCTYPE svg PUBLIC "-//W3C//DTD SVG 1.1//EN" "http://www.w3.org/Graphics/SVG/1.1/DTD/svg11.dtd">
<svg version="1.1" id="Capa_1" xmlns="http://www.w3.org/2000/svg" xmlns:xlink="http://www.w3.org/1999/xlink" x="0px" y="0px"
	 width="512px" height="512px" viewBox="0 0 512 512" enable-background="new 0 0 512 512" xml:space="preserve">
<path fill="#FFFFFF" d="M364.633,380.252c4.335-4.485,4.335-11.709,0-16.033c-4.485-4.485-11.708-4.485-16.032,0l-81.296,81.145
	V177.24c0-6.254-4.971-11.386-11.224-11.386s-11.385,5.132-11.385,11.386v268.113l-81.134-81.145
	c-4.485-4.485-11.547-4.485-16.033,0c-4.334,4.334-4.334,11.547,0,16.033l100.541,100.541c4.334,4.334,11.548,4.334,16.032,0
	L364.633,380.252z M221.762,299.593c6.092,0,11.224,4.971,11.224,11.224c0,6.254-5.132,11.386-11.224,11.386H113.523
	c-31.268,0-59.646-12.669-80.174-33.349C12.668,268.325,0,239.947,0,208.68c0-31.268,12.668-59.656,33.349-80.175
	c20.528-20.528,48.907-33.358,80.174-33.358c7.537,0,15.073,0.798,22.448,2.404c4.172,0.798,8.173,1.768,12.022,3.051
	c12.022-20.69,29.187-38.006,49.553-50.674c22.448-13.952,48.907-21.973,77.285-21.973c38.805,0,74.244,15.234,100.541,39.925
	c23.731,22.287,39.926,52.119,44.896,85.792c2.404-0.323,4.971-0.323,7.375-0.323c23.246,0,44.421,9.456,59.646,24.69
	c15.396,15.235,24.69,36.4,24.69,59.656c0,23.407-9.305,44.421-24.69,59.808c-15.234,15.234-36.399,24.69-59.646,24.69H290.389
	c-6.253,0-11.224-5.132-11.224-11.386s4.971-11.225,11.224-11.225h137.265c16.992,0,32.551-6.899,43.613-18.123
	c11.224-11.225,18.124-26.621,18.124-43.775c0-16.993-6.9-32.551-18.124-43.613c-11.062-11.224-26.62-18.125-43.613-18.125
	c-2.566,0-5.132,0.162-7.375,0.485c-2.404,0.162-4.809,0.637-6.899,1.122c-0.799,0.162-1.606,0.323-2.405,0.485
	c-6.253,0.323-11.547-4.485-12.021-10.739c-1.92-32.551-16.518-61.899-38.966-82.902c-22.286-21.003-52.271-33.833-85.145-33.833
	c-24.055,0-46.502,6.9-65.425,18.599c-19.72,12.022-35.602,29.509-46.018,50.351l0,0c-2.728,5.294-8.981,7.698-14.588,5.456
	c-5.456-2.404-11.224-4.172-17.154-5.456c-5.769-1.121-11.709-1.768-18.124-1.768c-25.176,0-47.785,10.264-64.303,26.62
	c-16.356,16.518-26.62,39.289-26.62,64.303c0,25.176,10.264,47.785,26.62,64.303c16.518,16.355,39.127,26.62,64.303,26.62H221.762z"
	/>
</svg>
